<?xml version="1.0" standalone="no"?>
<!DOCTYPE svg PUBLIC "-//W3C//DTD SVG 1.1//EN" "http://www.w3.org/Graphics/SVG/1.1/DTD/svg11.dtd" >
<svg xmlns="http://www.w3.org/2000/svg" xmlns:xlink="http://www.w3.org/1999/xlink" version="1.1">
<metadata>
Created by FontForge 20201107 at Thu Sep 26 14:42:33 2019
 By 
Copyright (c) 2019 by Colophon Foundry &#38; Benjamin Critton. All rights reserved.
</metadata>
<defs>
<font id="ValueSerifPro-Medium" horiz-adv-x="650" >
  <font-face 
    font-family="Value Serif Pro Medium"
    font-weight="500"
    font-stretch="normal"
    units-per-em="1000"
    panose-1="2 0 6 3 7 0 0 2 0 4"
    ascent="800"
    descent="-200"
    x-height="494"
    cap-height="700"
    bbox="-748 -311 1232 952"
    underline-thickness="50"
    underline-position="-100"
    unicode-range="U+000D-FB02"
  />
<missing-glyph horiz-adv-x="554" 
d="M36 8v684l8 8h466l8 -8v-684l-8 -8h-466zM397 628h-240l120 -212zM235 350l-130 222v-443zM449 571l-130 -221l130 -221v442zM397 73l-120 211l-120 -211h240z" />
    <glyph glyph-name="f_f" unicode="ff" horiz-adv-x="625" 
d="M514 598.5q-19 20.5 -16 54.5q-21 -9 -33 -34t-12 -64l7 -14l35 -16l8 -13v-18h76l8 -8v-38l-8 -8h-76v-349q0 -15 11 -26t26 -11h15l8 -8v-38l-8 -8h-209l-8 8v38l8 8h15q15 0 26 11t11 26v309q0 16 -12 28t-28 12h-158v-349q0 -15 11 -26t26 -11h15l8 -8v-38l-8 -8
h-209l-8 8v38l8 8h15q15 0 26 11t11 26v309q0 16 -12 28t-28 12h-15l-8 8v38l8 8h55v47q0 59 21 98t54.5 57t71.5 18q36 0 59 -19.5t23 -51.5q0 -28 -18.5 -46.5t-46.5 -18.5q-29 0 -48 20.5t-16 54.5q-45 -19 -45 -98l7 -14l35 -16l8 -13v-18h198v47q0 59 21.5 98t55 57
t71.5 18q35 0 58 -19.5t23 -51.5q0 -28 -18.5 -46.5t-46.5 -18.5q-29 0 -48 20.5z" />
    <glyph glyph-name="f_f_i" unicode="ffi" horiz-adv-x="900" 
d="M864 46v-38l-8 -8h-209l-8 8v38l8 8h15q15 0 26 11t11 26v312q0 16 -11.5 26.5t-26.5 10.5h-158v-349q0 -15 11 -26t26 -11h15l8 -8v-38l-8 -8h-209l-8 8v38l8 8h15q15 0 26 11t11 26v309q0 16 -12 28t-28 12h-158v-349q0 -15 11 -26t26 -11h15l8 -8v-38l-8 -8h-209l-8 8
v38l8 8h15q15 0 26 11t11 26v309q0 16 -12 28t-28 12h-15l-8 8v38l8 8h55v47q0 59 21 98t54.5 57t71.5 18q36 0 59 -19.5t23 -51.5q0 -28 -18.5 -46.5t-46.5 -18.5q-29 0 -48 20.5t-16 54.5q-45 -19 -45 -98l7 -14l35 -16l8 -13v-18h198v47q0 59 21.5 98t55 57t71.5 18
q35 0 58 -19.5t23 -51.5q0 -28 -18.5 -46.5t-46.5 -18.5q-29 0 -48 20.5t-16 54.5q-21 -9 -33 -34t-12 -64l7 -14l35 -16l8 -13v-18h301l7 -8l-7 -75v-320q0 -15 10.5 -26t25.5 -11h16zM703 596q-20 20 -20 49t20 49t49 20t49 -20t20 -49q0 -28 -20 -48.5t-49 -20.5t-49 20z
" />
    <glyph glyph-name="f_f_l" unicode="ffl" horiz-adv-x="901" 
d="M35 8v38l8 8h15q15 0 26 11t11 26v309q0 16 -12 28t-28 12h-15l-8 8v38l8 8h55v30q0 61 29 105.5t76.5 67.5t103.5 23q39 0 78 -11.5t68 -36.5q29 30 68.5 46t87.5 16q38 0 74 -9.5t62 -27.5l46 23h27l8 -8l-8 -75v-546q0 -15 11 -26t26 -11h15l8 -8v-38l-8 -8h-209l-8 8
v38l8 8h15q15 0 26 11t11 26v448q0 66 -34 98.5t-93 32.5t-94 -33.5t-35 -82.5l7 -13l33 -16l8 -13v-18h76l8 -8v-38l-8 -8h-76v-349q0 -15 11 -26t26 -11h15l8 -8v-38l-8 -8h-209l-8 8v38l8 8h15q15 0 26 11t11 26v309q0 16 -12 28t-28 12h-15l-8 8v38l8 8h55v46
q0 59 -33 86t-87 27t-90 -27.5t-36 -71.5l8 -13l33 -16l8 -13v-18h76l8 -8v-38l-8 -8h-76v-349q0 -15 11 -26t26 -11h15l8 -8v-38l-8 -8h-209z" />
    <glyph glyph-name="f_i" unicode="fi" horiz-adv-x="601" 
d="M565 46v-38l-8 -8h-209l-8 8v38l8 8h15q15 0 26 11t11 26v312q0 16 -11.5 26.5t-26.5 10.5h-162v-349q0 -15 11 -26t26 -11h15l8 -8v-38l-8 -8h-209l-8 8v38l8 8h15q15 0 26 11t11 26v309q0 16 -12 28t-28 12h-15l-8 8v38l8 8h55v47q0 59 21 98t54.5 57t71.5 18
q36 0 59 -19.5t23 -51.5q0 -28 -18.5 -46.5t-46.5 -18.5q-29 0 -48 20.5t-16 54.5q-45 -19 -45 -98l7 -14l35 -16l8 -13v-18h305l8 -8l-8 -75v-320q0 -15 11 -26t26 -11h15zM404.5 596.5q-20.5 20.5 -20.5 48.5q0 29 20.5 49t48.5 20q29 0 49 -20t20 -49q0 -28 -20 -48.5
t-49 -20.5q-28 0 -48.5 20.5z" />
    <glyph glyph-name="f_l" unicode="fl" horiz-adv-x="599" 
d="M35 8v38l8 8h15q15 0 26 11t11 26v309q0 16 -12 28t-28 12h-15l-8 8v38l8 8h55v30q0 65 26.5 112.5t74 72.5t107.5 25q38 0 74.5 -9.5t62.5 -27.5l46 23h27l8 -8l-8 -75v-546q0 -15 11 -26t26 -11h15l8 -8v-38l-8 -8h-209l-8 8v38l8 8h15q15 0 26 11t11 26v448
q0 66 -34 98.5t-93 32.5t-95 -34t-36 -82l7 -13l35 -16l8 -13v-18h76l8 -8v-38l-8 -8h-76v-349q0 -15 11 -26t26 -11h15l8 -8v-38l-8 -8h-209z" />
    <glyph glyph-name=".notdef" horiz-adv-x="554" 
d="M36 8v684l8 8h466l8 -8v-684l-8 -8h-466zM397 628h-240l120 -212zM235 350l-130 222v-443zM449 571l-130 -221l130 -221v442zM397 73l-120 211l-120 -211h240z" />
    <glyph glyph-name=".null" horiz-adv-x="0" 
 />
    <glyph glyph-name="nonmarkingreturn" unicode="&#xd;" horiz-adv-x="463" 
 />
    <glyph glyph-name="space" unicode=" " horiz-adv-x="220" 
 />
    <glyph glyph-name="exclam" unicode="!" horiz-adv-x="215" 
d="M79 230l-32 460l10 10h102l10 -10l-32 -460l-10 -10h-38zM60 5q-19 19 -19 47t19 47.5t47 19.5t47.5 -19.5t19.5 -47.5t-19.5 -47t-47.5 -19t-47 19z" />
    <glyph glyph-name="quotedbl" unicode="&#x22;" horiz-adv-x="357" 
d="M61 483l-19 207l10 10h87l10 -10l-19 -207l-10 -10h-49zM227 483l-19 207l10 10h87l10 -10l-19 -207l-10 -10h-49z" />
    <glyph glyph-name="numbersign" unicode="#" horiz-adv-x="635" 
d="M143 57l31 173h-137l-6 8l7 37l10 8h136l25 134h-141l-6 8l7 37l10 8h140l32 173l10 7h39l6 -7l-32 -173h136l32 173l10 7h39l6 -7l-32 -173h133l6 -8l-8 -37l-9 -8h-132l-25 -134h137l6 -8l-8 -37l-9 -8h-136l-31 -173l-10 -7h-39l-6 7l31 173h-136l-31 -173l-10 -7h-39
zM375 283l25 134h-136l-25 -134h136z" />
    <glyph glyph-name="dollar" unicode="$" horiz-adv-x="510" 
d="M237 -66v52q-57 2 -106 19.5t-81 42.5l-7 13l8 144l9 9h33l9 -9q7 -78 42.5 -119t92.5 -45v276l-10 5q-87 43 -131 88.5t-44 116.5q0 79 52 128.5t133 57.5v54l9 9h25l9 -9v-53q47 -3 84.5 -16t61.5 -32l6 -10l5 -127l-9 -9h-32l-9 9q-13 120 -107 130v-240q5 -2 12 -5.5
t16 -7.5q75 -36 120 -83.5t45 -128.5q0 -83 -52 -139.5t-141 -66.5v-54l-9 -10h-25zM237 657q-39 -7 -62 -34t-23 -67q0 -36 20 -61.5t65 -51.5v214zM341.5 85.5q22.5 30.5 22.5 76.5q0 47 -21 76.5t-63 54.5v-247q39 9 61.5 39.5z" />
    <glyph glyph-name="percent" unicode="%" horiz-adv-x="628" 
d="M110.5 418.5q-37.5 20.5 -59 57t-21.5 80.5t21.5 80.5t59 57t83.5 20.5t83.5 -20.5t59 -57t21.5 -80.5t-21.5 -80.5t-59 -57t-83.5 -20.5t-83.5 20.5zM250 473q21 29 21 83t-21 83t-56 29t-56 -29t-21 -83t21 -83t56 -29t56 29zM86 214l-15 33l4 13l451 235l13 -5l15 -32
l-3 -14l-451 -235zM350.5 6.5q-37.5 20.5 -59 57t-21.5 80.5t21.5 80.5t59 57t83.5 20.5t83.5 -20.5t59 -57t21.5 -80.5t-21.5 -80.5t-59 -57t-83.5 -20.5t-83.5 20.5zM490 61q21 29 21 83t-21 83t-56 29t-56 -29t-21 -83t21 -83t56 -29t56 29z" />
    <glyph glyph-name="ampersand" unicode="&#x26;" horiz-adv-x="713" 
d="M152.5 10.5q-52.5 24.5 -83 71.5t-30.5 112q0 66 37 119t102 84q-54 79 -54 143q0 50 24.5 90t68 62t98.5 22q51 0 90.5 -18.5t61 -51.5t21.5 -74q0 -76 -52 -116.5t-127 -65.5l168 -223q34 47 40 141q1 16 -10.5 28t-28.5 12h-32l-8 8v38l8 8h200l8 -8v-38l-8 -8h-32
q-16 0 -27.5 -11.5t-12.5 -28.5q-9 -115 -57 -189l18 -22q33 -41 88 -41h26l9 -9v-36l-9 -9h-162l-16 10l-29 36q-73 -60 -170 -60q-67 0 -119.5 24.5zM364 488.5q30 31.5 30 80.5q0 41 -22 65.5t-60 24.5q-37 0 -61 -26t-24 -70q0 -60 49 -130q58 24 88 55.5zM403 96
l-186 247q-65 -49 -65 -136q0 -63 40 -104t107 -41q58 0 104 34z" />
    <glyph glyph-name="quotesingle" unicode="'" horiz-adv-x="195" 
d="M63 483l-19 207l10 10h87l10 -10l-19 -207l-10 -10h-49z" />
    <glyph glyph-name="parenleft" unicode="(" horiz-adv-x="310" 
d="M30 268q0 279 227 463h14l14 -15v-14q-72 -87 -103.5 -195t-31.5 -239t31.5 -238.5t103.5 -195.5v-14l-14 -15h-14q-227 184 -227 463z" />
    <glyph glyph-name="parenright" unicode=")" horiz-adv-x="310" 
d="M25 -180v14q72 88 103.5 195.5t31.5 238.5t-31.5 239t-103.5 195v14l14 15h14q227 -184 227 -463t-227 -463h-14z" />
    <glyph glyph-name="asterisk" unicode="*" horiz-adv-x="411" 
d="M164 385l30 131l-96 -91l-16 3l-32 53l6 16l127 40l-127 39l-6 16l32 53l16 3l96 -91l-30 131l11 12h61l11 -12l-30 -131l95 91l17 -3l32 -53l-6 -16l-127 -39l127 -40l6 -16l-32 -53l-17 -3l-95 91l30 -131l-11 -12h-61z" />
    <glyph glyph-name="plus" unicode="+" horiz-adv-x="496" 
d="M213 166v167h-161l-8 8v52l8 8h161v167l8 8h54l8 -8v-167h161l8 -8v-52l-8 -8h-161v-167l-8 -8h-54z" />
    <glyph glyph-name="comma" unicode="," horiz-adv-x="219" 
d="M56 -116l-7 11l2 11q28 17 41.5 38.5t14.5 41.5q-26 1 -45 20t-19 46t19.5 47t46.5 20q30 0 49.5 -21.5t19.5 -57.5q0 -56 -33.5 -97t-79.5 -61z" />
    <glyph glyph-name="hyphen" unicode="-" horiz-adv-x="398" 
d="M40 290v54l8 8h302l8 -8v-54l-8 -8h-302z" />
    <glyph glyph-name="period" unicode="." horiz-adv-x="215" 
d="M60 5q-19 19 -19 47t19 47.5t47 19.5t47.5 -19.5t19.5 -47.5t-19.5 -47t-47.5 -19t-47 19z" />
    <glyph glyph-name="slash" unicode="/" horiz-adv-x="509" 
d="M15 8l390 684l12 8h69l8 -8l-390 -684l-12 -8h-69z" />
    <glyph glyph-name="zero" unicode="0" horiz-adv-x="689" 
d="M182.5 34q-68.5 48 -105 130.5t-36.5 185.5t36.5 185.5t105 130.5t161.5 48t161.5 -48t105.5 -130.5t37 -185.5t-37 -185.5t-105.5 -130.5t-161.5 -48t-161.5 48zM477.5 127q49.5 79 49.5 223t-49.5 223t-133.5 79q-83 0 -132.5 -79t-49.5 -223t49.5 -223t132.5 -79
q84 0 133.5 79z" />
    <glyph glyph-name="one" unicode="1" horiz-adv-x="355" 
d="M54 8v38l8 8h32q15 0 27.5 12.5t12.5 27.5v438q0 18 -10 28.5t-27 10.5q-19 0 -36 -14h-8l-17 30l1 8l170 105h32l10 -10v-598q1 -14 13 -26t27 -12h32l8 -8v-38l-8 -8h-259z" />
    <glyph glyph-name="two" unicode="2" horiz-adv-x="575" 
d="M45 12l157 178q88 99 128.5 175.5t40.5 139.5t-33 100t-95 37q-67 0 -106.5 -43.5t-47.5 -98.5l-8 -8h-24l-8 8q-1 46 22.5 95.5t74 84t127.5 34.5q99 0 159.5 -55.5t60.5 -149.5q0 -56 -28 -112t-93.5 -127t-184.5 -176h147q49 0 76.5 17t39.5 44t18 67l8 8h38l6 -8
l-16 -214l-8 -8h-443z" />
    <glyph glyph-name="three" unicode="3" horiz-adv-x="585" 
d="M146 16q-53 30 -80.5 82t-28.5 117l8 8h22l8 -8q11 -69 61 -112t123 -43q75 0 117 47.5t42 120.5q0 77 -43 120.5t-122 43.5h-43l-4 9l150 199h-167q-35 0 -54.5 -18.5t-26.5 -56.5l-8 -8h-27l-8 8l15 165l10 10h395l8 -8v-12l-164 -218q57 -4 104.5 -31.5t76 -77.5
t28.5 -117q0 -71 -35.5 -128.5t-96 -89.5t-133.5 -32q-74 0 -127 30z" />
    <glyph glyph-name="four" unicode="4" horiz-adv-x="576" 
d="M249 8v38l8 8h27q15 0 27.5 12t12.5 27v72h-292l-10 10v52l370 473h37l10 -10v-454h92l8 -8v-55l-8 -8h-92v-72q0 -15 12.5 -27t27.5 -12h29l8 -8v-38l-8 -8h-251zM324 236v266h-8l-205 -266h213z" />
    <glyph glyph-name="five" unicode="5" horiz-adv-x="579" 
d="M159 14q-49 28 -74.5 75t-25.5 101l8 8h33l8 -8q8 -65 53.5 -99.5t102.5 -34.5q68 0 106.5 50.5t38.5 126.5q0 78 -38 123.5t-106 45.5q-47 0 -83 -21.5t-57 -57.5l-14 -5l-28 3l-7 9l42 360l11 10h358l8 -8l-9 -88l-8 -8h-301l-24 -178q27 27 65 41t83 14
q66 0 118 -28.5t81.5 -81t29.5 -122.5q0 -76 -34.5 -134t-92.5 -89.5t-127 -31.5q-68 0 -117 28z" />
    <glyph glyph-name="six" unicode="6" horiz-adv-x="587" 
d="M162.5 26q-59.5 40 -90.5 113t-31 172q0 106 32 197.5t99 148.5t165 57q75 0 125.5 -41.5t57.5 -112.5l-8 -8h-26l-8 8q-18 45 -52 67.5t-79 22.5q-87 0 -132.5 -77.5t-51.5 -192.5q26 32 68 52.5t95 20.5q62 0 113.5 -27.5t82 -79t30.5 -121.5q0 -71 -33 -125t-89 -84
t-125 -30q-83 0 -142.5 40zM399.5 93.5q36.5 48.5 36.5 124.5t-36.5 124.5t-98.5 48.5q-63 0 -99 -48t-36 -125q0 -76 36.5 -124.5t98.5 -48.5t98.5 48.5z" />
    <glyph glyph-name="seven" unicode="7" horiz-adv-x="550" 
d="M106 10l313 586h-253q-32 0 -49 -14.5t-24 -50.5l-8 -8h-28l-8 8l15 159l10 10h441l8 -8v-12l-283 -670l-10 -10h-118z" />
    <glyph glyph-name="eight" unicode="8" horiz-adv-x="544" 
d="M463.5 305q40.5 -47 40.5 -115q0 -57 -29.5 -103.5t-83 -73.5t-121.5 -27q-64 0 -116.5 21t-83 62t-30.5 97q0 60 36 111.5t110 82.5q-58 36 -87.5 77t-29.5 92q0 57 28 99t75 64t102 22t100 -20t71 -56.5t26 -84.5q0 -49 -33 -90.5t-95 -67.5q80 -43 120.5 -90z
M196.5 629q-29.5 -27 -29.5 -71q0 -43 32 -72.5t96 -64.5q43 22 67.5 56.5t24.5 72.5q0 47 -31.5 76.5t-81.5 29.5q-48 0 -77.5 -27zM365.5 74q36.5 30 36.5 86q0 39 -20.5 68t-54 51.5t-94.5 54.5q-51 -31 -72.5 -71t-21.5 -82q0 -60 39.5 -98.5t100.5 -38.5q50 0 86.5 30z
" />
    <glyph glyph-name="nine" unicode="9" horiz-adv-x="587" 
d="M128 30q-52 44 -59 115l8 8h26l8 -8q16 -46 52 -70.5t84 -24.5q85 0 127.5 76t49.5 194q-26 -32 -68 -52.5t-94 -20.5q-63 0 -114.5 27.5t-82 79t-30.5 121.5q0 71 33 125t89.5 84t124.5 30q128 0 196 -86t68 -233q0 -109 -31 -202t-96.5 -150t-164.5 -57q-74 0 -126 44z
M385 357.5q37 48.5 37 124.5t-37 124.5t-99 48.5t-98.5 -48.5t-36.5 -124.5t36.5 -124.5t98.5 -48.5t99 48.5z" />
    <glyph glyph-name="colon" unicode=":" horiz-adv-x="215" 
d="M60 5q-19 19 -19 47t19 47.5t47 19.5t47.5 -19.5t19.5 -47.5t-19.5 -47t-47.5 -19t-47 19zM60 366q-19 19 -19 47t19 47.5t47 19.5t47.5 -19.5t19.5 -47.5t-19.5 -47t-47.5 -19t-47 19z" />
    <glyph glyph-name="semicolon" unicode=";" horiz-adv-x="219" 
d="M63 366q-19 19 -19 47t19 47.5t47 19.5t47.5 -19.5t19.5 -47.5t-19.5 -47t-47.5 -19t-47 19zM56 -116l-7 11l2 11q28 17 41.5 38.5t14.5 41.5q-26 1 -45 20t-19 46t19.5 47t46.5 20q30 0 49.5 -21.5t19.5 -57.5q0 -56 -33.5 -97t-79.5 -61z" />
    <glyph glyph-name="less" unicode="&#x3c;" horiz-adv-x="407" 
d="M52 304l-8 13v60l8 13l290 209h13l8 -8v-45l-8 -12l-207 -183v-8l207 -183l8 -12v-45l-8 -8h-13z" />
    <glyph glyph-name="equal" unicode="=" horiz-adv-x="496" 
d="M44 430v51l8 8h392l8 -8v-51l-8 -8h-392zM44 253v51l8 8h392l8 -8v-51l-8 -8h-392z" />
    <glyph glyph-name="greater" unicode="&#x3e;" horiz-adv-x="407" 
d="M44 103v45l8 12l207 183v8l-207 183l-8 12v45l8 8h13l290 -209l8 -13v-60l-8 -13l-290 -209h-13z" />
    <glyph glyph-name="question" unicode="?" horiz-adv-x="462" 
d="M186 230v15q0 43 9.5 75t23 53t36.5 48q28 34 41 59.5t13 64.5q0 50 -30 77.5t-77 27.5q-53 0 -87.5 -33t-45.5 -95l-8 -9h-18l-8 9q3 62 30 105.5t71 65t95 21.5q80 0 133 -44.5t53 -124.5q0 -37 -12 -65t-29.5 -46.5t-47.5 -44.5q-42 -35 -63.5 -65.5t-21.5 -78.5v-15
l-10 -10h-37zM166 5q-19 19 -19 47t19 47.5t46 19.5q28 0 48 -19.5t20 -47.5t-19.5 -47t-48.5 -19q-27 0 -46 19z" />
    <glyph glyph-name="at" unicode="@" horiz-adv-x="859" 
d="M223.5 -36.5q-86.5 49.5 -137 138.5t-50.5 203q0 119 54.5 212t148.5 145t209 52q100 0 186.5 -42.5t138 -121t51.5 -181.5q0 -71 -28 -123.5t-74.5 -80t-102.5 -27.5h-82l-8 8v58q-18 -36 -52.5 -56t-73.5 -20q-44 0 -82 24t-61.5 67.5t-23.5 97.5q0 52 23 95t63 68.5
t89 25.5q39 0 68 -14t55 -43h6l32 47h28l8 -8v-271q0 -24 23 -24h14q43 0 69.5 42.5t26.5 126.5q0 92 -39 159t-106.5 102t-151.5 35q-92 0 -163.5 -44.5t-111 -123.5t-39.5 -178q0 -96 39 -172.5t108 -120t156 -43.5q147 0 263 116h10l13 -12v-10q-54 -73 -129.5 -114.5
t-174.5 -41.5q-105 0 -191.5 49.5zM493 220.5q25 39.5 25 96.5q0 58 -25 97.5t-72 39.5t-72.5 -39.5t-25.5 -97.5q0 -57 25.5 -96.5t72.5 -39.5t72 39.5z" />
    <glyph glyph-name="A" unicode="A" horiz-adv-x="761" 
d="M28 8v38l8 8h22q27 0 40 30l222 520q5 12 5 22q0 20 -22 20h-10l-8 8v38l8 8h168l8 -8v-38l-8 -8h-10q-22 0 -22 -20q0 -8 6 -22l228 -520q8 -19 17 -24.5t23 -5.5h22l8 -8v-38l-8 -8h-248l-8 8v38l8 8h30q13 0 20 6t7 16q0 8 -5 18l-23 56h-318l-23 -56q-5 -12 -5 -18
q0 -10 7 -16t20 -6h32l8 -8v-38l-8 -8h-183zM482 204l-134 320l-136 -320h270z" />
    <glyph glyph-name="B" unicode="B" horiz-adv-x="654" 
d="M36 8v38l8 8h32q15 0 27.5 12.5t12.5 27.5v512q0 15 -12.5 27.5t-27.5 12.5h-31l-9 9v36l9 9h306q71 0 124 -22.5t81 -62.5t28 -93q0 -97 -115 -148q68 -16 108.5 -63t40.5 -113q0 -63 -33 -107.5t-89 -67.5t-123 -23h-329zM337 393q63 0 94.5 34t31.5 92q0 57 -33 92
t-100 35h-60q-15 0 -27 -12.5t-12 -27.5v-213h106zM352 54q71 0 108 42t37 103q0 63 -36.5 101.5t-108.5 38.5h-121v-245q0 -15 12.5 -27.5t27.5 -12.5h81z" />
    <glyph glyph-name="C" unicode="C" horiz-adv-x="693" 
d="M217.5 30q-83.5 44 -132.5 127t-49 193t49 193t132.5 127t184.5 44q66 0 121.5 -14.5t95.5 -38.5l9 -11l10 -146l-8 -8h-54l-8 8l-2 18q-14 133 -162 133q-74 0 -130 -40t-86.5 -109.5t-30.5 -155.5t30.5 -155.5t86.5 -109.5t130 -40q64 0 109.5 34.5t52.5 98.5l2 18l8 8
h54l8 -8l-10 -146l-9 -11q-40 -24 -95.5 -38.5t-121.5 -14.5q-101 0 -184.5 44z" />
    <glyph glyph-name="D" unicode="D" horiz-adv-x="703" 
d="M36 8v38l8 8h32q15 0 27.5 12.5t12.5 27.5v512q0 15 -12.5 27.5t-27.5 12.5h-32l-8 8v38l8 8h266q95 0 176.5 -39.5t131 -118.5t49.5 -192t-49.5 -192t-131 -118.5t-176.5 -39.5h-266zM309 54q66 0 119.5 34t85.5 100.5t32 161.5t-32 161.5t-85.5 100.5t-119.5 34h-38
q-15 0 -27.5 -12.5t-12.5 -27.5v-512q0 -15 12.5 -27.5t27.5 -12.5h38z" />
    <glyph glyph-name="E" unicode="E" horiz-adv-x="605" 
d="M36 8v38l8 8h32q15 0 27.5 12.5t12.5 27.5v512q0 15 -12.5 27.5t-27.5 12.5h-32l-8 8v38l8 8h485l9 -9v-31l-25 -109l-8 -8h-32l-8 8q-12 95 -91 95h-103q-15 0 -27.5 -12.5t-12.5 -27.5v-219h134q15 0 27.5 13t12.5 27v12l8 8h38l8 -8v-158l-8 -8h-38l-8 8v12
q0 15 -12.5 27.5t-27.5 12.5h-134v-239q0 -15 12.5 -27.5t27.5 -12.5h109q125 0 142 131l8 8h39l6 -8l-15 -177l-8 -8h-508z" />
    <glyph glyph-name="F" unicode="F" horiz-adv-x="580" 
d="M36 8v38l8 8h32q15 0 27.5 12.5t12.5 27.5v512q0 15 -12.5 27.5t-27.5 12.5h-32l-8 8v38l8 8h484l10 -10v-30l-23 -115l-8 -8h-31l-8 8q-12 101 -90 101h-107q-15 0 -27.5 -12.5t-12.5 -27.5v-242h132q15 0 27.5 11t12.5 26v13l8 8h38l8 -8v-153l-8 -8h-38l-8 8v13
q0 16 -12 26.5t-28 10.5h-132v-217q0 -15 12.5 -27.5t27.5 -12.5h32l8 -8v-38l-8 -8h-259z" />
    <glyph glyph-name="G" unicode="G" horiz-adv-x="795" 
d="M215.5 33q-83.5 47 -131.5 130t-48 187t50 187t136.5 130t191.5 47q133 0 218 -58l9 -11l9 -146l-8 -8h-48l-8 8l-2 18q-7 63 -50.5 99t-120.5 36q-80 0 -138 -41.5t-88 -110.5t-30 -150q0 -79 29.5 -148.5t86 -111.5t133.5 -42q72 0 119.5 34.5t47.5 90.5v108
q0 15 -12.5 27.5t-27.5 12.5h-120l-8 8v38l8 8h346l8 -8v-38l-8 -8h-31q-15 0 -27.5 -12.5t-12.5 -27.5v-168l-8 -17q-128 -110 -278 -110q-103 0 -186.5 47z" />
    <glyph glyph-name="H" unicode="H" horiz-adv-x="767" 
d="M36 8v38l8 8h32q15 0 27.5 12.5t12.5 27.5v512q0 15 -12.5 27.5t-27.5 12.5h-32l-8 8v38l8 8h259l8 -8v-38l-8 -8h-32q-15 0 -27.5 -12.5t-12.5 -27.5v-209h305v209q0 15 -12.5 27.5t-27.5 12.5h-32l-8 8v38l8 8h259l8 -8v-38l-8 -8h-32q-15 0 -27.5 -12.5t-12.5 -27.5
v-512q0 -15 12.5 -27.5t27.5 -12.5h32l8 -8v-38l-8 -8h-259l-8 8v38l8 8h32q15 0 27.5 12.5t12.5 27.5v249h-305v-249q0 -15 12.5 -27.5t27.5 -12.5h32l8 -8v-38l-8 -8h-259z" />
    <glyph glyph-name="I" unicode="I" horiz-adv-x="347" 
d="M36 8v38l8 8h32q15 0 27.5 12.5t12.5 27.5v512q0 15 -12.5 27.5t-27.5 12.5h-31l-9 9v36l9 9h257l9 -9v-36l-9 -9h-31q-15 0 -27.5 -12.5t-12.5 -27.5v-512q0 -15 12.5 -27.5t27.5 -12.5h32l8 -8v-38l-8 -8h-259z" />
    <glyph glyph-name="J" unicode="J" horiz-adv-x="413" 
d="M61 19q-38 33 -38 93l8 8h25l8 -8q2 -27 23 -46.5t50 -19.5q27 0 42 18.5t15 52.5v489q0 15 -12.5 27.5t-27.5 12.5h-32l-8 8v38l8 8h259l8 -8v-38l-8 -8h-32q-15 0 -27.5 -12.5t-12.5 -27.5v-467q0 -71 -40 -112t-114 -41q-56 0 -94 33z" />
    <glyph glyph-name="K" unicode="K" horiz-adv-x="694" 
d="M670 46v-38l-8 -8h-153l-13 8l-247 301l-18 -21v-194q0 -15 12.5 -27.5t27.5 -12.5h32l8 -8v-38l-8 -8h-259l-8 8v38l8 8h32q15 0 27.5 12.5t12.5 27.5v512q0 15 -12.5 27.5t-27.5 12.5h-31l-9 9v36l9 9h257l9 -9v-36l-9 -9h-31q-15 0 -27.5 -12.5t-12.5 -27.5v-236
l228 246q9 11 9 17q0 13 -17 13h-25l-8 8v38l8 8h175l8 -8v-38l-8 -8h-14q-15 0 -28 -8.5t-30 -27.5l-223 -240l48 -6l230 -281q10 -13 22.5 -21t23.5 -8h32z" />
    <glyph glyph-name="L" unicode="L" horiz-adv-x="648" 
d="M36 8v38l8 8h32q15 0 27.5 12.5t12.5 27.5v512q0 15 -12.5 27.5t-27.5 12.5h-32l-8 8v38l8 8h260l8 -8v-38l-8 -8h-33q-15 0 -27.5 -12.5t-12.5 -27.5v-512q0 -15 12.5 -27.5t27.5 -12.5h134q74 0 110 40t42 95l8 8h39l6 -8l-15 -181l-8 -8h-543z" />
    <glyph glyph-name="M" unicode="M" horiz-adv-x="964" 
d="M22 8v38l8 8h21q15 0 25.5 8t14.5 22l136 520q4 16 4 22q0 20 -22 20h-20l-8 8v38l8 8h168l8 -8v-38l-8 -8h-20q-11 0 -17 -5.5t-6 -14.5t5 -22l164 -410l163 410q5 13 5 22q0 20 -22 20h-20l-8 8v38l8 8h165l8 -8v-38l-8 -8h-20q-22 0 -22 -20q0 -6 4 -22l137 -520
q5 -19 15 -24.5t25 -5.5h20l8 -8v-38l-8 -8h-237l-8 8v38l8 8h27q29 0 29 19q0 5 -4 21l-95 370l-179 -454l-10 -10h-22l-11 10l-178 456l-97 -372q-3 -9 -3 -18q0 -10 7 -16t20 -6h29l8 -8v-38l-8 -8h-179z" />
    <glyph glyph-name="N" unicode="N" horiz-adv-x="792" 
d="M36 8v38l8 8h32q15 0 27.5 12.5t12.5 27.5v515q0 14 -12.5 25.5t-27.5 11.5h-32l-8 8v38l8 8h244l8 -8v-38l-8 -8h-10q-13 0 -20 -6t-7 -16t4.5 -17.5t15.5 -19.5l351 -408v427q0 15 -12.5 27.5t-27.5 12.5h-32l-8 8v38l8 8h198l8 -8v-38l-8 -8h-32q-15 0 -27.5 -12.5
t-12.5 -27.5v-598l-8 -8h-35l-17 10l-446 519v-435q0 -15 12.5 -27.5t27.5 -12.5h32l8 -8v-38l-8 -8h-198z" />
    <glyph glyph-name="O" unicode="O" horiz-adv-x="810" 
d="M219.5 31.5q-84.5 45.5 -134 128t-49.5 190.5t49.5 190.5t134 128t185.5 45.5t185.5 -45.5t134 -128t49.5 -190.5t-49.5 -190.5t-134 -128t-185.5 -45.5t-185.5 45.5zM537 86.5q56 41.5 86 111t30 152.5t-30 152.5t-86 111t-132 41.5t-132 -41.5t-86 -111t-30 -152.5
t30 -152.5t86 -111t132 -41.5t132 41.5z" />
    <glyph glyph-name="P" unicode="P" horiz-adv-x="583" 
d="M36 8v38l8 8h32q15 0 27.5 12.5t12.5 27.5v512q0 15 -12.5 27.5t-27.5 12.5h-32l-8 8v38l8 8h266q74 0 131 -26.5t88.5 -74.5t31.5 -112t-31.5 -112t-88.5 -74.5t-131 -26.5h-79v-180q0 -15 12.5 -27.5t27.5 -12.5h32l8 -8v-38l-8 -8h-259zM310 328q68 0 101 46t33 113
t-33 113t-100 46h-40q-15 0 -27.5 -12.5t-12.5 -27.5v-278h79z" />
    <glyph glyph-name="Q" unicode="Q" horiz-adv-x="810" 
d="M714 142q-60 -88 -161 -128l135 -175v-13l-20 -41l-20 -11h-52l-14 12l-108 206q-33 -6 -69 -6q-101 0 -185.5 45.5t-134 128t-49.5 190.5t49.5 190.5t134 128t185.5 45.5t185.5 -45.5t134 -128t49.5 -190.5q0 -120 -60 -208zM187 197.5q30 -69.5 86 -111t132 -41.5
t132 41.5t86 111t30 152.5t-30 152.5t-86 111t-132 41.5t-132 -41.5t-86 -111t-30 -152.5t30 -152.5z" />
    <glyph glyph-name="R" unicode="R" horiz-adv-x="646" 
d="M36 8v38l8 8h32q15 0 27.5 12.5t12.5 27.5v512q0 15 -12.5 27.5t-27.5 12.5h-31l-9 9v36l9 9h275q111 0 178 -52t67 -150q0 -81 -53 -132t-144 -66l58 -16l123 -207q14 -23 36 -23h32l8 -8v-38l-8 -8h-140l-13 8l-175 294h-58v-208q0 -15 12.5 -27.5t27.5 -12.5h32l8 -8
v-38l-8 -8h-259zM318 356q65 0 97.5 38t32.5 104q0 67 -32.5 107.5t-97.5 40.5h-47q-15 0 -27.5 -12.5t-12.5 -27.5v-250h87z" />
    <glyph glyph-name="S" unicode="S" horiz-adv-x="507" 
d="M136 2.5q-51 16.5 -86 41.5l-7 13l8 145l9 9h33l9 -9q8 -79 49.5 -120.5t99.5 -41.5q51 0 81.5 32.5t30.5 84.5q0 42 -16 70t-44 48t-78 45q-85 43 -128.5 89.5t-43.5 117.5q0 57 28.5 99.5t77 65t106.5 22.5q51 0 94 -13.5t68 -34.5l6 -10l5 -127l-9 -9h-35l-9 9
q-6 67 -38 99t-81 32t-78.5 -28t-29.5 -73t32.5 -76t111.5 -71q78 -40 123 -88.5t45 -131.5q0 -56 -26.5 -103t-77.5 -75t-120 -28q-59 0 -110 16.5z" />
    <glyph glyph-name="T" unicode="T" horiz-adv-x="670" 
d="M197 8v38l8 8h32q15 0 27.5 12.5t12.5 27.5v552h-50q-125 0 -142 -131l-8 -8h-38l-7 8l15 177l8 8h560l8 -8l15 -177l-6 -8h-39l-8 8q-17 131 -142 131h-50v-552q0 -15 12.5 -27.5t27.5 -12.5h32l8 -8v-38l-8 -8h-260z" />
    <glyph glyph-name="U" unicode="U" horiz-adv-x="745" 
d="M175 58q-72 72 -72 194v354q0 15 -12.5 27.5t-27.5 12.5h-32l-8 8v38l8 8h258l8 -8v-38l-8 -8h-31q-15 0 -27.5 -12.5t-12.5 -27.5v-356q0 -86 49 -135.5t136 -49.5q82 0 131.5 49.5t49.5 135.5v356q0 15 -12.5 27.5t-27.5 12.5h-32l-8 8v38l8 8h202l8 -8v-38l-8 -8h-32
q-14 0 -27 -12.5t-13 -27.5v-349q0 -78 -31 -139.5t-90.5 -96.5t-141.5 -35q-132 0 -204 72z" />
    <glyph glyph-name="V" unicode="V" horiz-adv-x="759" 
d="M349 8l-268 617q-10 21 -29 21h-26l-8 8v38l8 8h234l8 -8v-38l-8 -8h-24q-12 0 -18 -5.5t-6 -14.5t5 -22l195 -452l196 452q5 13 5 22q0 20 -24 20h-23l-8 8v38l8 8h167l8 -8v-38l-8 -8h-25q-22 0 -32 -24l-267 -614l-8 -8h-44z" />
    <glyph glyph-name="W" unicode="W" horiz-adv-x="1044" 
d="M291 8l-201 612q-9 26 -37 26h-27l-8 8v38l8 8h245l8 -8v-38l-8 -8h-32q-25 0 -25 -21q0 -6 4 -20l139 -419l147 417q4 11 4 19q0 11 -7 17.5t-18 6.5h-26l-8 8v38l8 8h195l8 -8v-38l-8 -8h-27q-12 0 -19 -7t-7 -17q0 -9 4 -17l151 -422l136 422q4 16 4 20q0 21 -24 21
h-33l-8 8v38l8 8h181l8 -8v-38l-8 -8h-26q-30 0 -39 -29l-201 -609l-8 -8h-42l-8 8l-172 487l-172 -487l-8 -8h-43z" />
    <glyph glyph-name="X" unicode="X" horiz-adv-x="697" 
d="M18 8v38l8 8h28q39 0 66 40l176 258l-160 260q-11 19 -22.5 26.5t-33.5 7.5h-25l-8 8v38l8 8h251l8 -8v-38l-8 -8h-20q-13 0 -20.5 -6.5t-7.5 -16.5q0 -9 5 -17l101 -162l108 162q7 10 7 20q0 9 -6.5 14.5t-19.5 5.5h-20l-8 8v38l8 8h195l8 -8v-38l-8 -8h-22
q-21 0 -34 -8.5t-24 -24.5l-150 -223l184 -296q14 -23 27.5 -31.5t33.5 -8.5h28l8 -8v-38l-8 -8h-268l-8 8v38l8 8h29q12 0 20 6t8 16q0 8 -6 18l-125 204l-131 -194q-8 -12 -8 -23q0 -12 8.5 -19.5t19.5 -7.5h29l8 -8v-38l-8 -8h-221z" />
    <glyph glyph-name="Y" unicode="Y" horiz-adv-x="661" 
d="M196 8v38l8 8h32q15 0 27.5 12.5t12.5 27.5v213l-178 309q-9 16 -19 23t-26 7h-27l-8 8v38l8 8h260l8 -8v-38l-8 -8h-34q-26 0 -26 -20q0 -13 7 -23l134 -231l130 234q6 12 6 20q0 9 -7 14.5t-19 5.5h-34l-8 8v38l8 8h192l8 -8v-38l-8 -8h-25q-18 0 -27.5 -7t-18.5 -23
l-173 -310v-212q0 -15 12.5 -27.5t27.5 -12.5h32l8 -8v-38l-8 -8h-259z" />
    <glyph glyph-name="Z" unicode="Z" horiz-adv-x="610" 
d="M29 12l401 590h-217q-49 0 -71 -28t-28 -80l-8 -8h-33l-8 8v196l10 10h478l8 -12l-400 -590h213q125 0 143 148l8 8h37l8 -8l-15 -238l-8 -8h-510z" />
    <glyph glyph-name="bracketleft" unicode="[" horiz-adv-x="272" 
d="M50 -216v906l10 10h167l10 -10v-34l-10 -10h-32q-16 0 -28 -11.5t-12 -28.5v-738q0 -17 12 -28.5t28 -11.5h32l10 -10v-34l-10 -10h-167z" />
    <glyph glyph-name="backslash" unicode="\" horiz-adv-x="509" 
d="M405 8l-390 684l8 8h69l12 -8l390 -684l-8 -8h-69z" />
    <glyph glyph-name="bracketright" unicode="]" horiz-adv-x="272" 
d="M35 -216v34l10 10h32q17 0 28.5 11.5t11.5 28.5v738q0 17 -11.5 28.5t-28.5 11.5h-32l-10 10v34l10 10h167l10 -10v-906l-10 -10h-167z" />
    <glyph glyph-name="asciicircum" unicode="^" horiz-adv-x="516" 
d="M35 413l182 279l10 8h62l10 -8l182 -279v-20h-67l-15 12l-136 211h-10l-136 -211l-15 -12h-67v20z" />
    <glyph glyph-name="underscore" unicode="_" horiz-adv-x="522" 
d="M22 -137v55l8 8h462l8 -8v-55l-8 -8h-462z" />
    <glyph glyph-name="grave" unicode="`" horiz-adv-x="272" 
d="M155 570l-125 120l4 10h114l13 -7l81 -121l-5 -9h-66z" />
    <glyph glyph-name="a" unicode="a" horiz-adv-x="635" 
d="M152.5 15.5q-53.5 29.5 -85.5 88t-32 141.5q0 80 34 140t90.5 91.5t120.5 31.5q108 0 171 -83h5l45 69h35l8 -8v-367q0 -17 11.5 -28.5t27.5 -11.5h12l8 -8v-27l-8 -8l-114 -46h-32l-8 8v79q-62 -91 -171 -91q-64 0 -117.5 29.5zM398 100.5q37 58.5 37 146.5t-37 146.5
t-108 58.5q-72 0 -109 -58t-37 -147q0 -88 37 -146.5t109 -58.5q71 0 108 58.5z" />
    <glyph glyph-name="b" unicode="b" horiz-adv-x="633" 
d="M200 58v-50l-8 -8h-152l-8 8v38l8 8h15q15 0 26 11t11 26v503q0 16 -11 26t-26 10h-14l-9 9v23l8 9l130 49h28l7 -7l-8 -76v-208q28 38 71 58.5t94 20.5q62 0 116 -30t87 -89t33 -142t-34 -142t-88 -89t-115 -30q-98 0 -161 72zM450.5 100.5q37.5 58.5 37.5 146.5
t-37.5 146.5t-108.5 58.5t-108 -58.5t-37 -146.5t37 -146.5t108 -58.5t108.5 58.5z" />
    <glyph glyph-name="c" unicode="c" horiz-adv-x="527" 
d="M159 17q-56 31 -90 88.5t-34 134.5q0 82 37.5 143t100 93t133.5 32q88 0 150 -35l7 -10l5 -121l-8 -8h-37l-8 8v14q0 41 -29.5 68.5t-83.5 27.5q-76 0 -117 -56t-41 -139q0 -57 21.5 -101.5t59.5 -69.5t86 -25q52 0 91 26t64 74l9 4l13 -5l5 -9q-22 -72 -74 -118.5
t-140 -46.5q-64 0 -120 31z" />
    <glyph glyph-name="d" unicode="d" horiz-adv-x="627" 
d="M154 14q-53 28 -86 87t-33 146q0 79 34 138.5t90 91t120 31.5q96 0 156 -66v152q0 16 -11 26t-26 10h-13l-10 9v23l8 9l131 49h27l7 -7l-7 -76v-546q0 -15 10.5 -26t25.5 -11h16l8 -8v-38l-8 -8h-153l-8 8v55q-60 -77 -165 -77q-60 0 -113 28zM398 100.5
q37 58.5 37 146.5t-37 146.5t-108 58.5t-108 -58.5t-37 -146.5t37 -146.5t108 -58.5t108 58.5z" />
    <glyph glyph-name="e" unicode="e" horiz-adv-x="566" 
d="M156.5 21.5q-58.5 35.5 -90 95t-31.5 130.5q0 72 33 131.5t91 94.5t131 35q77 0 131.5 -35.5t81.5 -95t27 -130.5l-8 -8h-385q0 -47 22.5 -87t63.5 -63t92 -23q122 0 188 109l9 4l13 -5l4 -9q-23 -80 -86 -129.5t-149 -49.5q-79 0 -137.5 35.5zM386 295q34 0 34 32
q0 53 -35.5 89.5t-94.5 36.5q-44 0 -78 -21.5t-53 -56t-22 -72.5l8 -8h241z" />
    <glyph glyph-name="f" unicode="f" horiz-adv-x="322" 
d="M35 8v38l8 8h15q15 0 26 11t11 26v309q0 16 -12 28t-28 12h-15l-8 8v38l8 8h55v47q0 59 21 98t54.5 57t71.5 18q36 0 59 -19.5t23 -51.5q0 -28 -18.5 -46.5t-46.5 -18.5q-29 0 -48 20.5t-16 54.5q-45 -19 -45 -98l7 -14l35 -16l8 -13v-18h76l8 -8v-38l-8 -8h-76v-349
q0 -15 11 -26t26 -11h15l8 -8v-38l-8 -8h-209z" />
    <glyph glyph-name="g" unicode="g" horiz-adv-x="542" 
d="M519 485v-44l-9 -9h-81q40 -50 40 -111q0 -51 -28 -94t-77 -68t-110 -25q-22 0 -38 3t-36 11l-43 -59h198q84 0 129 -37.5t45 -103.5q0 -57 -37 -99.5t-97.5 -65.5t-130.5 -23q-99 0 -152.5 38.5t-53.5 98.5q0 31 18 60.5t50 49.5h-67l-8 7v41l94 120q-37 25 -59 62.5
t-22 83.5q0 51 28 94t76.5 68t108.5 25q44 0 84 -14h169zM334.5 224q31.5 35 31.5 97t-31.5 97t-77.5 35q-47 0 -79 -34.5t-32 -97.5t32 -97.5t79 -34.5q46 0 77.5 35zM143 -31q-16 -25 -16 -55q0 -47 36 -73t97 -26q66 0 106 32t40 80q0 35 -23.5 57.5t-75.5 22.5h-122
q-26 -13 -42 -38z" />
    <glyph glyph-name="h" unicode="h" horiz-adv-x="629" 
d="M32 8v38l8 8h15q15 0 26 11t11 26v503q0 16 -11 26t-26 10h-14l-9 9v23l7 9l131 49h28l7 -7l-8 -76v-216q29 41 72 64t95 23q80 0 127.5 -44t47.5 -124v-249q0 -15 11 -26t26 -11h15l8 -8v-38l-8 -8h-209l-8 8v38l8 8h15q15 0 26 11t11 26v242q0 51 -26.5 81t-77.5 30
q-40 0 -70 -21t-46.5 -56.5t-16.5 -76.5v-199q0 -15 11 -26t26 -11h15l8 -8v-38l-8 -8h-209z" />
    <glyph glyph-name="i" unicode="i" horiz-adv-x="297" 
d="M100.5 596.5q-20.5 20.5 -20.5 48.5q0 29 20.5 49t48.5 20q29 0 49 -20t20 -49q0 -28 -20 -48.5t-49 -20.5q-28 0 -48.5 20.5zM36 8v38l8 8h15q15 0 26 11t11 26v277q0 16 -11 26t-26 10h-14l-9 9v23l7 9l131 49h27l8 -8l-8 -75v-320q0 -15 11 -26t26 -11h15l8 -8v-38
l-8 -8h-209z" />
    <glyph glyph-name="j" unicode="j" horiz-adv-x="236" 
d="M82.5 596.5q-20.5 20.5 -20.5 48.5q0 29 20.5 49t48.5 20q29 0 49 -20t20 -49q0 -28 -20 -48.5t-49 -20.5q-28 0 -48.5 20.5zM-15 -221q-22 19 -22 50q0 26 18 44.5t46 18.5q30 0 47.5 -20t16.5 -53q41 22 41 92l-7 10l-40 17l-7 9v421q0 16 -11 26t-26 10h-14l-9 9v23
l7 9l131 49h28l7 -7l-8 -76v-488q0 -85 -40.5 -124t-98.5 -39q-37 0 -59 19z" />
    <glyph glyph-name="k" unicode="k" horiz-adv-x="570" 
d="M32 8v38l8 8h15q15 0 26 11t11 26v503q0 16 -11 26t-26 10h-14l-9 9v23l7 9l131 49h28l7 -7l-8 -76v-389l170 162q9 9 9 17q0 13 -17 13h-21l-8 8v38l8 8h171l8 -8v-38l-8 -8h-18q-14 0 -22.5 -5.5t-28.5 -24.5l-121 -117l154 -216q9 -13 17.5 -18t22.5 -5h25l8 -8v-38
l-8 -8h-131l-13 8l-149 213l-48 -47v-83q0 -15 11 -26t26 -11h15l8 -8v-38l-8 -8h-209z" />
    <glyph glyph-name="l" unicode="l" horiz-adv-x="283" 
d="M32 8v38l8 8h15q15 0 26 11t11 26v503q0 16 -11 26t-26 10h-14l-9 9v23l7 9l131 49h28l7 -7l-8 -76v-546q0 -15 11 -26t26 -11h15l8 -8v-38l-8 -8h-209z" />
    <glyph glyph-name="m" unicode="m" horiz-adv-x="890" 
d="M36 8v38l8 8h15q15 0 26 11t11 26v277q0 16 -11 26t-26 10h-14l-9 9v23l7 9l123 49h28l7 -7l-11 -69q25 44 67 67t90 23q46 0 83.5 -20.5t55.5 -64.5q26 43 67 64t91 21q67 0 111 -40t44 -119v-258q0 -15 11 -26t26 -11h15l8 -8v-38l-8 -8h-209l-8 8v38l8 8h16
q15 0 25.5 11t10.5 26v252q0 101 -83 101q-47 0 -78 -35.5t-31 -91.5v-226q0 -15 10.5 -26t25.5 -11h16l8 -8v-38l-8 -8h-209l-8 8v38l8 8h15q15 0 26 11t11 26v247q0 48 -20.5 77t-64.5 29q-48 0 -79.5 -35.5t-31.5 -91.5v-226q0 -15 11 -26t26 -11h15l8 -8v-38l-8 -8h-209
z" />
    <glyph glyph-name="n" unicode="n" horiz-adv-x="633" 
d="M36 8v38l8 8h15q15 0 26 11t11 26v277q0 16 -11 26t-26 10h-15l-8 8v25l6 8l127 49h28l7 -7l-9 -73q29 44 73.5 69t101.5 25q79 0 126 -43.5t47 -124.5v-249q0 -15 11 -26t26 -11h15l8 -8v-38l-8 -8h-209l-8 8v38l8 8h15q15 0 26 11t11 26v242q0 51 -26.5 80.5
t-75.5 29.5q-41 0 -71.5 -21t-47 -56.5t-16.5 -76.5v-198q0 -15 11 -26t26 -11h15l8 -8v-38l-8 -8h-209z" />
    <glyph glyph-name="o" unicode="o" horiz-adv-x="600" 
d="M165.5 19q-60.5 33 -95.5 92.5t-35 135.5t35 135.5t95.5 92.5t134.5 33t134.5 -33t95.5 -92.5t35 -135.5t-35 -135.5t-95.5 -92.5t-134.5 -33t-134.5 33zM413.5 99q40.5 56 40.5 148t-40.5 148t-113.5 56t-113.5 -56t-40.5 -148t40.5 -148t113.5 -56t113.5 56z" />
    <glyph glyph-name="p" unicode="p" horiz-adv-x="625" 
d="M24 -218v38l8 8h15q15 0 26 11t11 26v503q0 16 -11 26t-26 10h-14l-9 9v23l8 9l131 49h28l7 -7l-10 -69q26 44 71.5 67t95.5 23q62 0 115.5 -30t86.5 -89t33 -142t-33.5 -142t-88 -89t-114.5 -30q-57 0 -98.5 21.5t-66.5 56.5v-199q0 -15 11 -26t26 -11h15l8 -8v-38
l-8 -8h-209zM442.5 100.5q37.5 58.5 37.5 146.5t-37.5 146.5t-108.5 58.5t-108 -58.5t-37 -146.5t37 -146.5t108 -58.5t108.5 58.5z" />
    <glyph glyph-name="q" unicode="q" horiz-adv-x="616" 
d="M431 -233l7 81v229q-29 -46 -72.5 -68.5t-97.5 -22.5q-60 0 -113.5 28t-86.5 87t-33 146q0 79 34 138.5t90 91t120 31.5q109 0 172 -83h5l45 69h34l8 -8v-602q0 -16 11 -25t27 -9h13l9 -9v-24l-8 -9l-125 -48h-32zM398 100.5q37 58.5 37 146.5t-37 146.5t-108 58.5
t-108 -58.5t-37 -146.5t37 -146.5t108 -58.5t108 58.5z" />
    <glyph glyph-name="r" unicode="r" horiz-adv-x="419" 
d="M36 8v38l8 8h15q15 0 26 11t11 26v278q0 15 -11 25.5t-26 10.5h-14l-9 10v24l7 9l126 46h28l8 -8l-15 -89q21 50 59.5 80.5t83.5 30.5q34 0 54 -19t20 -49q0 -27 -18.5 -46t-46.5 -19q-27 0 -45.5 17.5t-19.5 44.5q-32 -14 -54 -53.5t-22 -95.5v-197q0 -15 11 -26t26 -11
h15l8 -8v-38l-8 -8h-209z" />
    <glyph glyph-name="s" unicode="s" horiz-adv-x="432" 
d="M121.5 -1q-43.5 13 -74.5 33l-5 10l27 107l9 9h26l9 -9q-3 -56 26.5 -86t74.5 -30q38 0 59 21.5t21 55.5q0 41 -24 63t-75 42q-70 27 -105 61.5t-35 83.5q0 67 48 107.5t125 40.5q65 0 124 -31l7 -10l5 -111l-9 -9h-30l-9 9q-3 48 -26 76t-64 28q-33 0 -54.5 -19
t-21.5 -50t26 -54t90 -49q61 -25 95 -57.5t34 -87.5q0 -73 -51.5 -115t-127.5 -42q-51 0 -94.5 13z" />
    <glyph glyph-name="t" unicode="t" horiz-adv-x="383" 
d="M126 22q-37 36 -37 101v315h-73l-8 8v17l161 160h17l8 -8v-121h130l8 -8v-40l-8 -8h-130v-317q0 -30 17.5 -48.5t44.5 -18.5q24 0 42 10.5t34 33.5l8 3l18 -8l3 -8q-12 -38 -45 -68.5t-92 -30.5q-61 0 -98 36z" />
    <glyph glyph-name="u" unicode="u" horiz-adv-x="619" 
d="M134.5 29.5q-48.5 43.5 -48.5 124.5v225q0 16 -11 26t-26 10h-14l-9 10v22l7 9l131 44h28l8 -8l-9 -79v-252q0 -52 27 -80t79 -28q37 0 67 19.5t47 52t17 71.5v183q0 16 -11 26t-27 10h-13l-9 10v22l7 9l131 44h28l8 -8l-9 -79v-294q0 -17 12 -28.5t28 -11.5h12l8 -8v-27
l-8 -8l-117 -46h-32l-8 8v75q-28 -41 -71.5 -64t-97.5 -23q-76 0 -124.5 43.5z" />
    <glyph glyph-name="v" unicode="v" horiz-adv-x="589" 
d="M273 9l-195 411q-6 10 -12 15t-16 5h-19l-8 8v38l8 8h205l8 -8v-38l-8 -8h-18q-23 0 -23 -20q0 -10 6 -22l119 -253l119 253q6 12 6 22q0 9 -6 14.5t-17 5.5h-20l-8 8v38l8 8h156l8 -8v-38l-8 -8h-20q-20 0 -30 -20l-196 -411l-9 -9h-20z" />
    <glyph glyph-name="w" unicode="w" horiz-adv-x="837" 
d="M251 10l-169 400q-8 18 -17 24t-23 6h-20l-8 8v38l8 8h233l8 -8v-38l-8 -8h-32q-13 0 -20 -6t-7 -17q0 -9 5 -20l98 -236l97 242q2 4 2 12q0 11 -7.5 18t-19.5 7h-18l-6 8v38l6 8h174l8 -8v-38l-8 -8h-20q-12 0 -20 -7t-8 -18q0 -6 3 -12l97 -246l107 243q4 12 4 17
q0 11 -6.5 17t-19.5 6h-32l-8 8v38l8 8h183l8 -8v-38l-8 -8h-26q-29 0 -41 -30l-176 -400l-10 -10h-20l-10 10l-118 295l-122 -295l-11 -10h-21z" />
    <glyph glyph-name="x" unicode="x" horiz-adv-x="555" 
d="M18 8v38l8 8h26q28 0 49 23l133 160l-134 175q-11 14 -19 21t-20 7h-18l-8 8v38l8 8h211l8 -8v-38l-8 -8h-9q-11 0 -17.5 -6.5t-6.5 -16.5q0 -8 7 -19l67 -88l73 88q8 11 8 20t-6.5 15.5t-18.5 6.5h-12l-8 8v38l8 8h168l8 -8v-38l-8 -8h-17q-17 0 -28 -6t-24 -22
l-116 -142l149 -194q8 -11 16.5 -16.5t19.5 -5.5h21l8 -8v-38l-8 -8h-222l-8 8v38l8 8h18q12 0 18 6.5t6 15.5q0 12 -7 20l-77 102l-81 -98q-12 -15 -12 -26q0 -19 25 -19h18l8 -8v-39l-8 -8h-188z" />
    <glyph glyph-name="y" unicode="y" horiz-adv-x="581" 
d="M139 -217l-15 31v12l137 204l-188 390q-11 20 -30 20h-21l-8 8v38l8 8h214l8 -8v-38l-8 -8h-18q-23 0 -23 -20q0 -10 6 -22l120 -251l118 251q7 14 7 23t-6.5 14t-17.5 5h-20l-8 8v38l8 8h157l8 -8v-38l-8 -8h-17q-25 0 -36 -26l-297 -628l-12 -12h-38z" />
    <glyph glyph-name="z" unicode="z" horiz-adv-x="490" 
d="M29 10l290 398h-121q-40 0 -62.5 -25.5t-27.5 -68.5l-8 -8h-31l-8 8v172l8 8h368l8 -8l-290 -400h133q56 0 81 29.5t32 81.5l8 8h36l6 -8l-12 -189l-8 -8h-394z" />
    <glyph glyph-name="braceleft" unicode="{" horiz-adv-x="335" 
d="M143.5 -193.5q-30.5 32.5 -30.5 90.5v245q0 59 -52 59h-16l-10 10v52l10 10h16q52 0 52 59v245q0 58 30.5 90.5t88.5 32.5h58l10 -10v-34l-10 -10h-29q-43 0 -43 -50v-253q0 -44 -17.5 -70.5t-56.5 -32.5v-6q74 -11 74 -105v-251q0 -50 43 -50h29l10 -10v-34l-10 -10h-58
q-58 0 -88.5 32.5z" />
    <glyph glyph-name="bar" unicode="|" horiz-adv-x="184" 
d="M60 -216v906l10 10h42l10 -10v-906l-10 -10h-42z" />
    <glyph glyph-name="braceright" unicode="}" horiz-adv-x="335" 
d="M35 -216v34l10 10h29q43 0 43 50v251q0 94 74 105v6q-39 6 -56.5 32.5t-17.5 70.5v253q0 50 -43 50h-29l-10 10v34l10 10h58q58 0 88.5 -32.5t30.5 -90.5v-245q0 -59 52 -59h16l10 -10v-52l-10 -10h-16q-52 0 -52 -59v-245q0 -58 -30.5 -90.5t-88.5 -32.5h-58z" />
    <glyph glyph-name="asciitilde" unicode="~" horiz-adv-x="477" 
d="M272.5 271.5q-23.5 9.5 -55.5 27.5q-30 16 -46.5 23t-34.5 7q-24 0 -37 -13.5t-22 -33.5l-9 -9h-18l-6 9q2 58 33 91.5t77 33.5q27 0 50.5 -9.5t55.5 -27.5q30 -16 46.5 -23t34.5 -7q24 0 37 13.5t22 33.5l9 9h18l6 -9q-3 -58 -33.5 -91.5t-76.5 -33.5q-27 0 -50.5 9.5z
" />
    <glyph glyph-name="uni00A0" unicode="&#xa0;" horiz-adv-x="220" 
 />
    <glyph glyph-name="exclamdown" unicode="&#xa1;" horiz-adv-x="215" 
d="M154.5 489q19.5 -19 19.5 -47t-19.5 -47.5t-47.5 -19.5t-47 19.5t-19 47.5t19 47t47 19t47.5 -19zM127 274l10 -10l32 -460l-10 -10h-102l-10 10l32 460l10 10h38z" />
    <glyph glyph-name="cent" unicode="&#xa2;" horiz-adv-x="527" 
d="M493 151q-22 -72 -74 -118.5t-140 -46.5q-10 0 -30 2l-32 -119l-9 -5l-35 9l-6 9l32 117q-72 24 -118 87.5t-46 153.5q0 82 37.5 143t100 93t133.5 32q20 0 29 -1l32 118l9 5l35 -9l6 -9l-30 -113q37 -9 69 -26l7 -10l5 -121l-8 -8h-37l-8 8v14q0 25 -11.5 46.5
t-33.5 33.5l-100 -370q22 -5 41 -5q52 0 91 26t64 74l9 4l13 -5zM164.5 156.5q20.5 -44.5 57.5 -69.5l98 364q-6 1 -18 1q-76 0 -117 -56t-41 -139q0 -56 20.5 -100.5z" />
    <glyph glyph-name="sterling" unicode="&#xa3;" horiz-adv-x="625" 
d="M40 8v38l8 8h12q16 0 27.5 10.5t12.5 29.5l21 255h-74l-10 10v34l10 10h79l9 107q5 60 35 106.5t79.5 72t112.5 25.5q92 0 143 -51t59 -130l-8 -8h-19l-8 8q-16 48 -53.5 76.5t-89.5 28.5q-58 0 -95.5 -37t-43.5 -104l-8 -94h142l10 -10v-34l-10 -10h-146l-21 -255
q-1 -19 12 -29.5t30 -10.5h125q125 0 142 131l8 8h39l6 -8l-15 -177l-8 -8h-505z" />
    <glyph glyph-name="currency" unicode="&#xa4;" horiz-adv-x="546" 
d="M48 157v11l55 56q-42 56 -42 128q0 71 42 126l-55 55v12l31 31h12l55 -55q55 42 127 42t127 -42l56 55h11l31 -31v-11l-55 -56q42 -55 42 -126q0 -72 -42 -128l55 -55v-12l-31 -31h-12l-55 55q-55 -42 -127 -42q-71 0 -127 42l-56 -55h-11zM352.5 219.5
q34.5 20.5 53.5 55.5t19 77q0 41 -19.5 76t-54 55t-78.5 20t-78.5 -20t-54 -55t-19.5 -76q1 -65 43 -109t109 -44q45 0 79.5 20.5z" />
    <glyph glyph-name="yen" unicode="&#xa5;" horiz-adv-x="656" 
d="M194 8v38l8 8h32q15 0 27.5 12.5t12.5 27.5v106h-113l-8 8v35l8 8h113v61h-128l-8 8v36l8 8h98l-145 247q-11 20 -21.5 27.5t-26.5 7.5h-27l-8 8v38l8 8h258l8 -8v-38l-8 -8h-27q-30 0 -30 -23q0 -13 8 -26l127 -221l127 224q7 13 7 23q0 23 -32 23h-26l-8 8v38l8 8h196
l8 -8v-38l-8 -8h-25q-17 0 -28 -8t-21 -27l-140 -247h100l8 -8v-36l-8 -8h-129v-61h114l8 -8v-35l-8 -8h-114v-106q0 -15 12.5 -27.5t27.5 -12.5h32l8 -8v-38l-8 -8h-259z" />
    <glyph glyph-name="brokenbar" unicode="&#xa6;" horiz-adv-x="182" 
d="M60 310v380l10 10h42l10 -10v-380l-10 -10h-42zM60 -216v380l10 10h42l10 -10v-380l-10 -10h-42z" />
    <glyph glyph-name="section" unicode="&#xa7;" horiz-adv-x="507" 
d="M455 -59q0 -55 -27 -96t-74 -63t-107 -22q-53 0 -96 13.5t-69 34.5l-6 10l-5 127l9 9h30l9 -9q6 -67 39.5 -99t86.5 -32q49 0 79.5 26.5t30.5 72.5q0 44 -35 76.5t-119 75.5q-76 38 -120.5 83t-44.5 108q0 91 86 143q-64 59 -64 134q0 55 27 96t74 63t107 22
q53 0 96 -13.5t69 -34.5l6 -10l5 -127l-9 -9h-30l-9 9q-6 67 -39.5 99t-86.5 32q-49 0 -79.5 -26.5t-30.5 -72.5q0 -44 35.5 -77t118.5 -75q74 -37 119.5 -83.5t45.5 -116.5q0 -93 -79 -140q57 -55 57 -128zM352 105q17 12 25.5 28.5t8.5 41.5q0 32 -17 56t-47 43.5
t-92 53.5q-27 14 -60 35q-43 -29 -43 -74q0 -39 35.5 -68.5t120.5 -74.5q34 -18 69 -41z" />
    <glyph glyph-name="dieresis" unicode="&#xa8;" horiz-adv-x="370" 
d="M48.5 583.5q-18.5 18.5 -18.5 43.5q0 26 18.5 45t43.5 19q26 0 44.5 -19t18.5 -45q0 -25 -18.5 -43.5t-44.5 -18.5q-25 0 -43.5 18.5zM233 583.5q-18 18.5 -18 43.5q0 26 18 45t43 19q26 0 45 -19t19 -45q0 -25 -19 -43.5t-45 -18.5q-25 0 -43 18.5z" />
    <glyph glyph-name="copyright" unicode="&#xa9;" horiz-adv-x="804" 
d="M211 34.5q-85 48.5 -133 132t-48 183.5t48 183.5t133 132t191 48.5t191 -48.5t133 -132t48 -183.5t-48 -183.5t-133 -132t-191 -48.5t-191 48.5zM560.5 76.5q70.5 40.5 110.5 112t40 161.5t-40 161.5t-110.5 112t-158.5 40.5t-158.5 -40.5t-110.5 -112t-40 -161.5
t40 -161.5t110.5 -112t158.5 -40.5t158.5 40.5zM313 193q-46 24 -72 67t-26 97t26 97t72 67.5t102 24.5q33 0 63.5 -7.5t53.5 -17.5l4 -6l6 -78l-5 -4h-33l-4 4l-1 11q-3 30 -25.5 46t-55.5 16q-55 0 -89.5 -42.5t-34.5 -110.5q0 -67 34.5 -109.5t89.5 -42.5q33 0 56.5 16.5
t24.5 47.5l1 9l4 4h33l5 -4l-6 -78l-4 -6q-23 -10 -53.5 -17.5t-63.5 -7.5q-56 0 -102 24z" />
    <glyph glyph-name="ordfeminine" unicode="&#xaa;" horiz-adv-x="470" 
d="M123 370q-39 23 -62.5 64.5t-23.5 96.5q0 51 23 92.5t64.5 66t93.5 24.5q45 0 76 -15t50 -37h4l31 42h23l7 -7l-7 -70v-176q0 -13 7.5 -20t20.5 -7h6l7 -7v-15l-7 -8l-86 -37h-20l-7 7v30q-21 -23 -48 -35t-68 -12q-45 0 -84 23zM300.5 431q25.5 42 25.5 100t-25.5 99.5
t-78.5 41.5t-78.5 -41.5t-25.5 -99.5t25.5 -100t78.5 -42t78.5 42z" />
    <glyph glyph-name="guillemotleft" unicode="&#xab;" horiz-adv-x="527" 
d="M39 277l-7 10v50l7 10l220 188h13l8 -8v-42l-144 -169v-8l144 -168v-43l-8 -8h-13zM246 277l-7 10v50l7 10l220 188h13l8 -8v-42l-144 -169v-8l144 -168v-43l-8 -8h-13z" />
    <glyph glyph-name="logicalnot" unicode="&#xac;" horiz-adv-x="429" 
d="M341 172v138l-8 8h-295l-8 8v55l8 8h353l8 -8v-209l-8 -8h-43z" />
    <glyph glyph-name="uni00AD" unicode="&#xad;" horiz-adv-x="398" 
d="M40 290v54l8 8h302l8 -8v-54l-8 -8h-302z" />
    <glyph glyph-name="registered" unicode="&#xae;" horiz-adv-x="804" 
d="M211 34.5q-85 48.5 -133 132t-48 183.5t48 183.5t133 132t191 48.5t191 -48.5t133 -132t48 -183.5t-48 -183.5t-133 -132t-191 -48.5t-191 48.5zM560.5 76.5q70.5 40.5 110.5 112t40 161.5t-40 161.5t-110.5 112t-158.5 40.5t-158.5 -40.5t-110.5 -112t-40 -161.5
t40 -161.5t110.5 -112t158.5 -40.5t158.5 40.5zM248 176v25l5 4h17q8 0 14.5 6.5t6.5 14.5v264q0 8 -6.5 14.5t-14.5 6.5h-17l-5 4v25l5 4h148q63 0 100 -28t37 -80q0 -40 -28.5 -69.5t-72.5 -35.5l34 -10l66 -104q8 -12 19 -12h17l4 -4v-25l-4 -4h-87l-6 4l-92 153h-22
v-103q0 -8 6.5 -14.5t14.5 -6.5h17l5 -4v-25l-5 -4h-151zM391 362q35 0 54 19t19 55q0 34 -18 54.5t-48 20.5h-11q-8 0 -14.5 -6.5t-6.5 -14.5v-128h25z" />
    <glyph glyph-name="macron" unicode="&#xaf;" horiz-adv-x="310" 
d="M30 591v48l8 8h234l8 -8v-48l-8 -8h-234z" />
    <glyph glyph-name="degree" unicode="&#xb0;" horiz-adv-x="308" 
d="M65.5 505.5q-35.5 35.5 -35.5 86.5t35.5 86.5t88.5 35.5t88.5 -35.5t35.5 -86.5t-35.5 -86.5t-88.5 -35.5t-88.5 35.5zM206.5 539q19.5 21 19.5 53t-19.5 53t-52.5 21t-52.5 -21t-19.5 -53t19.5 -53t52.5 -21t52.5 21z" />
    <glyph glyph-name="plusminus" unicode="&#xb1;" horiz-adv-x="528" 
d="M229 166v167h-161l-8 8v52l8 8h161v167l8 8h54l8 -8v-167h161l8 -8v-52l-8 -8h-161v-167l-8 -8h-54zM60 35v52l8 8h392l8 -8v-52l-8 -8h-392z" />
    <glyph glyph-name="uni00B2" unicode="&#xb2;" horiz-adv-x="310" 
d="M30 512l60 68q6 7 39 44t50 70t17 61q0 30 -16.5 47t-44.5 17q-34 0 -54.5 -22t-25.5 -53l-5 -5h-15l-5 5q0 28 13.5 55.5t41.5 45.5t70 18q49 0 80 -29t31 -76q0 -30 -15.5 -57t-45.5 -55.5t-89 -77.5h71q31 0 44.5 12.5t19.5 38.5l5 6h19l5 -6l-8 -108l-5 -5h-233z" />
    <glyph glyph-name="uni00B3" unicode="&#xb3;" horiz-adv-x="299" 
d="M53.5 538q-33.5 32 -33.5 81l5 5h14l5 -5q7 -33 28.5 -52.5t55.5 -19.5q32 0 52 22.5t20 57.5q0 34 -20 53.5t-57 19.5h-29l-4 6l75 93h-70q-18 0 -27 -8.5t-12 -26.5l-5 -5h-15l-5 5l7 94l5 5h206l3 -5l-92 -115q51 -4 81 -34.5t30 -79.5q0 -41 -19.5 -68.5t-49.5 -41
t-62 -13.5q-53 0 -86.5 32z" />
    <glyph glyph-name="acute" unicode="&#xb4;" horiz-adv-x="272" 
d="M30 572l81 121l13 7h114l4 -10l-125 -120l-16 -7h-66z" />
    <glyph glyph-name="uni00B5" unicode="&#xb5;" horiz-adv-x="617" 
d="M24 -218v38l8 8h15q15 0 26 11t11 26v512q0 15 -11 25.5t-26 10.5h-13l-10 10v23l8 10l130 44h27l9 -9l-9 -78v-247q0 -54 27.5 -85t78.5 -31q37 0 67 20t47 54.5t17 74.5v178q0 15 -11 25.5t-26 10.5h-13l-10 10v23l8 10l130 44h27l9 -9l-9 -78v-294q0 -17 12 -28.5
t28 -11.5h11l9 -10v-23l-9 -10l-116 -46h-31l-9 9v74q-28 -41 -71.5 -64t-97.5 -23q-39 0 -68 14v-135q0 -15 11 -26t26 -11h15l8 -8v-38l-8 -8h-209z" />
    <glyph glyph-name="paragraph" unicode="&#xb6;" horiz-adv-x="661" 
d="M260 -216v526l-10 10h-8q-99 0 -158.5 52t-59.5 138t59.5 138t158.5 52h381l8 -8v-38l-8 -8h-32q-15 0 -27.5 -11.5t-12.5 -25.5v-825l-10 -10h-74l-10 10v852l-10 10h-83l-10 -10v-852l-10 -10h-74z" />
    <glyph glyph-name="periodcentered" unicode="&#xb7;" horiz-adv-x="215" 
d="M60 305q-19 19 -19 47t19 47.5t47 19.5t47.5 -19.5t19.5 -47.5t-19.5 -47t-47.5 -19t-47 19z" />
    <glyph glyph-name="cedilla" unicode="&#xb8;" horiz-adv-x="283" 
d="M33 -204l-3 11l8 12l9 3q15 -10 29.5 -15t35.5 -5q26 0 42.5 13t16.5 41q0 25 -13 39t-38 14q-29 0 -57 -18h-7l-6 7v7l55 125l65 -12l-59 -81q21 12 53 12q41 0 65 -24.5t24 -61.5q0 -45 -34 -74t-92 -29q-56 0 -94 36z" />
    <glyph glyph-name="uni00B9" unicode="&#xb9;" horiz-adv-x="225" 
d="M47 514v20l5 5h13q8 0 14 5.5t6 13.5v200q0 18 -18 18q-12 0 -22 -9h-6l-9 15l1 8l101 69h19l5 -5v-296q0 -7 6 -13t13 -6h15l5 -5v-20l-5 -5h-138z" />
    <glyph glyph-name="ordmasculine" unicode="&#xba;" horiz-adv-x="443" 
d="M128.5 371q-42.5 24 -67 65.5t-24.5 93.5t24.5 94t67 66t93.5 24t93.5 -24t66.5 -66t24 -94t-24 -93.5t-66.5 -65.5t-93.5 -24t-93.5 24zM297 427q28 38 28 104t-28.5 103.5t-74.5 37.5q-47 0 -75.5 -37.5t-28.5 -103.5q0 -67 28.5 -104.5t75.5 -37.5t75 38z" />
    <glyph glyph-name="guillemotright" unicode="&#xbb;" horiz-adv-x="527" 
d="M40 97v43l144 168v8l-144 169v42l8 8h13l220 -188l7 -10v-50l-7 -10l-220 -188h-13zM247 97v43l144 168v8l-144 169v42l8 8h13l220 -188l7 -10v-50l-7 -10l-220 -188h-13z" />
    <glyph glyph-name="onequarter" unicode="&#xbc;" horiz-adv-x="564" 
d="M47 355v20l5 5h13q8 0 14 5.5t6 13.5v200q0 18 -18 18q-12 0 -22 -9h-6l-9 15l1 8l101 69h19l5 -5v-296q0 -7 6 -13t13 -6h15l5 -5v-20l-5 -5h-138zM117 150l-2 14l321 397h14l24 -20l2 -14l-319 -395l-15 -2zM383 5v20l5 5h10q8 0 14 6t6 14v39h-147l-5 5v30l194 226h23
l5 -5v-219h42l4 -4v-29l-4 -4h-42v-39q0 -8 6 -14t14 -6h11l5 -5v-20l-5 -5h-131zM418 126v112h-5l-97 -112h102z" />
    <glyph glyph-name="onehalf" unicode="&#xbd;" horiz-adv-x="647" 
d="M47 355v20l5 5h13q8 0 14 5.5t6 13.5v200q0 18 -18 18q-12 0 -22 -9h-6l-9 15l1 8l101 69h19l5 -5v-296q0 -7 6 -13t13 -6h15l5 -5v-20l-5 -5h-138zM117 150l-2 14l321 397h14l24 -20l2 -14l-319 -395l-15 -2zM367 6l60 68q6 7 39 44t50 70t17 61q0 30 -16.5 47t-44.5 17
q-34 0 -54.5 -22t-25.5 -53l-5 -5h-15l-5 5q0 28 13.5 55.5t41.5 45.5t70 18q49 0 80 -29t31 -76q0 -30 -15.5 -57t-45.5 -55.5t-89 -77.5h71q31 0 44.5 12.5t19.5 38.5l5 6h19l5 -6l-8 -108l-5 -5h-233z" />
    <glyph glyph-name="threequarters" unicode="&#xbe;" horiz-adv-x="604" 
d="M53.5 375q-33.5 32 -33.5 81l5 5h14l5 -5q7 -33 28.5 -52.5t55.5 -19.5q32 0 52 22.5t20 57.5q0 34 -20 53.5t-57 19.5h-29l-4 6l75 93h-70q-18 0 -27 -8.5t-12 -26.5l-5 -5h-15l-5 5l7 94l5 5h206l3 -5l-92 -115q51 -4 81 -34.5t30 -79.5q0 -41 -19.5 -68.5t-49.5 -41
t-62 -13.5q-53 0 -86.5 32zM157 150l-2 14l321 397h14l24 -20l2 -14l-319 -395l-15 -2zM423 5v20l5 5h10q8 0 14 6t6 14v39h-147l-5 5v30l194 226h23l5 -5v-219h42l4 -4v-29l-4 -4h-42v-39q0 -8 6 -14t14 -6h11l5 -5v-20l-5 -5h-131zM458 126v112h-5l-97 -112h102z" />
    <glyph glyph-name="questiondown" unicode="&#xbf;" horiz-adv-x="462" 
d="M296.5 489q19.5 -19 19.5 -47t-19.5 -47.5t-46.5 -19.5q-28 0 -48 19.5t-20 47.5t20 47t48 19q27 0 46.5 -19zM277 264v-15q0 -43 -9.5 -75t-23 -53t-36.5 -48q-28 -33 -41.5 -58.5t-13.5 -65.5q0 -50 30.5 -77.5t77.5 -27.5q52 0 87 33t45 95l8 9h18l8 -9
q-4 -92 -60 -142t-136 -50q-51 0 -93.5 19.5t-67.5 57.5t-25 92q0 37 12 65t29.5 46.5t47.5 44.5q42 35 63.5 65.5t21.5 78.5v15l10 10h38z" />
    <glyph glyph-name="Agrave" unicode="&#xc0;" horiz-adv-x="761" 
d="M28 8v38l8 8h22q27 0 40 30l222 520q5 12 5 22q0 20 -22 20h-10l-8 8v38l8 8h168l8 -8v-38l-8 -8h-10q-22 0 -22 -20q0 -8 6 -22l228 -520q8 -19 17 -24.5t23 -5.5h22l8 -8v-38l-8 -8h-248l-8 8v38l8 8h30q13 0 20 6t7 16q0 8 -5 18l-23 56h-318l-23 -56q-5 -12 -5 -18
q0 -10 7 -16t20 -6h32l8 -8v-38l-8 -8h-183zM482 204l-134 320l-136 -320h270zM332 776l-125 120l4 10h114l13 -7l81 -121l-5 -9h-66z" />
    <glyph glyph-name="Aacute" unicode="&#xc1;" horiz-adv-x="761" 
d="M28 8v38l8 8h22q27 0 40 30l222 520q5 12 5 22q0 20 -22 20h-10l-8 8v38l8 8h168l8 -8v-38l-8 -8h-10q-22 0 -22 -20q0 -8 6 -22l228 -520q8 -19 17 -24.5t23 -5.5h22l8 -8v-38l-8 -8h-248l-8 8v38l8 8h30q13 0 20 6t7 16q0 8 -5 18l-23 56h-318l-23 -56q-5 -12 -5 -18
q0 -10 7 -16t20 -6h32l8 -8v-38l-8 -8h-183zM482 204l-134 320l-136 -320h270zM342 778l81 121l13 7h114l4 -10l-125 -120l-16 -7h-66z" />
    <glyph glyph-name="Acircumflex" unicode="&#xc2;" horiz-adv-x="761" 
d="M28 8v38l8 8h22q27 0 40 30l222 520q5 12 5 22q0 20 -22 20h-10l-8 8v38l8 8h168l8 -8v-38l-8 -8h-10q-22 0 -22 -20q0 -8 6 -22l228 -520q8 -19 17 -24.5t23 -5.5h22l8 -8v-38l-8 -8h-248l-8 8v38l8 8h30q13 0 20 6t7 16q0 8 -5 18l-23 56h-318l-23 -56q-5 -12 -5 -18
q0 -10 7 -16t20 -6h32l8 -8v-38l-8 -8h-183zM482 204l-134 320l-136 -320h270zM225 778l85 120l13 8h114l13 -8l85 -120l-8 -9h-63l-5 2l-76 70h-7l-75 -70l-6 -2h-62z" />
    <glyph glyph-name="Atilde" unicode="&#xc3;" horiz-adv-x="761" 
d="M28 8v38l8 8h22q27 0 40 30l222 520q5 12 5 22q0 20 -22 20h-10l-8 8v38l8 8h168l8 -8v-38l-8 -8h-10q-22 0 -22 -20q0 -8 6 -22l228 -520q8 -19 17 -24.5t23 -5.5h22l8 -8v-38l-8 -8h-248l-8 8v38l8 8h30q13 0 20 6t7 16q0 8 -5 18l-23 56h-318l-23 -56q-5 -12 -5 -18
q0 -10 7 -16t20 -6h32l8 -8v-38l-8 -8h-183zM482 204l-134 320l-136 -320h270zM404 776q-20 9 -45 26q-22 14 -36 21t-31 7q-23 0 -36.5 -13.5t-18.5 -33.5l-8 -8h-17l-8 8q2 55 33 86.5t75 31.5q25 0 44.5 -9t46.5 -26q23 -14 37 -21t30 -7q22 0 35 14t18 33l8 8h17l8 -8
q-1 -56 -31.5 -87t-74.5 -31q-26 0 -46 9z" />
    <glyph glyph-name="Adieresis" unicode="&#xc4;" horiz-adv-x="761" 
d="M28 8v38l8 8h22q27 0 40 30l222 520q5 12 5 22q0 20 -22 20h-10l-8 8v38l8 8h168l8 -8v-38l-8 -8h-10q-22 0 -22 -20q0 -8 6 -22l228 -520q8 -19 17 -24.5t23 -5.5h22l8 -8v-38l-8 -8h-248l-8 8v38l8 8h30q13 0 20 6t7 16q0 8 -5 18l-23 56h-318l-23 -56q-5 -12 -5 -18
q0 -10 7 -16t20 -6h32l8 -8v-38l-8 -8h-183zM482 204l-134 320l-136 -320h270zM243 789.5q-18 18.5 -18 43.5q0 26 18.5 45t43.5 19q26 0 44.5 -19t18.5 -45q0 -25 -18.5 -43.5t-44.5 -18.5t-44 18.5zM428 789.5q-18 18.5 -18 43.5q0 26 18.5 45t43.5 19q26 0 45 -19t19 -45
q0 -25 -19 -43.5t-45 -18.5t-44 18.5z" />
    <glyph glyph-name="Aring" unicode="&#xc5;" horiz-adv-x="761" 
d="M28 8v38l8 8h22q27 0 40 30l222 520q5 12 5 22q0 20 -22 20h-10l-8 8v38l8 8h168l8 -8v-38l-8 -8h-10q-22 0 -22 -20q0 -8 6 -22l228 -520q8 -19 17 -24.5t23 -5.5h22l8 -8v-38l-8 -8h-248l-8 8v38l8 8h30q13 0 20 6t7 16q0 8 -5 18l-23 56h-318l-23 -56q-5 -12 -5 -18
q0 -10 7 -16t20 -6h32l8 -8v-38l-8 -8h-183zM482 204l-134 320l-136 -320h270zM307 779.5q-30 29.5 -30 71.5t30 71.5t73 29.5t73 -29.5t30 -71.5t-30 -71.5t-73 -29.5t-73 29.5zM422 809.5q16 16.5 16 41.5t-16 41.5t-42 16.5t-42 -16.5t-16 -41.5t16 -41.5t42 -16.5
t42 16.5z" />
    <glyph glyph-name="AE" unicode="&#xc6;" horiz-adv-x="970" 
d="M28 8v38l8 8h22q27 0 40 30l227 519q6 12 6 22q0 9 -6 15t-18 6h-10l-8 8v38l8 8h498l9 -9v-31l-25 -109l-8 -8h-32l-8 8q-12 95 -91 95h-176q-25 0 -25 -20q0 -8 6 -22l91 -208l14 -9h147q15 0 27.5 13t12.5 27v12l8 8h37l8 -8v-158l-8 -8h-37l-8 8v12q0 15 -12.5 27.5
t-27.5 12.5h-124l-7 -8l104 -238q14 -33 59 -33h30q62 0 91.5 39t36.5 92l8 8h39l6 -8l-15 -177l-8 -8h-424l-8 8v38l8 8h30q13 0 20 6t7 16q0 6 -5 18l-26 56h-328l-23 -56q-5 -12 -5 -18q0 -10 7 -16t20 -6h30l8 -8v-38l-8 -8h-184zM497 204l-141 324l-141 -324h282z" />
    <glyph glyph-name="Ccedilla" unicode="&#xc7;" horiz-adv-x="693" 
d="M630 204l8 -8l-10 -146l-9 -11q-38 -23 -90.5 -37.5t-114.5 -15.5l-36 -49q21 12 53 12q41 0 65 -24.5t24 -61.5q0 -45 -34 -74t-92 -29q-56 0 -94 36l-3 11l8 12l9 3q15 -10 29.5 -15t35.5 -5q26 0 42.5 13t16.5 41q0 25 -13 39t-38 14q-29 0 -57 -18h-7l-6 7v7l37 84
q-90 10 -162.5 56.5t-114 125t-41.5 179.5q0 110 49 193t132.5 127t184.5 44q66 0 121.5 -14.5t95.5 -38.5l9 -11l10 -146l-8 -8h-54l-8 8l-2 18q-14 133 -162 133q-74 0 -130 -40t-86.5 -109.5t-30.5 -155.5t30.5 -155.5t86.5 -109.5t130 -40q64 0 109.5 34.5t52.5 98.5
l2 18l8 8h54z" />
    <glyph glyph-name="Egrave" unicode="&#xc8;" horiz-adv-x="605" 
d="M36 8v38l8 8h32q15 0 27.5 12.5t12.5 27.5v512q0 15 -12.5 27.5t-27.5 12.5h-32l-8 8v38l8 8h485l9 -9v-31l-25 -109l-8 -8h-32l-8 8q-12 95 -91 95h-103q-15 0 -27.5 -12.5t-12.5 -27.5v-219h134q15 0 27.5 13t12.5 27v12l8 8h38l8 -8v-158l-8 -8h-38l-8 8v12
q0 15 -12.5 27.5t-27.5 12.5h-134v-239q0 -15 12.5 -27.5t27.5 -12.5h109q125 0 142 131l8 8h39l6 -8l-15 -177l-8 -8h-508zM261 776l-125 120l4 10h114l13 -7l81 -121l-5 -9h-66z" />
    <glyph glyph-name="Eacute" unicode="&#xc9;" horiz-adv-x="605" 
d="M36 8v38l8 8h32q15 0 27.5 12.5t12.5 27.5v512q0 15 -12.5 27.5t-27.5 12.5h-32l-8 8v38l8 8h485l9 -9v-31l-25 -109l-8 -8h-32l-8 8q-12 95 -91 95h-103q-15 0 -27.5 -12.5t-12.5 -27.5v-219h134q15 0 27.5 13t12.5 27v12l8 8h38l8 -8v-158l-8 -8h-38l-8 8v12
q0 15 -12.5 27.5t-27.5 12.5h-134v-239q0 -15 12.5 -27.5t27.5 -12.5h109q125 0 142 131l8 8h39l6 -8l-15 -177l-8 -8h-508zM271 778l81 121l13 7h114l4 -10l-125 -120l-16 -7h-66z" />
    <glyph glyph-name="Ecircumflex" unicode="&#xca;" horiz-adv-x="605" 
d="M36 8v38l8 8h32q15 0 27.5 12.5t12.5 27.5v512q0 15 -12.5 27.5t-27.5 12.5h-32l-8 8v38l8 8h485l9 -9v-31l-25 -109l-8 -8h-32l-8 8q-12 95 -91 95h-103q-15 0 -27.5 -12.5t-12.5 -27.5v-219h134q15 0 27.5 13t12.5 27v12l8 8h38l8 -8v-158l-8 -8h-38l-8 8v12
q0 15 -12.5 27.5t-27.5 12.5h-134v-239q0 -15 12.5 -27.5t27.5 -12.5h109q125 0 142 131l8 8h39l6 -8l-15 -177l-8 -8h-508zM155 778l85 120l13 8h114l13 -8l85 -120l-8 -9h-63l-5 2l-76 70h-7l-75 -70l-6 -2h-62z" />
    <glyph glyph-name="Edieresis" unicode="&#xcb;" horiz-adv-x="605" 
d="M36 8v38l8 8h32q15 0 27.5 12.5t12.5 27.5v512q0 15 -12.5 27.5t-27.5 12.5h-32l-8 8v38l8 8h485l9 -9v-31l-25 -109l-8 -8h-32l-8 8q-12 95 -91 95h-103q-15 0 -27.5 -12.5t-12.5 -27.5v-219h134q15 0 27.5 13t12.5 27v12l8 8h38l8 -8v-158l-8 -8h-38l-8 8v12
q0 15 -12.5 27.5t-27.5 12.5h-134v-239q0 -15 12.5 -27.5t27.5 -12.5h109q125 0 142 131l8 8h39l6 -8l-15 -177l-8 -8h-508zM172 789.5q-18 18.5 -18 43.5q0 26 18.5 45t43.5 19q26 0 44.5 -19t18.5 -45q0 -25 -18.5 -43.5t-44.5 -18.5t-44 18.5zM357 789.5
q-18 18.5 -18 43.5q0 26 18.5 45t43.5 19q26 0 45 -19t19 -45q0 -25 -19 -43.5t-45 -18.5t-44 18.5z" />
    <glyph glyph-name="Igrave" unicode="&#xcc;" horiz-adv-x="347" 
d="M36 8v38l8 8h32q15 0 27.5 12.5t12.5 27.5v512q0 15 -12.5 27.5t-27.5 12.5h-31l-9 9v36l9 9h257l9 -9v-36l-9 -9h-31q-15 0 -27.5 -12.5t-12.5 -27.5v-512q0 -15 12.5 -27.5t27.5 -12.5h32l8 -8v-38l-8 -8h-259zM125 776l-125 120l4 10h114l13 -7l81 -121l-5 -9h-66z
" />
    <glyph glyph-name="Iacute" unicode="&#xcd;" horiz-adv-x="347" 
d="M36 8v38l8 8h32q15 0 27.5 12.5t12.5 27.5v512q0 15 -12.5 27.5t-27.5 12.5h-31l-9 9v36l9 9h257l9 -9v-36l-9 -9h-31q-15 0 -27.5 -12.5t-12.5 -27.5v-512q0 -15 12.5 -27.5t27.5 -12.5h32l8 -8v-38l-8 -8h-259zM135 778l81 121l13 7h114l4 -10l-125 -120l-16 -7h-66z
" />
    <glyph glyph-name="Icircumflex" unicode="&#xce;" horiz-adv-x="347" 
d="M36 8v38l8 8h32q15 0 27.5 12.5t12.5 27.5v512q0 15 -12.5 27.5t-27.5 12.5h-31l-9 9v36l9 9h257l9 -9v-36l-9 -9h-31q-15 0 -27.5 -12.5t-12.5 -27.5v-512q0 -15 12.5 -27.5t27.5 -12.5h32l8 -8v-38l-8 -8h-259zM19 778l85 120l13 8h114l13 -8l85 -120l-8 -9h-63l-5 2
l-76 70h-7l-75 -70l-6 -2h-62z" />
    <glyph glyph-name="Idieresis" unicode="&#xcf;" horiz-adv-x="347" 
d="M36 8v38l8 8h32q15 0 27.5 12.5t12.5 27.5v512q0 15 -12.5 27.5t-27.5 12.5h-31l-9 9v36l9 9h257l9 -9v-36l-9 -9h-31q-15 0 -27.5 -12.5t-12.5 -27.5v-512q0 -15 12.5 -27.5t27.5 -12.5h32l8 -8v-38l-8 -8h-259zM36 789.5q-18 18.5 -18 43.5q0 26 18.5 45t43.5 19
q26 0 44.5 -19t18.5 -45q0 -25 -18.5 -43.5t-44.5 -18.5t-44 18.5zM221 789.5q-18 18.5 -18 43.5q0 26 18.5 45t43.5 19q26 0 45 -19t19 -45q0 -25 -19 -43.5t-45 -18.5t-44 18.5z" />
    <glyph glyph-name="Eth" unicode="&#xd0;" horiz-adv-x="703" 
d="M36 8v38l8 8h32q15 0 27.5 12.5t12.5 27.5v230h-82l-8 8v37l8 8h82v229q0 15 -12.5 27.5t-27.5 12.5h-32l-8 8v38l8 8h266q95 0 176.5 -39.5t131 -118.5t49.5 -192t-49.5 -192t-131 -118.5t-176.5 -39.5h-266zM309 54q66 0 119.5 34t85.5 100.5t32 161.5t-32 161.5
t-85.5 100.5t-119.5 34h-38q-15 0 -27.5 -12.5t-12.5 -27.5v-229h107l8 -8v-37l-8 -8h-107v-230q0 -15 12.5 -27.5t27.5 -12.5h38z" />
    <glyph glyph-name="Ntilde" unicode="&#xd1;" horiz-adv-x="792" 
d="M36 8v38l8 8h32q15 0 27.5 12.5t12.5 27.5v515q0 14 -12.5 25.5t-27.5 11.5h-32l-8 8v38l8 8h244l8 -8v-38l-8 -8h-10q-13 0 -20 -6t-7 -16t4.5 -17.5t15.5 -19.5l351 -408v427q0 15 -12.5 27.5t-27.5 12.5h-32l-8 8v38l8 8h198l8 -8v-38l-8 -8h-32q-15 0 -27.5 -12.5
t-12.5 -27.5v-598l-8 -8h-35l-17 10l-446 519v-435q0 -15 12.5 -27.5t27.5 -12.5h32l8 -8v-38l-8 -8h-198zM445 776q-20 9 -45 26q-22 14 -36 21t-31 7q-23 0 -36.5 -13.5t-18.5 -33.5l-8 -8h-17l-8 8q2 55 33 86.5t75 31.5q25 0 44.5 -9t46.5 -26q23 -14 37 -21t30 -7
q22 0 35 14t18 33l8 8h17l8 -8q-1 -56 -31.5 -87t-74.5 -31q-26 0 -46 9z" />
    <glyph glyph-name="Ograve" unicode="&#xd2;" horiz-adv-x="810" 
d="M219.5 31.5q-84.5 45.5 -134 128t-49.5 190.5t49.5 190.5t134 128t185.5 45.5t185.5 -45.5t134 -128t49.5 -190.5t-49.5 -190.5t-134 -128t-185.5 -45.5t-185.5 45.5zM537 86.5q56 41.5 86 111t30 152.5t-30 152.5t-86 111t-132 41.5t-132 -41.5t-86 -111t-30 -152.5
t30 -152.5t86 -111t132 -41.5t132 41.5zM356 776l-125 120l4 10h114l13 -7l81 -121l-5 -9h-66z" />
    <glyph glyph-name="Oacute" unicode="&#xd3;" horiz-adv-x="810" 
d="M219.5 31.5q-84.5 45.5 -134 128t-49.5 190.5t49.5 190.5t134 128t185.5 45.5t185.5 -45.5t134 -128t49.5 -190.5t-49.5 -190.5t-134 -128t-185.5 -45.5t-185.5 45.5zM537 86.5q56 41.5 86 111t30 152.5t-30 152.5t-86 111t-132 41.5t-132 -41.5t-86 -111t-30 -152.5
t30 -152.5t86 -111t132 -41.5t132 41.5zM366 778l81 121l13 7h114l4 -10l-125 -120l-16 -7h-66z" />
    <glyph glyph-name="Ocircumflex" unicode="&#xd4;" horiz-adv-x="810" 
d="M219.5 31.5q-84.5 45.5 -134 128t-49.5 190.5t49.5 190.5t134 128t185.5 45.5t185.5 -45.5t134 -128t49.5 -190.5t-49.5 -190.5t-134 -128t-185.5 -45.5t-185.5 45.5zM537 86.5q56 41.5 86 111t30 152.5t-30 152.5t-86 111t-132 41.5t-132 -41.5t-86 -111t-30 -152.5
t30 -152.5t86 -111t132 -41.5t132 41.5zM250 778l85 120l13 8h114l13 -8l85 -120l-8 -9h-63l-5 2l-76 70h-7l-75 -70l-6 -2h-62z" />
    <glyph glyph-name="Otilde" unicode="&#xd5;" horiz-adv-x="810" 
d="M219.5 31.5q-84.5 45.5 -134 128t-49.5 190.5t49.5 190.5t134 128t185.5 45.5t185.5 -45.5t134 -128t49.5 -190.5t-49.5 -190.5t-134 -128t-185.5 -45.5t-185.5 45.5zM537 86.5q56 41.5 86 111t30 152.5t-30 152.5t-86 111t-132 41.5t-132 -41.5t-86 -111t-30 -152.5
t30 -152.5t86 -111t132 -41.5t132 41.5zM428 776q-20 9 -45 26q-22 14 -36 21t-31 7q-23 0 -36.5 -13.5t-18.5 -33.5l-8 -8h-17l-8 8q2 55 33 86.5t75 31.5q25 0 44.5 -9t46.5 -26q23 -14 37 -21t30 -7q22 0 35 14t18 33l8 8h17l8 -8q-1 -56 -31.5 -87t-74.5 -31
q-26 0 -46 9z" />
    <glyph glyph-name="Odieresis" unicode="&#xd6;" horiz-adv-x="810" 
d="M219.5 31.5q-84.5 45.5 -134 128t-49.5 190.5t49.5 190.5t134 128t185.5 45.5t185.5 -45.5t134 -128t49.5 -190.5t-49.5 -190.5t-134 -128t-185.5 -45.5t-185.5 45.5zM537 86.5q56 41.5 86 111t30 152.5t-30 152.5t-86 111t-132 41.5t-132 -41.5t-86 -111t-30 -152.5
t30 -152.5t86 -111t132 -41.5t132 41.5zM267 789.5q-18 18.5 -18 43.5q0 26 18.5 45t43.5 19q26 0 44.5 -19t18.5 -45q0 -25 -18.5 -43.5t-44.5 -18.5t-44 18.5zM452 789.5q-18 18.5 -18 43.5q0 26 18.5 45t43.5 19q26 0 45 -19t19 -45q0 -25 -19 -43.5t-45 -18.5t-44 18.5z
" />
    <glyph glyph-name="multiply" unicode="&#xd7;" horiz-adv-x="421" 
d="M46 239v12l116 116l-116 116v12l37 36h11l116 -116l116 116h12l37 -36v-12l-117 -116l117 -116v-12l-37 -36h-12l-116 116l-116 -116h-11z" />
    <glyph glyph-name="Oslash" unicode="&#xd8;" horiz-adv-x="810" 
d="M750 486.5q24 -62.5 24 -136.5q0 -108 -49.5 -190.5t-134 -128t-185.5 -45.5q-68 0 -129 21t-110 60l-56 -58h-12l-25 25v12l55 56q-44 49 -68 111.5t-24 136.5q0 108 49.5 190.5t134 128t185.5 45.5q67 0 128.5 -21t109.5 -59l57 58h13l25 -25v-13l-55 -57
q43 -48 67 -110.5zM198 175l384 396q-32 40 -77 62t-100 22q-76 0 -132 -41.5t-86 -111t-30 -152.5q0 -99 41 -175zM537 86.5q56 41.5 86 111t30 152.5q0 99 -41 175l-385 -395q33 -40 78 -62.5t100 -22.5q76 0 132 41.5z" />
    <glyph glyph-name="Ugrave" unicode="&#xd9;" horiz-adv-x="745" 
d="M175 58q-72 72 -72 194v354q0 15 -12.5 27.5t-27.5 12.5h-32l-8 8v38l8 8h258l8 -8v-38l-8 -8h-31q-15 0 -27.5 -12.5t-12.5 -27.5v-356q0 -86 49 -135.5t136 -49.5q82 0 131.5 49.5t49.5 135.5v356q0 15 -12.5 27.5t-27.5 12.5h-32l-8 8v38l8 8h202l8 -8v-38l-8 -8h-32
q-14 0 -27 -12.5t-13 -27.5v-349q0 -78 -31 -139.5t-90.5 -96.5t-141.5 -35q-132 0 -204 72zM354 776l-125 120l4 10h114l13 -7l81 -121l-5 -9h-66z" />
    <glyph glyph-name="Uacute" unicode="&#xda;" horiz-adv-x="745" 
d="M175 58q-72 72 -72 194v354q0 15 -12.5 27.5t-27.5 12.5h-32l-8 8v38l8 8h258l8 -8v-38l-8 -8h-31q-15 0 -27.5 -12.5t-12.5 -27.5v-356q0 -86 49 -135.5t136 -49.5q82 0 131.5 49.5t49.5 135.5v356q0 15 -12.5 27.5t-27.5 12.5h-32l-8 8v38l8 8h202l8 -8v-38l-8 -8h-32
q-14 0 -27 -12.5t-13 -27.5v-349q0 -78 -31 -139.5t-90.5 -96.5t-141.5 -35q-132 0 -204 72zM364 778l81 121l13 7h114l4 -10l-125 -120l-16 -7h-66z" />
    <glyph glyph-name="Ucircumflex" unicode="&#xdb;" horiz-adv-x="745" 
d="M175 58q-72 72 -72 194v354q0 15 -12.5 27.5t-27.5 12.5h-32l-8 8v38l8 8h258l8 -8v-38l-8 -8h-31q-15 0 -27.5 -12.5t-12.5 -27.5v-356q0 -86 49 -135.5t136 -49.5q82 0 131.5 49.5t49.5 135.5v356q0 15 -12.5 27.5t-27.5 12.5h-32l-8 8v38l8 8h202l8 -8v-38l-8 -8h-32
q-14 0 -27 -12.5t-13 -27.5v-349q0 -78 -31 -139.5t-90.5 -96.5t-141.5 -35q-132 0 -204 72zM247 778l85 120l13 8h114l13 -8l85 -120l-8 -9h-63l-5 2l-76 70h-7l-75 -70l-6 -2h-62z" />
    <glyph glyph-name="Udieresis" unicode="&#xdc;" horiz-adv-x="745" 
d="M175 58q-72 72 -72 194v354q0 15 -12.5 27.5t-27.5 12.5h-32l-8 8v38l8 8h258l8 -8v-38l-8 -8h-31q-15 0 -27.5 -12.5t-12.5 -27.5v-356q0 -86 49 -135.5t136 -49.5q82 0 131.5 49.5t49.5 135.5v356q0 15 -12.5 27.5t-27.5 12.5h-32l-8 8v38l8 8h202l8 -8v-38l-8 -8h-32
q-14 0 -27 -12.5t-13 -27.5v-349q0 -78 -31 -139.5t-90.5 -96.5t-141.5 -35q-132 0 -204 72zM265 789.5q-18 18.5 -18 43.5q0 26 18.5 45t43.5 19q26 0 44.5 -19t18.5 -45q0 -25 -18.5 -43.5t-44.5 -18.5t-44 18.5zM450 789.5q-18 18.5 -18 43.5q0 26 18.5 45t43.5 19
q26 0 45 -19t19 -45q0 -25 -19 -43.5t-45 -18.5t-44 18.5z" />
    <glyph glyph-name="Yacute" unicode="&#xdd;" horiz-adv-x="661" 
d="M196 8v38l8 8h32q15 0 27.5 12.5t12.5 27.5v213l-178 309q-9 16 -19 23t-26 7h-27l-8 8v38l8 8h260l8 -8v-38l-8 -8h-34q-26 0 -26 -20q0 -13 7 -23l134 -231l130 234q6 12 6 20q0 9 -7 14.5t-19 5.5h-34l-8 8v38l8 8h192l8 -8v-38l-8 -8h-25q-18 0 -27.5 -7t-18.5 -23
l-173 -310v-212q0 -15 12.5 -27.5t27.5 -12.5h32l8 -8v-38l-8 -8h-259zM324 778l81 121l13 7h114l4 -10l-125 -120l-16 -7h-66z" />
    <glyph glyph-name="Thorn" unicode="&#xde;" horiz-adv-x="583" 
d="M36 8v38l8 8h32q15 0 27.5 12.5t12.5 27.5v512q0 15 -12.5 27.5t-27.5 12.5h-32l-8 8v38l8 8h259l8 -8v-38l-8 -8h-32q-15 0 -27.5 -12.5t-12.5 -27.5v-43h79q74 0 131 -26.5t88.5 -74.5t31.5 -112t-31.5 -112t-88.5 -74.5t-131 -26.5h-79v-43q0 -15 12.5 -27.5
t27.5 -12.5h32l8 -8v-38l-8 -8h-259zM310 191q67 0 100.5 47.5t33.5 111.5t-33.5 111.5t-100.5 47.5h-39q-15 0 -27.5 -12.5t-12.5 -27.5v-278h79z" />
    <glyph glyph-name="germandbls" unicode="&#xdf;" horiz-adv-x="592" 
d="M35 8v38l8 8h15q15 0 26 11t11 26v349h-52l-9 9v36l9 9h52v20q0 58 27.5 103.5t74 71t102.5 25.5q81 0 131.5 -40.5t50.5 -105.5q0 -51 -33 -90.5t-88 -63.5q82 -16 139.5 -67.5t57.5 -141.5q0 -98 -65.5 -151.5t-175.5 -53.5l-9 8v38l9 8q58 1 95.5 39.5t37.5 107.5
q0 83 -53 128.5t-128 50.5l-9 9v35l9 9q51 10 82.5 42t31.5 90q0 47 -23 72t-62 25q-46 0 -71.5 -33.5t-25.5 -89.5v-448q0 -15 11 -26t26 -11h15l8 -8v-38l-8 -8h-209z" />
    <glyph glyph-name="agrave" unicode="&#xe0;" horiz-adv-x="635" 
d="M152.5 15.5q-53.5 29.5 -85.5 88t-32 141.5q0 80 34 140t90.5 91.5t120.5 31.5q108 0 171 -83h5l45 69h35l8 -8v-367q0 -17 11.5 -28.5t27.5 -11.5h12l8 -8v-27l-8 -8l-114 -46h-32l-8 8v79q-62 -91 -171 -91q-64 0 -117.5 29.5zM398 100.5q37 58.5 37 146.5t-37 146.5
t-108 58.5q-72 0 -109 -58t-37 -147q0 -88 37 -146.5t109 -58.5q71 0 108 58.5zM242 570l-125 120l4 10h114l13 -7l81 -121l-5 -9h-66z" />
    <glyph glyph-name="aacute" unicode="&#xe1;" horiz-adv-x="635" 
d="M152.5 15.5q-53.5 29.5 -85.5 88t-32 141.5q0 80 34 140t90.5 91.5t120.5 31.5q108 0 171 -83h5l45 69h35l8 -8v-367q0 -17 11.5 -28.5t27.5 -11.5h12l8 -8v-27l-8 -8l-114 -46h-32l-8 8v79q-62 -91 -171 -91q-64 0 -117.5 29.5zM398 100.5q37 58.5 37 146.5t-37 146.5
t-108 58.5q-72 0 -109 -58t-37 -147q0 -88 37 -146.5t109 -58.5q71 0 108 58.5zM252 572l81 121l13 7h114l4 -10l-125 -120l-16 -7h-66z" />
    <glyph glyph-name="acircumflex" unicode="&#xe2;" horiz-adv-x="635" 
d="M152.5 15.5q-53.5 29.5 -85.5 88t-32 141.5q0 80 34 140t90.5 91.5t120.5 31.5q108 0 171 -83h5l45 69h35l8 -8v-367q0 -17 11.5 -28.5t27.5 -11.5h12l8 -8v-27l-8 -8l-114 -46h-32l-8 8v79q-62 -91 -171 -91q-64 0 -117.5 29.5zM398 100.5q37 58.5 37 146.5t-37 146.5
t-108 58.5q-72 0 -109 -58t-37 -147q0 -88 37 -146.5t109 -58.5q71 0 108 58.5zM136 572l85 120l13 8h114l13 -8l85 -120l-8 -9h-63l-5 2l-76 70h-7l-75 -70l-6 -2h-62z" />
    <glyph glyph-name="atilde" unicode="&#xe3;" horiz-adv-x="635" 
d="M152.5 15.5q-53.5 29.5 -85.5 88t-32 141.5q0 80 34 140t90.5 91.5t120.5 31.5q108 0 171 -83h5l45 69h35l8 -8v-367q0 -17 11.5 -28.5t27.5 -11.5h12l8 -8v-27l-8 -8l-114 -46h-32l-8 8v79q-62 -91 -171 -91q-64 0 -117.5 29.5zM398 100.5q37 58.5 37 146.5t-37 146.5
t-108 58.5q-72 0 -109 -58t-37 -147q0 -88 37 -146.5t109 -58.5q71 0 108 58.5zM314 570q-20 9 -45 26q-22 14 -36 21t-31 7q-23 0 -36.5 -13.5t-18.5 -33.5l-8 -8h-17l-8 8q2 55 33 86.5t75 31.5q25 0 44.5 -9t46.5 -26q23 -14 37 -21t30 -7q22 0 35 14t18 33l8 8h17l8 -8
q-1 -56 -31.5 -87t-74.5 -31q-26 0 -46 9z" />
    <glyph glyph-name="adieresis" unicode="&#xe4;" horiz-adv-x="635" 
d="M152.5 15.5q-53.5 29.5 -85.5 88t-32 141.5q0 80 34 140t90.5 91.5t120.5 31.5q108 0 171 -83h5l45 69h35l8 -8v-367q0 -17 11.5 -28.5t27.5 -11.5h12l8 -8v-27l-8 -8l-114 -46h-32l-8 8v79q-62 -91 -171 -91q-64 0 -117.5 29.5zM398 100.5q37 58.5 37 146.5t-37 146.5
t-108 58.5q-72 0 -109 -58t-37 -147q0 -88 37 -146.5t109 -58.5q71 0 108 58.5zM148 598q-19 19 -19 46q0 28 19 47.5t46 19.5t47 -19.5t20 -47.5q0 -27 -20 -46t-47 -19t-46 19zM338 598q-19 19 -19 46q0 28 19 47.5t46 19.5t47 -19.5t20 -47.5q0 -27 -20 -46t-47 -19
t-46 19z" />
    <glyph glyph-name="aring" unicode="&#xe5;" horiz-adv-x="635" 
d="M152.5 15.5q-53.5 29.5 -85.5 88t-32 141.5q0 80 34 140t90.5 91.5t120.5 31.5q108 0 171 -83h5l45 69h35l8 -8v-367q0 -17 11.5 -28.5t27.5 -11.5h12l8 -8v-27l-8 -8l-114 -46h-32l-8 8v79q-62 -91 -171 -91q-64 0 -117.5 29.5zM398 100.5q37 58.5 37 146.5t-37 146.5
t-108 58.5q-72 0 -109 -58t-37 -147q0 -88 37 -146.5t109 -58.5q71 0 108 58.5zM218 573.5q-30 29.5 -30 71.5t30 71.5t73 29.5t73 -29.5t30 -71.5t-30 -71.5t-73 -29.5t-73 29.5zM333 603.5q16 16.5 16 41.5t-16 41.5t-42 16.5t-42 -16.5t-16 -41.5t16 -41.5t42 -16.5
t42 16.5z" />
    <glyph glyph-name="ae" unicode="&#xe6;" horiz-adv-x="871" 
d="M830 174l4 -9q-24 -80 -87 -129.5t-148 -49.5q-69 0 -123 27.5t-87 74.5q-28 -50 -74 -76t-104 -26q-72 0 -123.5 35.5t-51.5 109.5q0 70 55 117t169 47h80q0 65 -28.5 105.5t-93.5 40.5q-47 0 -82 -24t-56 -66l-10 -4l-11 4l-5 9q18 76 74 112t117 36q52 0 93 -21.5
t67 -62.5q34 40 83 62t106 22q78 0 132 -35.5t81 -95t27 -130.5l-8 -8h-384q0 -47 22.5 -87t63 -63t91.5 -23q123 0 189 109l9 4zM516 431.5q-34 -21.5 -52.5 -56t-21.5 -72.5l8 -8h241q34 0 34 32q0 53 -35.5 89.5t-95.5 36.5q-44 0 -78 -21.5zM339 231l-8 8h-63
q-60 0 -91 -29.5t-31 -74.5q0 -38 22.5 -62t64.5 -24q46 0 76 35t30 97v50z" />
    <glyph glyph-name="ccedilla" unicode="&#xe7;" horiz-adv-x="527" 
d="M430.5 42.5q-43.5 -44.5 -115.5 -54.5l-37 -51q21 12 53 12q41 0 65 -24.5t24 -61.5q0 -45 -34 -74t-92 -29q-56 0 -94 36l-3 11l8 12l9 3q15 -10 29.5 -15t35.5 -5q26 0 42.5 13t16.5 41q0 25 -13 39t-38 14q-29 0 -57 -18h-7l-6 7v7l36 82q-59 6 -109 38.5t-79.5 88
t-29.5 126.5q0 82 37.5 143t100 93t133.5 32q88 0 150 -35l7 -10l5 -121l-8 -8h-37l-8 8v14q0 41 -29.5 68.5t-83.5 27.5q-76 0 -117 -56t-41 -139q0 -57 21.5 -101.5t59.5 -69.5t86 -25q52 0 91 26t64 74l9 4l13 -5l5 -9q-19 -64 -62.5 -108.5z" />
    <glyph glyph-name="egrave" unicode="&#xe8;" horiz-adv-x="566" 
d="M156.5 21.5q-58.5 35.5 -90 95t-31.5 130.5q0 72 33 131.5t91 94.5t131 35q77 0 131.5 -35.5t81.5 -95t27 -130.5l-8 -8h-385q0 -47 22.5 -87t63.5 -63t92 -23q122 0 188 109l9 4l13 -5l4 -9q-23 -80 -86 -129.5t-149 -49.5q-79 0 -137.5 35.5zM386 295q34 0 34 32
q0 53 -35.5 89.5t-94.5 36.5q-44 0 -78 -21.5t-53 -56t-22 -72.5l8 -8h241zM242 570l-125 120l4 10h114l13 -7l81 -121l-5 -9h-66z" />
    <glyph glyph-name="eacute" unicode="&#xe9;" horiz-adv-x="566" 
d="M156.5 21.5q-58.5 35.5 -90 95t-31.5 130.5q0 72 33 131.5t91 94.5t131 35q77 0 131.5 -35.5t81.5 -95t27 -130.5l-8 -8h-385q0 -47 22.5 -87t63.5 -63t92 -23q122 0 188 109l9 4l13 -5l4 -9q-23 -80 -86 -129.5t-149 -49.5q-79 0 -137.5 35.5zM386 295q34 0 34 32
q0 53 -35.5 89.5t-94.5 36.5q-44 0 -78 -21.5t-53 -56t-22 -72.5l8 -8h241zM252 572l81 121l13 7h114l4 -10l-125 -120l-16 -7h-66z" />
    <glyph glyph-name="ecircumflex" unicode="&#xea;" horiz-adv-x="566" 
d="M156.5 21.5q-58.5 35.5 -90 95t-31.5 130.5q0 72 33 131.5t91 94.5t131 35q77 0 131.5 -35.5t81.5 -95t27 -130.5l-8 -8h-385q0 -47 22.5 -87t63.5 -63t92 -23q122 0 188 109l9 4l13 -5l4 -9q-23 -80 -86 -129.5t-149 -49.5q-79 0 -137.5 35.5zM386 295q34 0 34 32
q0 53 -35.5 89.5t-94.5 36.5q-44 0 -78 -21.5t-53 -56t-22 -72.5l8 -8h241zM135 572l85 120l13 8h114l13 -8l85 -120l-8 -9h-63l-5 2l-76 70h-7l-75 -70l-6 -2h-62z" />
    <glyph glyph-name="edieresis" unicode="&#xeb;" horiz-adv-x="566" 
d="M156.5 21.5q-58.5 35.5 -90 95t-31.5 130.5q0 72 33 131.5t91 94.5t131 35q77 0 131.5 -35.5t81.5 -95t27 -130.5l-8 -8h-385q0 -47 22.5 -87t63.5 -63t92 -23q122 0 188 109l9 4l13 -5l4 -9q-23 -80 -86 -129.5t-149 -49.5q-79 0 -137.5 35.5zM386 295q34 0 34 32
q0 53 -35.5 89.5t-94.5 36.5q-44 0 -78 -21.5t-53 -56t-22 -72.5l8 -8h241zM148 598q-19 19 -19 46q0 28 19 47.5t46 19.5t47 -19.5t20 -47.5q0 -27 -20 -46t-47 -19t-46 19zM338 598q-19 19 -19 46q0 28 19 47.5t46 19.5t47 -19.5t20 -47.5q0 -27 -20 -46t-47 -19t-46 19z
" />
    <glyph glyph-name="igrave" unicode="&#xec;" horiz-adv-x="297" 
d="M36 8v38l8 8h15q15 0 26 11t11 26v277q0 16 -11 26t-26 10h-13l-10 10v21l8 10l130 49h27l8 -8l-8 -75v-320q0 -15 11 -26t26 -11h15l8 -8v-38l-8 -8h-209zM100 570l-125 120l4 10h114l13 -7l81 -121l-5 -9h-66z" />
    <glyph glyph-name="iacute" unicode="&#xed;" horiz-adv-x="297" 
d="M36 8v38l8 8h15q15 0 26 11t11 26v277q0 16 -11 26t-26 10h-13l-10 10v21l8 10l130 49h27l8 -8l-8 -75v-320q0 -15 11 -26t26 -11h15l8 -8v-38l-8 -8h-209zM110 572l81 121l13 7h114l4 -10l-125 -120l-16 -7h-66z" />
    <glyph glyph-name="icircumflex" unicode="&#xee;" horiz-adv-x="297" 
d="M36 8v38l8 8h15q15 0 26 11t11 26v277q0 16 -11 26t-26 10h-13l-10 10v21l8 10l130 49h27l8 -8l-8 -75v-320q0 -15 11 -26t26 -11h15l8 -8v-38l-8 -8h-209zM-6 572l85 120l13 8h114l13 -8l85 -120l-8 -9h-63l-5 2l-76 70h-7l-75 -70l-6 -2h-62z" />
    <glyph glyph-name="idieresis" unicode="&#xef;" horiz-adv-x="297" 
d="M36 8v38l8 8h15q15 0 26 11t11 26v277q0 16 -11 26t-26 10h-13l-10 10v21l8 10l130 49h27l8 -8l-8 -75v-320q0 -15 11 -26t26 -11h15l8 -8v-38l-8 -8h-209zM6 598q-19 19 -19 46q0 28 19 47.5t46 19.5t47 -19.5t20 -47.5q0 -27 -20 -46t-47 -19t-46 19zM196 598
q-19 19 -19 46q0 28 19 47.5t46 19.5t47 -19.5t20 -47.5q0 -27 -20 -46t-47 -19t-46 19z" />
    <glyph glyph-name="eth" unicode="&#xf0;" horiz-adv-x="574" 
d="M152.5 17.5q-55.5 31.5 -86.5 85.5t-31 118q0 67 30.5 120.5t83 83t115.5 29.5q40 0 76.5 -13.5t63.5 -39.5q-16 94 -73 163l-159 -66l-14 5l-9 24l5 16l142 59q-45 44 -115 77l-2 14l16 21h13q87 -33 154 -85l103 42l13 -4l10 -25l-5 -14l-81 -35q63 -61 97.5 -139
t34.5 -167q0 -90 -32.5 -158t-90.5 -105.5t-133 -37.5q-70 0 -125.5 31.5zM379 92q37 48 37 129t-37 129t-97 48t-96.5 -47.5t-36.5 -129.5t36.5 -129.5t96.5 -47.5t97 48z" />
    <glyph glyph-name="ntilde" unicode="&#xf1;" horiz-adv-x="633" 
d="M36 8v38l8 8h15q15 0 26 11t11 26v277q0 16 -11 26t-26 10h-15l-8 8v25l6 8l127 49h28l7 -7l-9 -73q29 44 73.5 69t101.5 25q79 0 126 -43.5t47 -124.5v-249q0 -15 11 -26t26 -11h15l8 -8v-38l-8 -8h-209l-8 8v38l8 8h15q15 0 26 11t11 26v242q0 51 -26.5 80.5
t-75.5 29.5q-41 0 -71.5 -21t-47 -56.5t-16.5 -76.5v-198q0 -15 11 -26t26 -11h15l8 -8v-38l-8 -8h-209zM345 570q-20 9 -45 26q-22 14 -36 21t-31 7q-23 0 -36.5 -13.5t-18.5 -33.5l-8 -8h-17l-8 8q2 55 33 86.5t75 31.5q25 0 44.5 -9t46.5 -26q23 -14 37 -21t30 -7
q22 0 35 14t18 33l8 8h17l8 -8q-1 -56 -31.5 -87t-74.5 -31q-26 0 -46 9z" />
    <glyph glyph-name="ograve" unicode="&#xf2;" horiz-adv-x="600" 
d="M165.5 19q-60.5 33 -95.5 92.5t-35 135.5t35 135.5t95.5 92.5t134.5 33t134.5 -33t95.5 -92.5t35 -135.5t-35 -135.5t-95.5 -92.5t-134.5 -33t-134.5 33zM413.5 99q40.5 56 40.5 148t-40.5 148t-113.5 56t-113.5 -56t-40.5 -148t40.5 -148t113.5 -56t113.5 56zM251 570
l-125 120l4 10h114l13 -7l81 -121l-5 -9h-66z" />
    <glyph glyph-name="oacute" unicode="&#xf3;" horiz-adv-x="600" 
d="M165.5 19q-60.5 33 -95.5 92.5t-35 135.5t35 135.5t95.5 92.5t134.5 33t134.5 -33t95.5 -92.5t35 -135.5t-35 -135.5t-95.5 -92.5t-134.5 -33t-134.5 33zM413.5 99q40.5 56 40.5 148t-40.5 148t-113.5 56t-113.5 -56t-40.5 -148t40.5 -148t113.5 -56t113.5 56zM261 572
l81 121l13 7h114l4 -10l-125 -120l-16 -7h-66z" />
    <glyph glyph-name="ocircumflex" unicode="&#xf4;" horiz-adv-x="600" 
d="M165.5 19q-60.5 33 -95.5 92.5t-35 135.5t35 135.5t95.5 92.5t134.5 33t134.5 -33t95.5 -92.5t35 -135.5t-35 -135.5t-95.5 -92.5t-134.5 -33t-134.5 33zM413.5 99q40.5 56 40.5 148t-40.5 148t-113.5 56t-113.5 -56t-40.5 -148t40.5 -148t113.5 -56t113.5 56zM145 572
l85 120l13 8h114l13 -8l85 -120l-8 -9h-63l-5 2l-76 70h-7l-75 -70l-6 -2h-62z" />
    <glyph glyph-name="otilde" unicode="&#xf5;" horiz-adv-x="600" 
d="M165.5 19q-60.5 33 -95.5 92.5t-35 135.5t35 135.5t95.5 92.5t134.5 33t134.5 -33t95.5 -92.5t35 -135.5t-35 -135.5t-95.5 -92.5t-134.5 -33t-134.5 33zM413.5 99q40.5 56 40.5 148t-40.5 148t-113.5 56t-113.5 -56t-40.5 -148t40.5 -148t113.5 -56t113.5 56zM323 570
q-20 9 -45 26q-22 14 -36 21t-31 7q-23 0 -36.5 -13.5t-18.5 -33.5l-8 -8h-17l-8 8q2 55 33 86.5t75 31.5q25 0 44.5 -9t46.5 -26q23 -14 37 -21t30 -7q22 0 35 14t18 33l8 8h17l8 -8q-1 -56 -31.5 -87t-74.5 -31q-26 0 -46 9z" />
    <glyph glyph-name="odieresis" unicode="&#xf6;" horiz-adv-x="600" 
d="M165.5 19q-60.5 33 -95.5 92.5t-35 135.5t35 135.5t95.5 92.5t134.5 33t134.5 -33t95.5 -92.5t35 -135.5t-35 -135.5t-95.5 -92.5t-134.5 -33t-134.5 33zM413.5 99q40.5 56 40.5 148t-40.5 148t-113.5 56t-113.5 -56t-40.5 -148t40.5 -148t113.5 -56t113.5 56zM157 598
q-19 19 -19 46q0 28 19 47.5t46 19.5t47 -19.5t20 -47.5q0 -27 -20 -46t-47 -19t-46 19zM347 598q-19 19 -19 46q0 28 19 47.5t46 19.5t47 -19.5t20 -47.5q0 -27 -20 -46t-47 -19t-46 19z" />
    <glyph glyph-name="divide" unicode="&#xf7;" horiz-adv-x="496" 
d="M201 479q-19 19 -19 47q0 27 19 46.5t46 19.5q28 0 47.5 -19.5t19.5 -46.5q0 -28 -19.5 -47t-47.5 -19q-27 0 -46 19zM44 341v52l8 8h392l8 -8v-52l-8 -8h-392zM201 161q-19 19 -19 46q0 28 19 47.5t46 19.5q28 0 47.5 -19.5t19.5 -47.5q0 -27 -19.5 -46t-47.5 -19
q-27 0 -46 19z" />
    <glyph glyph-name="oslash" unicode="&#xf8;" horiz-adv-x="600" 
d="M535 373q30 -56 30 -126q0 -76 -35 -135.5t-95.5 -92.5t-134.5 -33q-56 0 -107 20l-22 -40l-14 -4l-28 15l-3 12l23 40q-54 34 -84 90.5t-30 127.5q0 76 35 135.5t95.5 92.5t134.5 33q58 0 107 -20l22 38l14 4l28 -15l3 -12l-22 -39q53 -35 83 -91zM187 98l188 333
q-32 20 -75 20q-73 0 -113.5 -56t-40.5 -148q0 -94 41 -149zM413.5 99q40.5 56 40.5 148q0 93 -41 148l-187 -332q32 -20 74 -20q73 0 113.5 56z" />
    <glyph glyph-name="ugrave" unicode="&#xf9;" horiz-adv-x="619" 
d="M134.5 29.5q-48.5 43.5 -48.5 124.5v225q0 16 -11 26t-26 10h-14l-9 10v22l7 9l131 44h28l8 -8l-9 -79v-252q0 -52 27 -80t79 -28q37 0 67 19.5t47 52t17 71.5v183q0 16 -11 26t-27 10h-13l-9 10v22l7 9l131 44h28l8 -8l-9 -79v-294q0 -17 12 -28.5t28 -11.5h12l8 -8v-27
l-8 -8l-117 -46h-32l-8 8v75q-28 -41 -71.5 -64t-97.5 -23q-76 0 -124.5 43.5zM254 570l-125 120l4 10h114l13 -7l81 -121l-5 -9h-66z" />
    <glyph glyph-name="uacute" unicode="&#xfa;" horiz-adv-x="619" 
d="M134.5 29.5q-48.5 43.5 -48.5 124.5v225q0 16 -11 26t-26 10h-14l-9 10v22l7 9l131 44h28l8 -8l-9 -79v-252q0 -52 27 -80t79 -28q37 0 67 19.5t47 52t17 71.5v183q0 16 -11 26t-27 10h-13l-9 10v22l7 9l131 44h28l8 -8l-9 -79v-294q0 -17 12 -28.5t28 -11.5h12l8 -8v-27
l-8 -8l-117 -46h-32l-8 8v75q-28 -41 -71.5 -64t-97.5 -23q-76 0 -124.5 43.5zM263 572l81 121l13 7h114l4 -10l-125 -120l-16 -7h-66z" />
    <glyph glyph-name="ucircumflex" unicode="&#xfb;" horiz-adv-x="619" 
d="M134.5 29.5q-48.5 43.5 -48.5 124.5v225q0 16 -11 26t-26 10h-14l-9 10v22l7 9l131 44h28l8 -8l-9 -79v-252q0 -52 27 -80t79 -28q37 0 67 19.5t47 52t17 71.5v183q0 16 -11 26t-27 10h-13l-9 10v22l7 9l131 44h28l8 -8l-9 -79v-294q0 -17 12 -28.5t28 -11.5h12l8 -8v-27
l-8 -8l-117 -46h-32l-8 8v75q-28 -41 -71.5 -64t-97.5 -23q-76 0 -124.5 43.5zM147 572l85 120l13 8h114l13 -8l85 -120l-8 -9h-63l-5 2l-76 70h-7l-75 -70l-6 -2h-62z" />
    <glyph glyph-name="udieresis" unicode="&#xfc;" horiz-adv-x="619" 
d="M134.5 29.5q-48.5 43.5 -48.5 124.5v225q0 16 -11 26t-26 10h-14l-9 10v22l7 9l131 44h28l8 -8l-9 -79v-252q0 -52 27 -80t79 -28q37 0 67 19.5t47 52t17 71.5v183q0 16 -11 26t-27 10h-13l-9 10v22l7 9l131 44h28l8 -8l-9 -79v-294q0 -17 12 -28.5t28 -11.5h12l8 -8v-27
l-8 -8l-117 -46h-32l-8 8v75q-28 -41 -71.5 -64t-97.5 -23q-76 0 -124.5 43.5zM160 598q-19 19 -19 46q0 28 19 47.5t46 19.5t47 -19.5t20 -47.5q0 -27 -20 -46t-47 -19t-46 19zM350 598q-19 19 -19 46q0 28 19 47.5t46 19.5t47 -19.5t20 -47.5q0 -27 -20 -46t-47 -19
t-46 19z" />
    <glyph glyph-name="yacute" unicode="&#xfd;" horiz-adv-x="581" 
d="M139 -217l-15 31v12l137 204l-188 390q-11 20 -30 20h-21l-8 8v38l8 8h214l8 -8v-38l-8 -8h-18q-23 0 -23 -20q0 -10 6 -22l120 -251l118 251q7 14 7 23t-6.5 14t-17.5 5h-20l-8 8v38l8 8h157l8 -8v-38l-8 -8h-17q-25 0 -36 -26l-297 -628l-12 -12h-38zM280 572l81 121
l13 7h114l4 -10l-125 -120l-16 -7h-66z" />
    <glyph glyph-name="thorn" unicode="&#xfe;" horiz-adv-x="629" 
d="M28 -218v38l8 8h15q15 0 26 11t11 26v729q0 16 -11 26t-26 10h-13l-10 10v21l8 10l130 49h27l8 -8l-8 -75v-217q27 43 71 65.5t95 22.5q62 0 115.5 -30t86.5 -89t33 -142t-33.5 -142t-88 -89t-114.5 -30q-57 0 -98.5 21.5t-66.5 56.5v-199q0 -15 11 -26t26 -11h15l8 -8
v-38l-8 -8h-209zM446.5 100.5q37.5 58.5 37.5 146.5t-37.5 146.5t-108.5 58.5t-108 -58.5t-37 -146.5t37 -146.5t108 -58.5t108.5 58.5z" />
    <glyph glyph-name="ydieresis" unicode="&#xff;" horiz-adv-x="581" 
d="M139 -217l-15 31v12l137 204l-188 390q-11 20 -30 20h-21l-8 8v38l8 8h214l8 -8v-38l-8 -8h-18q-23 0 -23 -20q0 -10 6 -22l120 -251l118 251q7 14 7 23t-6.5 14t-17.5 5h-20l-8 8v38l8 8h157l8 -8v-38l-8 -8h-17q-25 0 -36 -26l-297 -628l-12 -12h-38zM176 598
q-19 19 -19 46q0 28 19 47.5t46 19.5t47 -19.5t20 -47.5q0 -27 -20 -46t-47 -19t-46 19zM366 598q-19 19 -19 46q0 28 19 47.5t46 19.5t47 -19.5t20 -47.5q0 -27 -20 -46t-47 -19t-46 19z" />
    <glyph glyph-name="Amacron" unicode="&#x100;" horiz-adv-x="761" 
d="M28 8v38l8 8h22q27 0 40 30l222 520q5 12 5 22q0 20 -22 20h-10l-8 8v38l8 8h168l8 -8v-38l-8 -8h-10q-22 0 -22 -20q0 -8 6 -22l228 -520q8 -19 17 -24.5t23 -5.5h22l8 -8v-38l-8 -8h-248l-8 8v38l8 8h30q13 0 20 6t7 16q0 8 -5 18l-23 56h-318l-23 -56q-5 -12 -5 -18
q0 -10 7 -16t20 -6h32l8 -8v-38l-8 -8h-183zM482 204l-134 320l-136 -320h270zM255 797v48l8 8h234l8 -8v-48l-8 -8h-234z" />
    <glyph glyph-name="amacron" unicode="&#x101;" horiz-adv-x="635" 
d="M152.5 15.5q-53.5 29.5 -85.5 88t-32 141.5q0 80 34 140t90.5 91.5t120.5 31.5q108 0 171 -83h5l45 69h35l8 -8v-367q0 -17 11.5 -28.5t27.5 -11.5h12l8 -8v-27l-8 -8l-114 -46h-32l-8 8v79q-62 -91 -171 -91q-64 0 -117.5 29.5zM398 100.5q37 58.5 37 146.5t-37 146.5
t-108 58.5q-72 0 -109 -58t-37 -147q0 -88 37 -146.5t109 -58.5q71 0 108 58.5zM166 591v48l8 8h234l8 -8v-48l-8 -8h-234z" />
    <glyph glyph-name="Abreve" unicode="&#x102;" horiz-adv-x="761" 
d="M28 8v38l8 8h22q27 0 40 30l222 520q5 12 5 22q0 20 -22 20h-10l-8 8v38l8 8h168l8 -8v-38l-8 -8h-10q-22 0 -22 -20q0 -8 6 -22l228 -520q8 -19 17 -24.5t23 -5.5h22l8 -8v-38l-8 -8h-248l-8 8v38l8 8h30q13 0 20 6t7 16q0 8 -5 18l-23 56h-318l-23 -56q-5 -12 -5 -18
q0 -10 7 -16t20 -6h32l8 -8v-38l-8 -8h-183zM482 204l-134 320l-136 -320h270zM289.5 799q-35.5 31 -37.5 84l8 8h24l9 -8q6 -18 29.5 -29.5t57.5 -11.5t57.5 11.5t29.5 29.5l10 8h23l8 -8q-2 -53 -37.5 -84t-90.5 -31t-90.5 31z" />
    <glyph glyph-name="abreve" unicode="&#x103;" horiz-adv-x="635" 
d="M152.5 15.5q-53.5 29.5 -85.5 88t-32 141.5q0 80 34 140t90.5 91.5t120.5 31.5q108 0 171 -83h5l45 69h35l8 -8v-367q0 -17 11.5 -28.5t27.5 -11.5h12l8 -8v-27l-8 -8l-114 -46h-32l-8 8v79q-62 -91 -171 -91q-64 0 -117.5 29.5zM398 100.5q37 58.5 37 146.5t-37 146.5
t-108 58.5q-72 0 -109 -58t-37 -147q0 -88 37 -146.5t109 -58.5q71 0 108 58.5zM200.5 593q-35.5 31 -37.5 84l8 8h24l9 -8q6 -15 29.5 -24.5t57.5 -9.5t57.5 9.5t29.5 24.5l10 8h23l8 -8q-2 -53 -37.5 -84t-90.5 -31t-90.5 31z" />
    <glyph glyph-name="Aogonek" unicode="&#x104;" horiz-adv-x="761" 
d="M816 -177l-1 -10q-19 -25 -48 -40.5t-66 -15.5q-53 0 -85.5 31t-32.5 81q0 39 22 73t60 58h-188l-8 8v38l8 8h30q13 0 20 6t7 16q0 8 -5 18l-23 56h-318l-23 -56q-5 -12 -5 -18q0 -10 7 -16t20 -6h32l8 -8v-38l-8 -8h-183l-8 8v38l8 8h22q27 0 40 30l222 520q5 12 5 22
q0 20 -22 20h-10l-8 8v38l8 8h168l8 -8v-38l-8 -8h-10q-22 0 -22 -20q0 -8 6 -22l228 -520q8 -19 17 -24.5t23 -5.5h22l8 -8v-38l-8 -8q-58 -56 -58 -114q0 -33 17 -50.5t45 -17.5q20 0 34.5 5t33.5 17l9 -3zM482 204l-134 320l-136 -320h270z" />
    <glyph glyph-name="aogonek" unicode="&#x105;" horiz-adv-x="635" 
d="M387.5 -205.5q-32.5 30.5 -32.5 81.5q0 39 22.5 72.5t63.5 56.5v73q-34 -48 -75 -70t-98 -22q-60 0 -113.5 28t-86.5 87t-33 146q0 79 34 138.5t90 91t120 31.5q109 0 172 -83h5l45 69h34l9 -9v-368q0 -16 12 -27t27 -11h11l9 -10v-23l-9 -10l-63 -26q-92 -36 -92 -115
q0 -35 17 -52.5t46 -17.5q20 0 35 5t33 17l9 -3l10 -14l-1 -10q-19 -25 -48.5 -40.5t-66.5 -15.5q-53 0 -85.5 30.5zM398 100.5q37 58.5 37 146.5t-37 146.5t-108 58.5q-72 0 -109 -58t-37 -147q0 -88 37 -146.5t109 -58.5q71 0 108 58.5z" />
    <glyph glyph-name="Cacute" unicode="&#x106;" horiz-adv-x="693" 
d="M217.5 30q-83.5 44 -132.5 127t-49 193t49 193t132.5 127t184.5 44q66 0 121.5 -14.5t95.5 -38.5l9 -11l10 -146l-8 -8h-54l-8 8l-2 18q-14 133 -162 133q-74 0 -130 -40t-86.5 -109.5t-30.5 -155.5t30.5 -155.5t86.5 -109.5t130 -40q64 0 109.5 34.5t52.5 98.5l2 18l8 8
h54l8 -8l-10 -146l-9 -11q-40 -24 -95.5 -38.5t-121.5 -14.5q-101 0 -184.5 44zM361 778l81 121l13 7h114l4 -10l-125 -120l-16 -7h-66z" />
    <glyph glyph-name="cacute" unicode="&#x107;" horiz-adv-x="527" 
d="M159 17q-56 31 -90 88.5t-34 134.5q0 82 37.5 143t100 93t133.5 32q88 0 150 -35l7 -10l5 -121l-8 -8h-37l-8 8v14q0 41 -29.5 68.5t-83.5 27.5q-76 0 -117 -56t-41 -139q0 -57 21.5 -101.5t59.5 -69.5t86 -25q52 0 91 26t64 74l9 4l13 -5l5 -9q-22 -72 -74 -118.5
t-140 -46.5q-64 0 -120 31zM261 572l81 121l13 7h114l4 -10l-125 -120l-16 -7h-66z" />
    <glyph glyph-name="Ccircumflex" unicode="&#x108;" horiz-adv-x="693" 
d="M217.5 30q-83.5 44 -132.5 127t-49 193t49 193t132.5 127t184.5 44q66 0 121.5 -14.5t95.5 -38.5l9 -11l10 -146l-8 -8h-54l-8 8l-2 18q-14 133 -162 133q-74 0 -130 -40t-86.5 -109.5t-30.5 -155.5t30.5 -155.5t86.5 -109.5t130 -40q64 0 109.5 34.5t52.5 98.5l2 18l8 8
h54l8 -8l-10 -146l-9 -11q-40 -24 -95.5 -38.5t-121.5 -14.5q-101 0 -184.5 44zM244 778l85 120l13 8h114l13 -8l85 -120l-8 -9h-63l-5 2l-76 70h-7l-75 -70l-6 -2h-62z" />
    <glyph glyph-name="ccircumflex" unicode="&#x109;" horiz-adv-x="527" 
d="M159 17q-56 31 -90 88.5t-34 134.5q0 82 37.5 143t100 93t133.5 32q88 0 150 -35l7 -10l5 -121l-8 -8h-37l-8 8v14q0 41 -29.5 68.5t-83.5 27.5q-76 0 -117 -56t-41 -139q0 -57 21.5 -101.5t59.5 -69.5t86 -25q52 0 91 26t64 74l9 4l13 -5l5 -9q-22 -72 -74 -118.5
t-140 -46.5q-64 0 -120 31zM144 572l85 120l13 8h114l13 -8l85 -120l-8 -9h-63l-5 2l-76 70h-7l-75 -70l-6 -2h-62z" />
    <glyph glyph-name="Cdotaccent" unicode="&#x10a;" horiz-adv-x="693" 
d="M217.5 30q-83.5 44 -132.5 127t-49 193t49 193t132.5 127t184.5 44q66 0 121.5 -14.5t95.5 -38.5l9 -11l10 -146l-8 -8h-54l-8 8l-2 18q-14 133 -162 133q-74 0 -130 -40t-86.5 -109.5t-30.5 -155.5t30.5 -155.5t86.5 -109.5t130 -40q64 0 109.5 34.5t52.5 98.5l2 18l8 8
h54l8 -8l-10 -146l-9 -11q-40 -24 -95.5 -38.5t-121.5 -14.5q-101 0 -184.5 44zM351 802q-20 20 -20 48q0 29 20 49t49 20q28 0 48 -20.5t20 -48.5t-20 -48t-48 -20q-29 0 -49 20z" />
    <glyph glyph-name="cdotaccent" unicode="&#x10b;" horiz-adv-x="527" 
d="M159 17q-56 31 -90 88.5t-34 134.5q0 82 37.5 143t100 93t133.5 32q88 0 150 -35l7 -10l5 -121l-8 -8h-37l-8 8v14q0 41 -29.5 68.5t-83.5 27.5q-76 0 -117 -56t-41 -139q0 -57 21.5 -101.5t59.5 -69.5t86 -25q52 0 91 26t64 74l9 4l13 -5l5 -9q-22 -72 -74 -118.5
t-140 -46.5q-64 0 -120 31zM251 596q-20 20 -20 48q0 29 20 49t49 20q28 0 48 -20.5t20 -48.5t-20 -48t-48 -20q-29 0 -49 20z" />
    <glyph glyph-name="Ccaron" unicode="&#x10c;" horiz-adv-x="693" 
d="M217.5 30q-83.5 44 -132.5 127t-49 193t49 193t132.5 127t184.5 44q66 0 121.5 -14.5t95.5 -38.5l9 -11l10 -146l-8 -8h-54l-8 8l-2 18q-14 133 -162 133q-74 0 -130 -40t-86.5 -109.5t-30.5 -155.5t30.5 -155.5t86.5 -109.5t130 -40q64 0 109.5 34.5t52.5 98.5l2 18l8 8
h54l8 -8l-10 -146l-9 -11q-40 -24 -95.5 -38.5t-121.5 -14.5q-101 0 -184.5 44zM329 777l-85 120l8 9h62l6 -2l75 -70h7l76 70l5 2h63l8 -9l-85 -120l-13 -8h-114z" />
    <glyph glyph-name="ccaron" unicode="&#x10d;" horiz-adv-x="527" 
d="M159 17q-56 31 -90 88.5t-34 134.5q0 82 37.5 143t100 93t133.5 32q88 0 150 -35l7 -10l5 -121l-8 -8h-37l-8 8v14q0 41 -29.5 68.5t-83.5 27.5q-76 0 -117 -56t-41 -139q0 -57 21.5 -101.5t59.5 -69.5t86 -25q52 0 91 26t64 74l9 4l13 -5l5 -9q-22 -72 -74 -118.5
t-140 -46.5q-64 0 -120 31zM229 571l-85 120l8 9h62l6 -2l75 -70h7l76 70l5 2h63l8 -9l-85 -120l-13 -8h-114z" />
    <glyph glyph-name="Dcaron" unicode="&#x10e;" horiz-adv-x="703" 
d="M36 8v38l8 8h32q15 0 27.5 12.5t12.5 27.5v512q0 15 -12.5 27.5t-27.5 12.5h-32l-8 8v38l8 8h266q95 0 176.5 -39.5t131 -118.5t49.5 -192t-49.5 -192t-131 -118.5t-176.5 -39.5h-266zM309 54q66 0 119.5 34t85.5 100.5t32 161.5t-32 161.5t-85.5 100.5t-119.5 34h-38
q-15 0 -27.5 -12.5t-12.5 -27.5v-512q0 -15 12.5 -27.5t27.5 -12.5h38zM286 777l-85 120l8 9h62l6 -2l75 -70h7l76 70l5 2h63l8 -9l-85 -120l-13 -8h-114z" />
    <glyph glyph-name="dcaron" unicode="&#x10f;" horiz-adv-x="760" 
d="M154 14q-53 28 -86 87t-33 146q0 79 34 138.5t90 91t120 31.5q96 0 156 -66v152q0 16 -11 26t-26 10h-13l-10 9v23l8 9l131 49h27l7 -7l-7 -76v-546q0 -15 10.5 -26t25.5 -11h16l8 -8v-38l-8 -8h-153l-8 8v55q-60 -77 -165 -77q-60 0 -113 28zM398 100.5
q37 58.5 37 146.5t-37 146.5t-108 58.5t-108 -58.5t-37 -146.5t37 -146.5t108 -58.5t108 58.5zM621 475l-7 11l2 10q28 17 41.5 39t14.5 42q-27 0 -45.5 19t-18.5 46q0 28 19 48t47 20q30 0 49.5 -21.5t19.5 -58.5q0 -55 -34 -96.5t-79 -60.5z" />
    <glyph glyph-name="Dcroat" unicode="&#x110;" horiz-adv-x="703" 
d="M36 8v38l8 8h32q15 0 27.5 12.5t12.5 27.5v230h-82l-8 8v37l8 8h82v229q0 15 -12.5 27.5t-27.5 12.5h-32l-8 8v38l8 8h266q95 0 176.5 -39.5t131 -118.5t49.5 -192t-49.5 -192t-131 -118.5t-176.5 -39.5h-266zM309 54q66 0 119.5 34t85.5 100.5t32 161.5t-32 161.5
t-85.5 100.5t-119.5 34h-38q-15 0 -27.5 -12.5t-12.5 -27.5v-229h107l8 -8v-37l-8 -8h-107v-230q0 -15 12.5 -27.5t27.5 -12.5h38z" />
    <glyph glyph-name="dcroat" unicode="&#x111;" horiz-adv-x="627" 
d="M154 14q-53 28 -86 87t-33 146q0 79 34 138.5t90 91t120 31.5q96 0 156 -66v95h-129l-8 8v30l8 8h129v11q0 16 -11 26t-26 10h-13l-10 10v21l8 10l131 49h27l7 -8l-7 -75v-54h42l8 -8v-30l-8 -8h-42v-446q0 -15 10.5 -26t25.5 -11h16l8 -8v-38l-8 -8h-152l-8 8v56
q-59 -78 -166 -78q-60 0 -113 28zM398 100.5q37 58.5 37 146.5t-37 146.5t-108 58.5t-108 -58.5t-37 -146.5t37 -146.5t108 -58.5t108 58.5z" />
    <glyph glyph-name="Emacron" unicode="&#x112;" horiz-adv-x="605" 
d="M36 8v38l8 8h32q15 0 27.5 12.5t12.5 27.5v512q0 15 -12.5 27.5t-27.5 12.5h-32l-8 8v38l8 8h485l9 -9v-31l-25 -109l-8 -8h-32l-8 8q-12 95 -91 95h-103q-15 0 -27.5 -12.5t-12.5 -27.5v-219h134q15 0 27.5 13t12.5 27v12l8 8h38l8 -8v-158l-8 -8h-38l-8 8v12
q0 15 -12.5 27.5t-27.5 12.5h-134v-239q0 -15 12.5 -27.5t27.5 -12.5h109q125 0 142 131l8 8h39l6 -8l-15 -177l-8 -8h-508zM184 797v48l8 8h234l8 -8v-48l-8 -8h-234z" />
    <glyph glyph-name="emacron" unicode="&#x113;" horiz-adv-x="566" 
d="M156.5 21.5q-58.5 35.5 -90 95t-31.5 130.5q0 72 33 131.5t91 94.5t131 35q77 0 131.5 -35.5t81.5 -95t27 -130.5l-8 -8h-385q0 -47 22.5 -87t63.5 -63t92 -23q122 0 188 109l9 4l13 -5l4 -9q-23 -80 -86 -129.5t-149 -49.5q-79 0 -137.5 35.5zM386 295q34 0 34 32
q0 53 -35.5 89.5t-94.5 36.5q-44 0 -78 -21.5t-53 -56t-22 -72.5l8 -8h241zM165 591v48l8 8h234l8 -8v-48l-8 -8h-234z" />
    <glyph glyph-name="Ebreve" unicode="&#x114;" horiz-adv-x="605" 
d="M36 8v38l8 8h32q15 0 27.5 12.5t12.5 27.5v512q0 15 -12.5 27.5t-27.5 12.5h-32l-8 8v38l8 8h485l9 -9v-31l-25 -109l-8 -8h-32l-8 8q-12 95 -91 95h-103q-15 0 -27.5 -12.5t-12.5 -27.5v-219h134q15 0 27.5 13t12.5 27v12l8 8h38l8 -8v-158l-8 -8h-38l-8 8v12
q0 15 -12.5 27.5t-27.5 12.5h-134v-239q0 -15 12.5 -27.5t27.5 -12.5h109q125 0 142 131l8 8h39l6 -8l-15 -177l-8 -8h-508zM218.5 799q-35.5 31 -37.5 84l8 8h24l9 -8q6 -18 29.5 -29.5t57.5 -11.5t57.5 11.5t29.5 29.5l10 8h23l8 -8q-2 -53 -37.5 -84t-90.5 -31t-90.5 31z
" />
    <glyph glyph-name="ebreve" unicode="&#x115;" horiz-adv-x="566" 
d="M156.5 21.5q-58.5 35.5 -90 95t-31.5 130.5q0 72 33 131.5t91 94.5t131 35q77 0 131.5 -35.5t81.5 -95t27 -130.5l-8 -8h-385q0 -47 22.5 -87t63.5 -63t92 -23q122 0 188 109l9 4l13 -5l4 -9q-23 -80 -86 -129.5t-149 -49.5q-79 0 -137.5 35.5zM386 295q34 0 34 32
q0 53 -35.5 89.5t-94.5 36.5q-44 0 -78 -21.5t-53 -56t-22 -72.5l8 -8h241zM199.5 593q-35.5 31 -37.5 84l8 8h24l9 -8q6 -15 29.5 -24.5t57.5 -9.5t57.5 9.5t29.5 24.5l10 8h23l8 -8q-2 -53 -37.5 -84t-90.5 -31t-90.5 31z" />
    <glyph glyph-name="Edotaccent" unicode="&#x116;" horiz-adv-x="605" 
d="M36 8v38l8 8h32q15 0 27.5 12.5t12.5 27.5v512q0 15 -12.5 27.5t-27.5 12.5h-32l-8 8v38l8 8h485l9 -9v-31l-25 -109l-8 -8h-32l-8 8q-12 95 -91 95h-103q-15 0 -27.5 -12.5t-12.5 -27.5v-219h134q15 0 27.5 13t12.5 27v12l8 8h38l8 -8v-158l-8 -8h-38l-8 8v12
q0 15 -12.5 27.5t-27.5 12.5h-134v-239q0 -15 12.5 -27.5t27.5 -12.5h109q125 0 142 131l8 8h39l6 -8l-15 -177l-8 -8h-508zM261 802q-20 20 -20 48q0 29 20 49t49 20q28 0 48 -20.5t20 -48.5t-20 -48t-48 -20q-29 0 -49 20z" />
    <glyph glyph-name="edotaccent" unicode="&#x117;" horiz-adv-x="566" 
d="M156.5 21.5q-58.5 35.5 -90 95t-31.5 130.5q0 72 33 131.5t91 94.5t131 35q77 0 131.5 -35.5t81.5 -95t27 -130.5l-8 -8h-385q0 -47 22.5 -87t63.5 -63t92 -23q122 0 188 109l9 4l13 -5l4 -9q-23 -80 -86 -129.5t-149 -49.5q-79 0 -137.5 35.5zM386 295q34 0 34 32
q0 53 -35.5 89.5t-94.5 36.5q-44 0 -78 -21.5t-53 -56t-22 -72.5l8 -8h241zM242 596q-20 20 -20 48q0 29 20 49t49 20q28 0 48 -20.5t20 -48.5t-20 -48t-48 -20q-29 0 -49 20z" />
    <glyph glyph-name="Eogonek" unicode="&#x118;" horiz-adv-x="605" 
d="M643 -177l-1 -10q-19 -25 -48 -40.5t-66 -15.5q-53 0 -85.5 31t-32.5 81q0 39 22 73t60 58h-448l-8 8v38l8 8h32q15 0 27.5 12.5t12.5 27.5v512q0 15 -12.5 27.5t-27.5 12.5h-32l-8 8v38l8 8h485l9 -9v-31l-25 -109l-8 -8h-32l-8 8q-12 95 -91 95h-103q-15 0 -27.5 -12.5
t-12.5 -27.5v-219h134q15 0 27.5 13t12.5 27v12l8 8h38l8 -8v-158l-8 -8h-38l-8 8v12q0 15 -12.5 27.5t-27.5 12.5h-134v-239q0 -15 12.5 -27.5t27.5 -12.5h109q125 0 142 131l8 8h39l6 -8l-15 -177l-8 -8q-58 -56 -58 -114q0 -33 17 -50.5t45 -17.5q20 0 34.5 5t33.5 17
l9 -3z" />
    <glyph glyph-name="eogonek" unicode="&#x119;" horiz-adv-x="565" 
d="M273.5 -210q-32.5 30 -32.5 79q0 35 15.5 65t46.5 52q-83 -1 -144 34t-93 95t-32 132t33 131.5t91 94.5t131 35q77 0 131.5 -35.5t81.5 -95t27 -130.5l-8 -8h-385q0 -47 22.5 -87t63.5 -63t92 -23q122 0 188 109l10 4l11 -4l5 -10q-16 -53 -49.5 -94t-78.5 -61
q-36 -18 -56 -47.5t-20 -68.5q0 -33 19 -53t50 -20q16 0 30 5t33 17l9 -3l10 -14l-1 -10q-19 -25 -48.5 -40.5t-66.5 -15.5q-53 0 -85.5 30zM385 295q34 0 34 32q0 53 -35.5 90t-94.5 37q-44 0 -78 -21.5t-53 -56.5t-22 -73l8 -8h241z" />
    <glyph glyph-name="Ecaron" unicode="&#x11a;" horiz-adv-x="605" 
d="M36 8v38l8 8h32q15 0 27.5 12.5t12.5 27.5v512q0 15 -12.5 27.5t-27.5 12.5h-32l-8 8v38l8 8h485l9 -9v-31l-25 -109l-8 -8h-32l-8 8q-12 95 -91 95h-103q-15 0 -27.5 -12.5t-12.5 -27.5v-219h134q15 0 27.5 13t12.5 27v12l8 8h38l8 -8v-158l-8 -8h-38l-8 8v12
q0 15 -12.5 27.5t-27.5 12.5h-134v-239q0 -15 12.5 -27.5t27.5 -12.5h109q125 0 142 131l8 8h39l6 -8l-15 -177l-8 -8h-508zM240 777l-85 120l8 9h62l6 -2l75 -70h7l76 70l5 2h63l8 -9l-85 -120l-13 -8h-114z" />
    <glyph glyph-name="ecaron" unicode="&#x11b;" horiz-adv-x="566" 
d="M156.5 21.5q-58.5 35.5 -90 95t-31.5 130.5q0 72 33 131.5t91 94.5t131 35q77 0 131.5 -35.5t81.5 -95t27 -130.5l-8 -8h-385q0 -47 22.5 -87t63.5 -63t92 -23q122 0 188 109l9 4l13 -5l4 -9q-23 -80 -86 -129.5t-149 -49.5q-79 0 -137.5 35.5zM386 295q34 0 34 32
q0 53 -35.5 89.5t-94.5 36.5q-44 0 -78 -21.5t-53 -56t-22 -72.5l8 -8h241zM220 571l-85 120l8 9h62l6 -2l75 -70h7l76 70l5 2h63l8 -9l-85 -120l-13 -8h-114z" />
    <glyph glyph-name="Gcircumflex" unicode="&#x11c;" horiz-adv-x="795" 
d="M215.5 33q-83.5 47 -131.5 130t-48 187t50 187t136.5 130t191.5 47q133 0 218 -58l9 -11l9 -146l-8 -8h-48l-8 8l-2 18q-7 63 -50.5 99t-120.5 36q-80 0 -138 -41.5t-88 -110.5t-30 -150q0 -79 29.5 -148.5t86 -111.5t133.5 -42q72 0 119.5 34.5t47.5 90.5v108
q0 15 -12.5 27.5t-27.5 12.5h-120l-8 8v38l8 8h346l8 -8v-38l-8 -8h-31q-15 0 -27.5 -12.5t-12.5 -27.5v-168l-8 -17q-128 -110 -278 -110q-103 0 -186.5 47zM249 778l85 120l13 8h114l13 -8l85 -120l-8 -9h-63l-5 2l-76 70h-7l-75 -70l-6 -2h-62z" />
    <glyph glyph-name="gcircumflex" unicode="&#x11d;" horiz-adv-x="542" 
d="M519 485v-44l-9 -9h-81q40 -50 40 -111q0 -51 -28 -94t-77 -68t-110 -25q-22 0 -38 3t-36 11l-43 -59h198q84 0 129 -37.5t45 -103.5q0 -57 -37 -99.5t-97.5 -65.5t-130.5 -23q-99 0 -152.5 38.5t-53.5 98.5q0 31 18 60.5t50 49.5h-67l-8 7v41l94 120q-37 25 -59 62.5
t-22 83.5q0 51 28 94t76.5 68t108.5 25q44 0 84 -14h169zM334.5 224q31.5 35 31.5 97t-31.5 97t-77.5 35q-47 0 -79 -34.5t-32 -97.5t32 -97.5t79 -34.5q46 0 77.5 35zM143 -31q-16 -25 -16 -55q0 -47 36 -73t97 -26q66 0 106 32t40 80q0 35 -23.5 57.5t-75.5 22.5h-122
q-26 -13 -42 -38zM102 572l85 120l13 8h114l13 -8l85 -120l-8 -9h-63l-5 2l-76 70h-7l-75 -70l-6 -2h-62z" />
    <glyph glyph-name="Gbreve" unicode="&#x11e;" horiz-adv-x="795" 
d="M215.5 33q-83.5 47 -131.5 130t-48 187t50 187t136.5 130t191.5 47q133 0 218 -58l9 -11l9 -146l-8 -8h-48l-8 8l-2 18q-7 63 -50.5 99t-120.5 36q-80 0 -138 -41.5t-88 -110.5t-30 -150q0 -79 29.5 -148.5t86 -111.5t133.5 -42q72 0 119.5 34.5t47.5 90.5v108
q0 15 -12.5 27.5t-27.5 12.5h-120l-8 8v38l8 8h346l8 -8v-38l-8 -8h-31q-15 0 -27.5 -12.5t-12.5 -27.5v-168l-8 -17q-128 -110 -278 -110q-103 0 -186.5 47zM312.5 799q-35.5 31 -37.5 84l8 8h24l9 -8q6 -18 29.5 -29.5t57.5 -11.5t57.5 11.5t29.5 29.5l10 8h23l8 -8
q-2 -53 -37.5 -84t-90.5 -31t-90.5 31z" />
    <glyph glyph-name="gbreve" unicode="&#x11f;" horiz-adv-x="542" 
d="M519 485v-44l-9 -9h-81q40 -50 40 -111q0 -51 -28 -94t-77 -68t-110 -25q-22 0 -38 3t-36 11l-43 -59h198q84 0 129 -37.5t45 -103.5q0 -57 -37 -99.5t-97.5 -65.5t-130.5 -23q-99 0 -152.5 38.5t-53.5 98.5q0 31 18 60.5t50 49.5h-67l-8 7v41l94 120q-37 25 -59 62.5
t-22 83.5q0 51 28 94t76.5 68t108.5 25q44 0 84 -14h169zM334.5 224q31.5 35 31.5 97t-31.5 97t-77.5 35q-47 0 -79 -34.5t-32 -97.5t32 -97.5t79 -34.5q46 0 77.5 35zM143 -31q-16 -25 -16 -55q0 -47 36 -73t97 -26q66 0 106 32t40 80q0 35 -23.5 57.5t-75.5 22.5h-122
q-26 -13 -42 -38zM165.5 593q-35.5 31 -37.5 84l8 8h24l9 -8q6 -15 29.5 -24.5t57.5 -9.5t57.5 9.5t29.5 24.5l10 8h23l8 -8q-2 -53 -37.5 -84t-90.5 -31t-90.5 31z" />
    <glyph glyph-name="Gdotaccent" unicode="&#x120;" horiz-adv-x="795" 
d="M215.5 33q-83.5 47 -131.5 130t-48 187t50 187t136.5 130t191.5 47q133 0 218 -58l9 -11l9 -146l-8 -8h-48l-8 8l-2 18q-7 63 -50.5 99t-120.5 36q-80 0 -138 -41.5t-88 -110.5t-30 -150q0 -79 29.5 -148.5t86 -111.5t133.5 -42q72 0 119.5 34.5t47.5 90.5v108
q0 15 -12.5 27.5t-27.5 12.5h-120l-8 8v38l8 8h346l8 -8v-38l-8 -8h-31q-15 0 -27.5 -12.5t-12.5 -27.5v-168l-8 -17q-128 -110 -278 -110q-103 0 -186.5 47zM355 802q-20 20 -20 48q0 29 20 49t49 20q28 0 48 -20.5t20 -48.5t-20 -48t-48 -20q-29 0 -49 20z" />
    <glyph glyph-name="gdotaccent" unicode="&#x121;" horiz-adv-x="542" 
d="M519 485v-44l-9 -9h-81q40 -50 40 -111q0 -51 -28 -94t-77 -68t-110 -25q-22 0 -38 3t-36 11l-43 -59h198q84 0 129 -37.5t45 -103.5q0 -57 -37 -99.5t-97.5 -65.5t-130.5 -23q-99 0 -152.5 38.5t-53.5 98.5q0 31 18 60.5t50 49.5h-67l-8 7v41l94 120q-37 25 -59 62.5
t-22 83.5q0 51 28 94t76.5 68t108.5 25q44 0 84 -14h169zM334.5 224q31.5 35 31.5 97t-31.5 97t-77.5 35q-47 0 -79 -34.5t-32 -97.5t32 -97.5t79 -34.5q46 0 77.5 35zM143 -31q-16 -25 -16 -55q0 -47 36 -73t97 -26q66 0 106 32t40 80q0 35 -23.5 57.5t-75.5 22.5h-122
q-26 -13 -42 -38zM208 596q-20 20 -20 48q0 29 20 49t49 20q28 0 48 -20.5t20 -48.5t-20 -48t-48 -20q-29 0 -49 20z" />
    <glyph glyph-name="uni0122" unicode="&#x122;" horiz-adv-x="795" 
d="M215.5 33q-83.5 47 -131.5 130t-48 187t50 187t136.5 130t191.5 47q133 0 218 -58l9 -11l9 -146l-8 -8h-48l-8 8l-2 18q-7 63 -50.5 99t-120.5 36q-80 0 -138 -41.5t-88 -110.5t-30 -150q0 -79 29.5 -148.5t86 -111.5t133.5 -42q72 0 119.5 34.5t47.5 90.5v108
q0 15 -12.5 27.5t-27.5 12.5h-120l-8 8v38l8 8h346l8 -8v-38l-8 -8h-31q-15 0 -27.5 -12.5t-12.5 -27.5v-168l-8 -17q-128 -110 -278 -110q-103 0 -186.5 47zM343 -309l-7 11l2 11q28 17 41.5 38.5t14.5 41.5q-26 1 -45 20t-19 46t19.5 47t46.5 20q30 0 49.5 -21.5
t19.5 -57.5q0 -56 -33.5 -97t-79.5 -61z" />
    <glyph glyph-name="uni0123" unicode="&#x123;" horiz-adv-x="542" 
d="M519 485v-44l-9 -9h-81q40 -50 40 -111q0 -51 -28 -94t-77 -68t-110 -25q-22 0 -38 3t-36 11l-43 -59h198q84 0 129 -37.5t45 -103.5q0 -57 -37 -99.5t-97.5 -65.5t-130.5 -23q-99 0 -152.5 38.5t-53.5 98.5q0 31 18 60.5t50 49.5h-67l-8 7v41l94 120q-37 25 -59 62.5
t-22 83.5q0 51 28 94t76.5 68t108.5 25q44 0 84 -14h169zM334.5 224q31.5 35 31.5 97t-31.5 97t-77.5 35q-47 0 -79 -34.5t-32 -97.5t32 -97.5t79 -34.5q46 0 77.5 35zM143 -31q-16 -25 -16 -55q0 -47 36 -73t97 -26q66 0 106 32t40 80q0 35 -23.5 57.5t-75.5 22.5h-122
q-26 -13 -42 -38zM207 585.5q-19 21.5 -19 57.5q0 56 33.5 97t79.5 61l9 -2l7 -11l-2 -11q-28 -17 -41.5 -38.5t-14.5 -41.5q26 -1 45 -20t19 -46q0 -28 -19 -47.5t-47 -19.5q-31 0 -50 21.5z" />
    <glyph glyph-name="Hcircumflex" unicode="&#x124;" horiz-adv-x="767" 
d="M36 8v38l8 8h32q15 0 27.5 12.5t12.5 27.5v512q0 15 -12.5 27.5t-27.5 12.5h-32l-8 8v38l8 8h259l8 -8v-38l-8 -8h-32q-15 0 -27.5 -12.5t-12.5 -27.5v-209h305v209q0 15 -12.5 27.5t-27.5 12.5h-32l-8 8v38l8 8h259l8 -8v-38l-8 -8h-32q-15 0 -27.5 -12.5t-12.5 -27.5
v-512q0 -15 12.5 -27.5t27.5 -12.5h32l8 -8v-38l-8 -8h-259l-8 8v38l8 8h32q15 0 27.5 12.5t12.5 27.5v249h-305v-249q0 -15 12.5 -27.5t27.5 -12.5h32l8 -8v-38l-8 -8h-259zM229 778l85 120l13 8h114l13 -8l85 -120l-8 -9h-63l-5 2l-76 70h-7l-75 -70l-6 -2h-62z" />
    <glyph glyph-name="hcircumflex" unicode="&#x125;" horiz-adv-x="629" 
d="M32 8v38l8 8h15q15 0 26 11t11 26v503q0 16 -11 26t-26 10h-14l-9 9v23l7 9l131 49h28l7 -7l-8 -76v-216q29 41 72 64t95 23q80 0 127.5 -44t47.5 -124v-249q0 -15 11 -26t26 -11h15l8 -8v-38l-8 -8h-209l-8 8v38l8 8h15q15 0 26 11t11 26v242q0 51 -26.5 81t-77.5 30
q-40 0 -70 -21t-46.5 -56.5t-16.5 -76.5v-199q0 -15 11 -26t26 -11h15l8 -8v-38l-8 -8h-209zM159 798l85 120l13 8h114l13 -8l85 -120l-8 -9h-63l-5 2l-76 70h-7l-75 -70l-6 -2h-62z" />
    <glyph glyph-name="Hbar" unicode="&#x126;" horiz-adv-x="767" 
d="M651 483v-389q0 -15 12.5 -27.5t27.5 -12.5h32l8 -8v-38l-8 -8h-259l-8 8v38l8 8h32q15 0 27.5 12.5t12.5 27.5v249h-305v-249q0 -15 12.5 -27.5t27.5 -12.5h32l8 -8v-38l-8 -8h-259l-8 8v38l8 8h32q15 0 27.5 12.5t12.5 27.5v389h-77l-8 8v38l8 8h77v69q0 15 -12.5 27.5
t-27.5 12.5h-32l-8 8v38l8 8h259l8 -8v-38l-8 -8h-32q-15 0 -27.5 -12.5t-12.5 -27.5v-69h305v69q0 15 -12.5 27.5t-27.5 12.5h-32l-8 8v38l8 8h259l8 -8v-38l-8 -8h-32q-15 0 -27.5 -12.5t-12.5 -27.5v-69h77l8 -8v-38l-8 -8h-77zM536 483h-305v-86h305v86z" />
    <glyph glyph-name="hbar" unicode="&#x127;" horiz-adv-x="625" 
d="M599 46v-38l-8 -8h-209l-8 8v38l8 8h15q15 0 26 11t11 26v242q0 51 -26.5 81t-77.5 30q-40 0 -70 -21t-46.5 -56.5t-16.5 -76.5v-199q0 -15 11 -26t26 -11h15l8 -8v-38l-8 -8h-209l-8 8v38l8 8h15q15 0 26 11t11 26v446h-61l-8 8v30l8 8h61v11q0 16 -11 26t-26 10h-14
l-9 9v23l7 9l131 49h28l7 -7l-8 -76v-54h106l8 -8v-30l-8 -8h-106v-116q29 41 72 64t95 23q80 0 127.5 -44t47.5 -124v-249q0 -15 11 -26t26 -11h15z" />
    <glyph glyph-name="Itilde" unicode="&#x128;" horiz-adv-x="347" 
d="M36 8v38l8 8h32q15 0 27.5 12.5t12.5 27.5v512q0 15 -12.5 27.5t-27.5 12.5h-31l-9 9v36l9 9h257l9 -9v-36l-9 -9h-31q-15 0 -27.5 -12.5t-12.5 -27.5v-512q0 -15 12.5 -27.5t27.5 -12.5h32l8 -8v-38l-8 -8h-259zM197 776q-20 9 -45 26q-22 14 -36 21t-31 7
q-23 0 -36.5 -13.5t-18.5 -33.5l-8 -8h-17l-8 8q2 55 33 86.5t75 31.5q25 0 44.5 -9t46.5 -26q23 -14 37 -21t30 -7q22 0 35 14t18 33l8 8h17l8 -8q-1 -56 -31.5 -87t-74.5 -31q-26 0 -46 9z" />
    <glyph glyph-name="itilde" unicode="&#x129;" horiz-adv-x="297" 
d="M36 8v38l8 8h15q15 0 26 11t11 26v277q0 16 -11 26t-26 10h-13l-10 10v21l8 10l130 49h27l8 -8l-8 -75v-320q0 -15 11 -26t26 -11h15l8 -8v-38l-8 -8h-209zM172 570q-20 9 -45 26q-22 14 -36 21t-31 7q-23 0 -36.5 -13.5t-18.5 -33.5l-8 -8h-17l-8 8q2 55 33 86.5
t75 31.5q25 0 44.5 -9t46.5 -26q23 -14 37 -21t30 -7q22 0 35 14t18 33l8 8h17l8 -8q-1 -56 -31.5 -87t-74.5 -31q-26 0 -46 9z" />
    <glyph glyph-name="Imacron" unicode="&#x12a;" horiz-adv-x="347" 
d="M36 8v38l8 8h32q15 0 27.5 12.5t12.5 27.5v512q0 15 -12.5 27.5t-27.5 12.5h-31l-9 9v36l9 9h257l9 -9v-36l-9 -9h-31q-15 0 -27.5 -12.5t-12.5 -27.5v-512q0 -15 12.5 -27.5t27.5 -12.5h32l8 -8v-38l-8 -8h-259zM49 797v48l8 8h234l8 -8v-48l-8 -8h-234z" />
    <glyph glyph-name="imacron" unicode="&#x12b;" horiz-adv-x="297" 
d="M36 8v38l8 8h15q15 0 26 11t11 26v277q0 16 -11 26t-26 10h-13l-10 10v21l8 10l130 49h27l8 -8l-8 -75v-320q0 -15 11 -26t26 -11h15l8 -8v-38l-8 -8h-209zM24 591v48l8 8h234l8 -8v-48l-8 -8h-234z" />
    <glyph glyph-name="Ibreve" unicode="&#x12c;" horiz-adv-x="347" 
d="M36 8v38l8 8h32q15 0 27.5 12.5t12.5 27.5v512q0 15 -12.5 27.5t-27.5 12.5h-31l-9 9v36l9 9h257l9 -9v-36l-9 -9h-31q-15 0 -27.5 -12.5t-12.5 -27.5v-512q0 -15 12.5 -27.5t27.5 -12.5h32l8 -8v-38l-8 -8h-259zM82.5 799q-35.5 31 -37.5 84l8 8h24l9 -8
q6 -18 29.5 -29.5t57.5 -11.5t57.5 11.5t29.5 29.5l10 8h23l8 -8q-2 -53 -37.5 -84t-90.5 -31t-90.5 31z" />
    <glyph glyph-name="ibreve" unicode="&#x12d;" horiz-adv-x="297" 
d="M36 8v38l8 8h15q15 0 26 11t11 26v277q0 16 -11 26t-26 10h-13l-10 10v21l8 10l130 49h27l8 -8l-8 -75v-320q0 -15 11 -26t26 -11h15l8 -8v-38l-8 -8h-209zM57.5 593q-35.5 31 -37.5 84l8 8h24l9 -8q6 -15 29.5 -24.5t57.5 -9.5t57.5 9.5t29.5 24.5l10 8h23l8 -8
q-2 -53 -37.5 -84t-90.5 -31t-90.5 31z" />
    <glyph glyph-name="Iogonek" unicode="&#x12e;" horiz-adv-x="347" 
d="M394 -177l-1 -10q-19 -25 -48 -40.5t-66 -15.5q-53 0 -85.5 31t-32.5 81q0 39 22 73t60 58h-199l-8 8v38l8 8h32q15 0 27.5 12.5t12.5 27.5v512q0 15 -12.5 27.5t-27.5 12.5h-31l-9 9v36l9 9h257l9 -9v-36l-9 -9h-31q-15 0 -27.5 -12.5t-12.5 -27.5v-512
q0 -15 12.5 -27.5t27.5 -12.5h32l8 -8v-38l-8 -8q-58 -56 -58 -114q0 -33 17 -50.5t45 -17.5q20 0 34.5 5t33.5 17l9 -3z" />
    <glyph glyph-name="iogonek" unicode="&#x12f;" horiz-adv-x="297" 
d="M100 596q-20 20 -20 48q0 29 20.5 49t48.5 20t48 -20.5t20 -48.5t-20 -48t-48 -20q-29 0 -49 20zM352 -169l-1 -10q-19 -25 -48 -40.5t-66 -15.5q-53 0 -85.5 31t-32.5 81q0 35 18.5 67t51.5 56h-145l-8 8v38l8 8h15q15 0 26 11t11 26v277q0 16 -11 26t-26 10h-13l-10 10
v21l8 10l130 49h27l8 -8l-8 -75v-320q0 -15 11 -26t26 -11h15l8 -8v-38l-6 -6q-52 -54 -52 -108q0 -33 17 -50.5t45 -17.5q20 0 34.5 5t33.5 17l9 -3z" />
    <glyph glyph-name="Idotaccent" unicode="&#x130;" horiz-adv-x="347" 
d="M36 8v38l8 8h32q15 0 27.5 12.5t12.5 27.5v512q0 15 -12.5 27.5t-27.5 12.5h-31l-9 9v36l9 9h257l9 -9v-36l-9 -9h-31q-15 0 -27.5 -12.5t-12.5 -27.5v-512q0 -15 12.5 -27.5t27.5 -12.5h32l8 -8v-38l-8 -8h-259zM125 802q-20 20 -20 48q0 29 20 49t49 20q28 0 48 -20.5
t20 -48.5t-20 -48t-48 -20q-29 0 -49 20z" />
    <glyph glyph-name="dotlessi" unicode="&#x131;" horiz-adv-x="297" 
d="M36 8v38l8 8h15q15 0 26 11t11 26v277q0 16 -11 26t-26 10h-13l-10 10v21l8 10l130 49h27l8 -8l-8 -75v-320q0 -15 11 -26t26 -11h15l8 -8v-38l-8 -8h-209z" />
    <glyph glyph-name="IJ" unicode="&#x132;" horiz-adv-x="738" 
d="M36 8v38l8 8h32q15 0 27.5 12.5t12.5 27.5v512q0 15 -12.5 27.5t-27.5 12.5h-31l-9 9v36l9 9h257l9 -9v-36l-9 -9h-31q-15 0 -27.5 -12.5t-12.5 -27.5v-512q0 -15 12.5 -27.5t27.5 -12.5h32l8 -8v-38l-8 -8h-259zM386 19q-38 33 -38 93l8 8h25l8 -8q2 -27 23 -46.5
t50 -19.5q27 0 42 18.5t15 52.5v489q0 15 -12.5 27.5t-27.5 12.5h-32l-8 8v38l8 8h259l8 -8v-38l-8 -8h-32q-15 0 -27.5 -12.5t-12.5 -27.5v-467q0 -71 -40 -112t-114 -41q-56 0 -94 33z" />
    <glyph glyph-name="ij" unicode="&#x133;" horiz-adv-x="537" 
d="M100.5 596.5q-20.5 20.5 -20.5 48.5q0 29 20.5 49t48.5 20q29 0 49 -20t20 -49q0 -28 -20 -48.5t-49 -20.5q-28 0 -48.5 20.5zM383 596q-20 20 -20 49t20 49t48 20q29 0 49.5 -20.5t20.5 -48.5t-20.5 -48.5t-49.5 -20.5q-28 0 -48 20zM286 -221q-22 19 -22 50
q0 26 17.5 44.5t46.5 18.5t46.5 -20t16.5 -53q23 12 32 35t9 57l-7 10l-39 17l-7 9v91q-19 -24 -48.5 -38t-67.5 -14q-75 0 -121 44.5t-46 126.5v211q0 16 -11 26t-26 10h-13l-10 10v21l8 10l130 49h27l8 -8l-8 -75v-269q0 -45 22.5 -72t64.5 -27q41 0 66 28.5t25 66.5v230
q0 16 -11 26t-27 10h-12l-10 10v21l8 10l130 49h27l8 -8l-8 -75v-488q0 -85 -40.5 -124t-98.5 -39q-37 0 -59 19z" />
    <glyph glyph-name="Jcircumflex" unicode="&#x134;" horiz-adv-x="413" 
d="M61 19q-38 33 -38 93l8 8h25l8 -8q2 -27 23 -46.5t50 -19.5q27 0 42 18.5t15 52.5v489q0 15 -12.5 27.5t-27.5 12.5h-32l-8 8v38l8 8h259l8 -8v-38l-8 -8h-32q-15 0 -27.5 -12.5t-12.5 -27.5v-467q0 -71 -40 -112t-114 -41q-56 0 -94 33zM95 778l85 120l13 8h114l13 -8
l85 -120l-8 -9h-63l-5 2l-76 70h-7l-75 -70l-6 -2h-62z" />
    <glyph glyph-name="jcircumflex" unicode="&#x135;" horiz-adv-x="236" 
d="M-15 -221q-22 19 -22 50q0 26 18 44.5t46 18.5q30 0 47.5 -20t16.5 -53q41 22 41 92l-7 10l-40 17l-7 9v421q0 16 -11 26t-26 10h-13l-10 10v21l8 10l130 49h27l8 -8l-8 -75v-488q0 -85 -40.5 -124t-98.5 -39q-37 0 -59 19zM-24 572l85 120l13 8h114l13 -8l85 -120l-8 -9
h-63l-5 2l-76 70h-7l-75 -70l-6 -2h-62z" />
    <glyph glyph-name="uni0136" unicode="&#x136;" horiz-adv-x="694" 
d="M670 46v-38l-8 -8h-153l-13 8l-247 301l-18 -21v-194q0 -15 12.5 -27.5t27.5 -12.5h32l8 -8v-38l-8 -8h-259l-8 8v38l8 8h32q15 0 27.5 12.5t12.5 27.5v512q0 15 -12.5 27.5t-27.5 12.5h-31l-9 9v36l9 9h257l9 -9v-36l-9 -9h-31q-15 0 -27.5 -12.5t-12.5 -27.5v-236
l228 246q9 11 9 17q0 13 -17 13h-25l-8 8v38l8 8h175l8 -8v-38l-8 -8h-14q-15 0 -28 -8.5t-30 -27.5l-223 -240l48 -6l230 -281q10 -13 22.5 -21t23.5 -8h32zM305 -309l-7 11l2 11q28 17 41.5 38.5t14.5 41.5q-26 1 -45 20t-19 46t19.5 47t46.5 20q30 0 49.5 -21.5
t19.5 -57.5q0 -56 -33.5 -97t-79.5 -61z" />
    <glyph glyph-name="uni0137" unicode="&#x137;" horiz-adv-x="570" 
d="M32 8v38l8 8h15q15 0 26 11t11 26v503q0 16 -11 26t-26 10h-14l-9 9v23l7 9l131 49h28l7 -7l-8 -76v-389l170 162q9 9 9 17q0 13 -17 13h-21l-8 8v38l8 8h171l8 -8v-38l-8 -8h-18q-14 0 -22.5 -5.5t-28.5 -24.5l-121 -117l154 -216q9 -13 17.5 -18t22.5 -5h25l8 -8v-38
l-8 -8h-131l-13 8l-149 213l-48 -47v-83q0 -15 11 -26t26 -11h15l8 -8v-38l-8 -8h-209zM236 -309l-7 11l2 11q28 17 41.5 38.5t14.5 41.5q-26 1 -45 20t-19 46t19.5 47t46.5 20q30 0 49.5 -21.5t19.5 -57.5q0 -56 -33.5 -97t-79.5 -61z" />
    <glyph glyph-name="kgreenlandic" unicode="&#x138;" horiz-adv-x="581" 
d="M36 8v38l8 8h15q15 0 26 11t11 26v312q0 15 -11 26t-26 11h-15l-8 8v38l8 8h209l8 -8v-38l-8 -8h-15q-15 0 -26 -11t-11 -26v-160l170 167q9 9 9 17q0 13 -17 13h-21l-8 8v38l8 8h169l8 -8v-38l-8 -8h-16q-14 0 -23 -5.5t-28 -24.5l-122 -122l162 -211q10 -13 18 -18
t22 -5h25l8 -8v-38l-8 -8h-131l-13 8l-157 207l-47 -46v-78q0 -15 11 -26t26 -11h15l8 -8v-38l-8 -8h-209z" />
    <glyph glyph-name="Lacute" unicode="&#x139;" horiz-adv-x="648" 
d="M36 8v38l8 8h32q15 0 27.5 12.5t12.5 27.5v512q0 15 -12.5 27.5t-27.5 12.5h-32l-8 8v38l8 8h260l8 -8v-38l-8 -8h-33q-15 0 -27.5 -12.5t-12.5 -27.5v-512q0 -15 12.5 -27.5t27.5 -12.5h134q74 0 110 40t42 95l8 8h39l6 -8l-15 -181l-8 -8h-543zM138 778l81 121l13 7
h114l4 -10l-125 -120l-16 -7h-66z" />
    <glyph glyph-name="lacute" unicode="&#x13a;" horiz-adv-x="283" 
d="M32 8v38l8 8h15q15 0 26 11t11 26v503q0 16 -11 26t-26 10h-14l-9 9v23l7 9l131 49h28l7 -7l-8 -76v-546q0 -15 11 -26t26 -11h15l8 -8v-38l-8 -8h-209zM106 798l81 121l13 7h114l4 -10l-125 -120l-16 -7h-66z" />
    <glyph glyph-name="uni013B" unicode="&#x13b;" horiz-adv-x="648" 
d="M36 8v38l8 8h32q15 0 27.5 12.5t12.5 27.5v512q0 15 -12.5 27.5t-27.5 12.5h-32l-8 8v38l8 8h260l8 -8v-38l-8 -8h-33q-15 0 -27.5 -12.5t-12.5 -27.5v-512q0 -15 12.5 -27.5t27.5 -12.5h134q74 0 110 40t42 95l8 8h39l6 -8l-15 -181l-8 -8h-543zM266 -309l-7 11l2 11
q28 17 41.5 38.5t14.5 41.5q-26 1 -45 20t-19 46t19.5 47t46.5 20q30 0 49.5 -21.5t19.5 -57.5q0 -56 -33.5 -97t-79.5 -61z" />
    <glyph glyph-name="uni013C" unicode="&#x13c;" horiz-adv-x="283" 
d="M32 8v38l8 8h15q15 0 26 11t11 26v503q0 16 -11 26t-26 10h-14l-9 9v23l7 9l131 49h28l7 -7l-8 -76v-546q0 -15 11 -26t26 -11h15l8 -8v-38l-8 -8h-209zM88 -309l-7 11l2 11q28 17 41.5 38.5t14.5 41.5q-26 1 -45 20t-19 46t19.5 47t46.5 20q30 0 49.5 -21.5t19.5 -57.5
q0 -56 -33.5 -97t-79.5 -61z" />
    <glyph glyph-name="Lcaron" unicode="&#x13d;" horiz-adv-x="648" 
d="M36 8v38l8 8h32q15 0 27.5 12.5t12.5 27.5v512q0 15 -12.5 27.5t-27.5 12.5h-32l-8 8v38l8 8h260l8 -8v-38l-8 -8h-33q-15 0 -27.5 -12.5t-12.5 -27.5v-512q0 -15 12.5 -27.5t27.5 -12.5h134q74 0 110 40t42 95l8 8h39l6 -8l-15 -181l-8 -8h-543zM410 475l-7 11l2 10
q28 17 41.5 39t14.5 42q-27 0 -45.5 19t-18.5 46q0 28 19 48t47 20q30 0 49.5 -21.5t19.5 -58.5q0 -55 -34 -96.5t-79 -60.5z" />
    <glyph glyph-name="lcaron" unicode="&#x13e;" horiz-adv-x="417" 
d="M32 8v38l8 8h15q15 0 26 11t11 26v503q0 16 -11 26t-26 10h-14l-9 9v23l7 9l131 49h28l7 -7l-8 -76v-546q0 -15 11 -26t26 -11h15l8 -8v-38l-8 -8h-209zM278 475l-7 11l2 10q28 17 41.5 39t14.5 42q-27 0 -45.5 19t-18.5 46q0 28 19 48t47 20q30 0 49.5 -21.5t19.5 -58.5
q0 -55 -34 -96.5t-79 -60.5z" />
    <glyph glyph-name="Ldot" unicode="&#x13f;" horiz-adv-x="648" 
d="M36 8v38l8 8h32q15 0 27.5 12.5t12.5 27.5v512q0 15 -12.5 27.5t-27.5 12.5h-32l-8 8v38l8 8h260l8 -8v-38l-8 -8h-33q-15 0 -27.5 -12.5t-12.5 -27.5v-512q0 -15 12.5 -27.5t27.5 -12.5h134q74 0 110 40t42 95l8 8h39l6 -8l-15 -181l-8 -8h-543zM411 311q-19 19 -19 47
t19 47.5t47 19.5t47.5 -19.5t19.5 -47.5t-19.5 -47t-47.5 -19t-47 19z" />
    <glyph glyph-name="ldot" unicode="&#x140;" horiz-adv-x="435" 
d="M32 8v38l8 8h15q15 0 26 11t11 26v503q0 16 -11 26t-26 10h-14l-9 9v23l7 9l131 49h28l7 -7l-8 -76v-546q0 -15 11 -26t26 -11h15l8 -8v-38l-8 -8h-209zM279 311q-19 19 -19 47t19 47.5t47 19.5t47.5 -19.5t19.5 -47.5t-19.5 -47t-47.5 -19t-47 19z" />
    <glyph glyph-name="Lslash" unicode="&#x141;" horiz-adv-x="648" 
d="M36 8v38l8 8h32q15 0 27.5 12.5t12.5 27.5v136l-78 -45l-13 6v41l8 15l83 48v311q0 15 -12.5 27.5t-27.5 12.5h-32l-8 8v38l8 8h260l8 -8v-38l-8 -8h-33q-15 0 -27.5 -12.5t-12.5 -27.5v-244l142 82l13 -6v-41l-8 -15l-147 -86v-202q0 -15 12.5 -27.5t27.5 -12.5h134
q74 0 110 40t42 95l8 8h39l6 -8l-15 -181l-8 -8h-543z" />
    <glyph glyph-name="lslash" unicode="&#x142;" horiz-adv-x="333" 
d="M54 8v38l8 8h15q15 0 26 11t11 26v178l-68 -39l-13 6v35l8 15l73 42v266q0 16 -11 26t-27 10h-12l-10 10v21l8 10l130 49h27l8 -8l-8 -75v-247l67 39l13 -6v-35l-8 -15l-72 -43v-239q0 -15 11 -26t26 -11h15l8 -8v-38l-8 -8h-209z" />
    <glyph glyph-name="Nacute" unicode="&#x143;" horiz-adv-x="792" 
d="M36 8v38l8 8h32q15 0 27.5 12.5t12.5 27.5v515q0 14 -12.5 25.5t-27.5 11.5h-32l-8 8v38l8 8h244l8 -8v-38l-8 -8h-10q-13 0 -20 -6t-7 -16t4.5 -17.5t15.5 -19.5l351 -408v427q0 15 -12.5 27.5t-27.5 12.5h-32l-8 8v38l8 8h198l8 -8v-38l-8 -8h-32q-15 0 -27.5 -12.5
t-12.5 -27.5v-598l-8 -8h-35l-17 10l-446 519v-435q0 -15 12.5 -27.5t27.5 -12.5h32l8 -8v-38l-8 -8h-198zM383 778l81 121l13 7h114l4 -10l-125 -120l-16 -7h-66z" />
    <glyph glyph-name="nacute" unicode="&#x144;" horiz-adv-x="633" 
d="M36 8v38l8 8h15q15 0 26 11t11 26v277q0 16 -11 26t-26 10h-15l-8 8v25l6 8l127 49h28l7 -7l-9 -73q29 44 73.5 69t101.5 25q79 0 126 -43.5t47 -124.5v-249q0 -15 11 -26t26 -11h15l8 -8v-38l-8 -8h-209l-8 8v38l8 8h15q15 0 26 11t11 26v242q0 51 -26.5 80.5
t-75.5 29.5q-41 0 -71.5 -21t-47 -56.5t-16.5 -76.5v-198q0 -15 11 -26t26 -11h15l8 -8v-38l-8 -8h-209zM283 572l81 121l13 7h114l4 -10l-125 -120l-16 -7h-66z" />
    <glyph glyph-name="uni0145" unicode="&#x145;" horiz-adv-x="792" 
d="M36 8v38l8 8h32q15 0 27.5 12.5t12.5 27.5v515q0 14 -12.5 25.5t-27.5 11.5h-32l-8 8v38l8 8h244l8 -8v-38l-8 -8h-10q-13 0 -20 -6t-7 -16t4.5 -17.5t15.5 -19.5l351 -408v427q0 15 -12.5 27.5t-27.5 12.5h-32l-8 8v38l8 8h198l8 -8v-38l-8 -8h-32q-15 0 -27.5 -12.5
t-12.5 -27.5v-598l-8 -8h-35l-17 10l-446 519v-435q0 -15 12.5 -27.5t27.5 -12.5h32l8 -8v-38l-8 -8h-198zM340 -309l-7 11l2 11q28 17 41.5 38.5t14.5 41.5q-26 1 -45 20t-19 46t19.5 47t46.5 20q30 0 49.5 -21.5t19.5 -57.5q0 -56 -33.5 -97t-79.5 -61z" />
    <glyph glyph-name="uni0146" unicode="&#x146;" horiz-adv-x="633" 
d="M36 8v38l8 8h15q15 0 26 11t11 26v277q0 16 -11 26t-26 10h-15l-8 8v25l6 8l127 49h28l7 -7l-9 -73q29 44 73.5 69t101.5 25q79 0 126 -43.5t47 -124.5v-249q0 -15 11 -26t26 -11h15l8 -8v-38l-8 -8h-209l-8 8v38l8 8h15q15 0 26 11t11 26v242q0 51 -26.5 80.5
t-75.5 29.5q-41 0 -71.5 -21t-47 -56.5t-16.5 -76.5v-198q0 -15 11 -26t26 -11h15l8 -8v-38l-8 -8h-209zM265 -309l-7 11l2 11q28 17 41.5 38.5t14.5 41.5q-26 1 -45 20t-19 46t19.5 47t46.5 20q30 0 49.5 -21.5t19.5 -57.5q0 -56 -33.5 -97t-79.5 -61z" />
    <glyph glyph-name="Ncaron" unicode="&#x147;" horiz-adv-x="792" 
d="M36 8v38l8 8h32q15 0 27.5 12.5t12.5 27.5v515q0 14 -12.5 25.5t-27.5 11.5h-32l-8 8v38l8 8h244l8 -8v-38l-8 -8h-10q-13 0 -20 -6t-7 -16t4.5 -17.5t15.5 -19.5l351 -408v427q0 15 -12.5 27.5t-27.5 12.5h-32l-8 8v38l8 8h198l8 -8v-38l-8 -8h-32q-15 0 -27.5 -12.5
t-12.5 -27.5v-598l-8 -8h-35l-17 10l-446 519v-435q0 -15 12.5 -27.5t27.5 -12.5h32l8 -8v-38l-8 -8h-198zM352 777l-85 120l8 9h62l6 -2l75 -70h7l76 70l5 2h63l8 -9l-85 -120l-13 -8h-114z" />
    <glyph glyph-name="ncaron" unicode="&#x148;" horiz-adv-x="633" 
d="M36 8v38l8 8h15q15 0 26 11t11 26v277q0 16 -11 26t-26 10h-15l-8 8v25l6 8l127 49h28l7 -7l-9 -73q29 44 73.5 69t101.5 25q79 0 126 -43.5t47 -124.5v-249q0 -15 11 -26t26 -11h15l8 -8v-38l-8 -8h-209l-8 8v38l8 8h15q15 0 26 11t11 26v242q0 51 -26.5 80.5
t-75.5 29.5q-41 0 -71.5 -21t-47 -56.5t-16.5 -76.5v-198q0 -15 11 -26t26 -11h15l8 -8v-38l-8 -8h-209zM251 571l-85 120l8 9h62l6 -2l75 -70h7l76 70l5 2h63l8 -9l-85 -120l-13 -8h-114z" />
    <glyph glyph-name="Eng" unicode="&#x14a;" horiz-adv-x="792" 
d="M427.5 -207q-37.5 33 -37.5 93l8 8h23l8 -8q2 -28 23 -47.5t53 -19.5q31 0 51 19.5t20 56.5v161l-406 480v-442q0 -15 12.5 -27.5t27.5 -12.5h32l8 -8v-38l-8 -8h-198l-8 8v38l8 8h32q15 0 27.5 12.5t12.5 27.5v515q0 14 -12.5 25.5t-27.5 11.5h-32l-8 8v38l8 8h244l8 -8
v-38l-8 -8h-10q-13 0 -20 -6t-7 -16t5 -18.5t21 -26.5l345 -407v434q0 15 -12.5 27.5t-27.5 12.5h-32l-8 8v38l8 8h198l8 -8v-38l-8 -8h-32q-15 0 -27.5 -12.5t-12.5 -27.5v-693q0 -68 -40.5 -110.5t-114.5 -42.5q-56 0 -93.5 33z" />
    <glyph glyph-name="eng" unicode="&#x14b;" horiz-adv-x="593" 
d="M344 -220q-23 20 -23 51q0 28 18.5 47t48.5 19t48 -20t17 -53q39 20 39 87l-7 9l-40 18l-7 9v386q0 51 -26.5 80.5t-75.5 29.5q-41 0 -71.5 -21t-47 -56.5t-16.5 -76.5v-198q0 -15 11 -26t26 -11h15l8 -8v-38l-8 -8h-209l-8 8v38l8 8h15q15 0 26 11t11 26v277
q0 16 -11 26t-26 10h-13l-10 10v21l8 10l125 49h27l8 -8l-9 -73q29 45 73 70t102 25q79 0 126 -43.5t47 -124.5v-417q0 -83 -39.5 -123t-98.5 -40q-38 0 -61 20z" />
    <glyph glyph-name="Omacron" unicode="&#x14c;" horiz-adv-x="810" 
d="M219.5 31.5q-84.5 45.5 -134 128t-49.5 190.5t49.5 190.5t134 128t185.5 45.5t185.5 -45.5t134 -128t49.5 -190.5t-49.5 -190.5t-134 -128t-185.5 -45.5t-185.5 45.5zM537 86.5q56 41.5 86 111t30 152.5t-30 152.5t-86 111t-132 41.5t-132 -41.5t-86 -111t-30 -152.5
t30 -152.5t86 -111t132 -41.5t132 41.5zM280 797v48l8 8h234l8 -8v-48l-8 -8h-234z" />
    <glyph glyph-name="omacron" unicode="&#x14d;" horiz-adv-x="600" 
d="M165.5 19q-60.5 33 -95.5 92.5t-35 135.5t35 135.5t95.5 92.5t134.5 33t134.5 -33t95.5 -92.5t35 -135.5t-35 -135.5t-95.5 -92.5t-134.5 -33t-134.5 33zM413.5 99q40.5 56 40.5 148t-40.5 148t-113.5 56t-113.5 -56t-40.5 -148t40.5 -148t113.5 -56t113.5 56zM175 591
v48l8 8h234l8 -8v-48l-8 -8h-234z" />
    <glyph glyph-name="Obreve" unicode="&#x14e;" horiz-adv-x="810" 
d="M219.5 31.5q-84.5 45.5 -134 128t-49.5 190.5t49.5 190.5t134 128t185.5 45.5t185.5 -45.5t134 -128t49.5 -190.5t-49.5 -190.5t-134 -128t-185.5 -45.5t-185.5 45.5zM537 86.5q56 41.5 86 111t30 152.5t-30 152.5t-86 111t-132 41.5t-132 -41.5t-86 -111t-30 -152.5
t30 -152.5t86 -111t132 -41.5t132 41.5zM314.5 799q-35.5 31 -37.5 84l8 8h24l9 -8q6 -18 29.5 -29.5t57.5 -11.5t57.5 11.5t29.5 29.5l10 8h23l8 -8q-2 -53 -37.5 -84t-90.5 -31t-90.5 31z" />
    <glyph glyph-name="obreve" unicode="&#x14f;" horiz-adv-x="600" 
d="M165.5 19q-60.5 33 -95.5 92.5t-35 135.5t35 135.5t95.5 92.5t134.5 33t134.5 -33t95.5 -92.5t35 -135.5t-35 -135.5t-95.5 -92.5t-134.5 -33t-134.5 33zM413.5 99q40.5 56 40.5 148t-40.5 148t-113.5 56t-113.5 -56t-40.5 -148t40.5 -148t113.5 -56t113.5 56zM209.5 593
q-35.5 31 -37.5 84l8 8h24l9 -8q6 -15 29.5 -24.5t57.5 -9.5t57.5 9.5t29.5 24.5l10 8h23l8 -8q-2 -53 -37.5 -84t-90.5 -31t-90.5 31z" />
    <glyph glyph-name="Ohungarumlaut" unicode="&#x150;" horiz-adv-x="810" 
d="M219.5 31.5q-84.5 45.5 -134 128t-49.5 190.5t49.5 190.5t134 128t185.5 45.5t185.5 -45.5t134 -128t49.5 -190.5t-49.5 -190.5t-134 -128t-185.5 -45.5t-185.5 45.5zM537 86.5q56 41.5 86 111t30 152.5t-30 152.5t-86 111t-132 41.5t-132 -41.5t-86 -111t-30 -152.5
t30 -152.5t86 -111t132 -41.5t132 41.5zM562 896l-125 -120l-16 -7h-68l-5 9l81 121l13 7h116z" />
    <glyph glyph-name="ohungarumlaut" unicode="&#x151;" horiz-adv-x="600" 
d="M165.5 19q-60.5 33 -95.5 92.5t-35 135.5t35 135.5t95.5 92.5t134.5 33t134.5 -33t95.5 -92.5t35 -135.5t-35 -135.5t-95.5 -92.5t-134.5 -33t-134.5 33zM413.5 99q40.5 56 40.5 148t-40.5 148t-113.5 56t-113.5 -56t-40.5 -148t40.5 -148t113.5 -56t113.5 56zM456 690
l-125 -120l-16 -7h-68l-5 9l81 121l13 7h116z" />
    <glyph glyph-name="OE" unicode="&#x152;" horiz-adv-x="1109" 
d="M219.5 31.5q-84.5 45.5 -134 128t-49.5 190.5t49.5 190.5t134 128t185.5 45.5q55 0 106 -14h543l10 -10v-30l-25 -109l-8 -8h-32l-8 8q-12 95 -91 95h-266l-2 -4q59 -42 95.5 -105.5t44.5 -143.5l6 -6h105q15 0 27.5 13t12.5 27v12l8 8h38l8 -8v-158l-8 -8h-38l-8 8v12
q0 15 -12.5 27.5t-27.5 12.5h-105l-5 -5q-4 -85 -41 -155t-100 -116l2 -3h250q125 0 142 131l8 8h39l6 -8l-15 -177l-8 -8h-545q-51 -14 -106 -14q-101 0 -185.5 45.5zM537 86.5q56 41.5 86 111t30 152.5t-30 152.5t-86 111t-132 41.5t-132 -41.5t-86 -111t-30 -152.5
t30 -152.5t86 -111t132 -41.5t132 41.5z" />
    <glyph glyph-name="oe" unicode="&#x153;" horiz-adv-x="986" 
d="M164.5 19q-60.5 33 -95 92.5t-34.5 135.5t34.5 135.5t95 92.5t135.5 33q65 0 119.5 -25.5t90.5 -71.5q35 45 86 71t113 26q78 0 132 -35.5t81 -95t27 -130.5l-8 -8h-384q-1 -49 21.5 -88.5t63.5 -62t92 -22.5q123 0 189 109l10 4l11 -4l5 -10q-24 -80 -87.5 -129.5
t-148.5 -49.5q-66 0 -118.5 25.5t-85.5 71.5q-36 -46 -90 -71.5t-119 -25.5q-75 0 -135.5 33zM806 295q33 0 33 32q0 53 -35 90t-95 37q-44 0 -78 -21.5t-52.5 -56.5t-21.5 -74l7 -7h242zM413.5 99q40.5 56 40.5 148t-40.5 148t-113.5 56t-113.5 -56t-40.5 -148t40.5 -148
t113.5 -56t113.5 56z" />
    <glyph glyph-name="Racute" unicode="&#x154;" horiz-adv-x="646" 
d="M36 8v38l8 8h32q15 0 27.5 12.5t12.5 27.5v512q0 15 -12.5 27.5t-27.5 12.5h-31l-9 9v36l9 9h275q111 0 178 -52t67 -150q0 -81 -53 -132t-144 -66l58 -16l123 -207q14 -23 36 -23h32l8 -8v-38l-8 -8h-140l-13 8l-175 294h-58v-208q0 -15 12.5 -27.5t27.5 -12.5h32l8 -8
v-38l-8 -8h-259zM318 356q65 0 97.5 38t32.5 104q0 67 -32.5 107.5t-97.5 40.5h-47q-15 0 -27.5 -12.5t-12.5 -27.5v-250h87zM281 778l81 121l13 7h114l4 -10l-125 -120l-16 -7h-66z" />
    <glyph glyph-name="racute" unicode="&#x155;" horiz-adv-x="419" 
d="M36 8v38l8 8h15q15 0 26 11t11 26v278q0 15 -11 25.5t-26 10.5h-14l-9 10v24l7 9l126 46h28l8 -8l-15 -89q21 50 59.5 80.5t83.5 30.5q34 0 54 -19t20 -49q0 -27 -18.5 -46t-46.5 -19q-27 0 -45.5 17.5t-19.5 44.5q-32 -14 -54 -53.5t-22 -95.5v-197q0 -15 11 -26t26 -11
h15l8 -8v-38l-8 -8h-209zM181 572l81 121l13 7h114l4 -10l-125 -120l-16 -7h-66z" />
    <glyph glyph-name="uni0156" unicode="&#x156;" horiz-adv-x="646" 
d="M36 8v38l8 8h32q15 0 27.5 12.5t12.5 27.5v512q0 15 -12.5 27.5t-27.5 12.5h-31l-9 9v36l9 9h275q111 0 178 -52t67 -150q0 -81 -53 -132t-144 -66l58 -16l123 -207q14 -23 36 -23h32l8 -8v-38l-8 -8h-140l-13 8l-175 294h-58v-208q0 -15 12.5 -27.5t27.5 -12.5h32l8 -8
v-38l-8 -8h-259zM318 356q65 0 97.5 38t32.5 104q0 67 -32.5 107.5t-97.5 40.5h-47q-15 0 -27.5 -12.5t-12.5 -27.5v-250h87zM268 -309l-7 11l2 11q28 17 41.5 38.5t14.5 41.5q-26 1 -45 20t-19 46t19.5 47t46.5 20q30 0 49.5 -21.5t19.5 -57.5q0 -56 -33.5 -97t-79.5 -61z
" />
    <glyph glyph-name="uni0157" unicode="&#x157;" horiz-adv-x="419" 
d="M36 8v38l8 8h15q15 0 26 11t11 26v278q0 15 -11 25.5t-26 10.5h-14l-9 10v24l7 9l126 46h28l8 -8l-15 -89q21 50 59.5 80.5t83.5 30.5q34 0 54 -19t20 -49q0 -27 -18.5 -46t-46.5 -19q-27 0 -45.5 17.5t-19.5 44.5q-32 -14 -54 -53.5t-22 -95.5v-197q0 -15 11 -26t26 -11
h15l8 -8v-38l-8 -8h-209zM92 -309l-7 11l2 11q28 17 41.5 38.5t14.5 41.5q-26 1 -45 20t-19 46t19.5 47t46.5 20q30 0 49.5 -21.5t19.5 -57.5q0 -56 -33.5 -97t-79.5 -61z" />
    <glyph glyph-name="Rcaron" unicode="&#x158;" horiz-adv-x="646" 
d="M36 8v38l8 8h32q15 0 27.5 12.5t12.5 27.5v512q0 15 -12.5 27.5t-27.5 12.5h-31l-9 9v36l9 9h275q111 0 178 -52t67 -150q0 -81 -53 -132t-144 -66l58 -16l123 -207q14 -23 36 -23h32l8 -8v-38l-8 -8h-140l-13 8l-175 294h-58v-208q0 -15 12.5 -27.5t27.5 -12.5h32l8 -8
v-38l-8 -8h-259zM318 356q65 0 97.5 38t32.5 104q0 67 -32.5 107.5t-97.5 40.5h-47q-15 0 -27.5 -12.5t-12.5 -27.5v-250h87zM249 777l-85 120l8 9h62l6 -2l75 -70h7l76 70l5 2h63l8 -9l-85 -120l-13 -8h-114z" />
    <glyph glyph-name="rcaron" unicode="&#x159;" horiz-adv-x="419" 
d="M36 8v38l8 8h15q15 0 26 11t11 26v278q0 15 -11 25.5t-26 10.5h-14l-9 10v24l7 9l126 46h28l8 -8l-15 -89q21 50 59.5 80.5t83.5 30.5q34 0 54 -19t20 -49q0 -27 -18.5 -46t-46.5 -19q-27 0 -45.5 17.5t-19.5 44.5q-32 -14 -54 -53.5t-22 -95.5v-197q0 -15 11 -26t26 -11
h15l8 -8v-38l-8 -8h-209zM150 571l-85 120l8 9h62l6 -2l75 -70h7l76 70l5 2h63l8 -9l-85 -120l-13 -8h-114z" />
    <glyph glyph-name="Sacute" unicode="&#x15a;" horiz-adv-x="507" 
d="M136 2.5q-51 16.5 -86 41.5l-7 13l8 145l9 9h33l9 -9q8 -79 49.5 -120.5t99.5 -41.5q51 0 81.5 32.5t30.5 84.5q0 42 -16 70t-44 48t-78 45q-85 43 -128.5 89.5t-43.5 117.5q0 57 28.5 99.5t77 65t106.5 22.5q51 0 94 -13.5t68 -34.5l6 -10l5 -127l-9 -9h-35l-9 9
q-6 67 -38 99t-81 32t-78.5 -28t-29.5 -73t32.5 -76t111.5 -71q78 -40 123 -88.5t45 -131.5q0 -56 -26.5 -103t-77.5 -75t-120 -28q-59 0 -110 16.5zM223 778l81 121l13 7h114l4 -10l-125 -120l-16 -7h-66z" />
    <glyph glyph-name="sacute" unicode="&#x15b;" horiz-adv-x="432" 
d="M121.5 -1q-43.5 13 -74.5 33l-5 10l27 107l9 9h26l9 -9q-3 -56 26.5 -86t74.5 -30q38 0 59 21.5t21 55.5q0 41 -24 63t-75 42q-70 27 -105 61.5t-35 83.5q0 67 48 107.5t125 40.5q65 0 124 -31l7 -10l5 -111l-9 -9h-30l-9 9q-3 48 -26 76t-64 28q-33 0 -54.5 -19
t-21.5 -50t26 -54t90 -49q61 -25 95 -57.5t34 -87.5q0 -73 -51.5 -115t-127.5 -42q-51 0 -94.5 13zM179 572l81 121l13 7h114l4 -10l-125 -120l-16 -7h-66z" />
    <glyph glyph-name="Scircumflex" unicode="&#x15c;" horiz-adv-x="507" 
d="M136 2.5q-51 16.5 -86 41.5l-7 13l8 145l9 9h33l9 -9q8 -79 49.5 -120.5t99.5 -41.5q51 0 81.5 32.5t30.5 84.5q0 42 -16 70t-44 48t-78 45q-85 43 -128.5 89.5t-43.5 117.5q0 57 28.5 99.5t77 65t106.5 22.5q51 0 94 -13.5t68 -34.5l6 -10l5 -127l-9 -9h-35l-9 9
q-6 67 -38 99t-81 32t-78.5 -28t-29.5 -73t32.5 -76t111.5 -71q78 -40 123 -88.5t45 -131.5q0 -56 -26.5 -103t-77.5 -75t-120 -28q-59 0 -110 16.5zM107 778l85 120l13 8h114l13 -8l85 -120l-8 -9h-63l-5 2l-76 70h-7l-75 -70l-6 -2h-62z" />
    <glyph glyph-name="scircumflex" unicode="&#x15d;" horiz-adv-x="432" 
d="M121.5 -1q-43.5 13 -74.5 33l-5 10l27 107l9 9h26l9 -9q-3 -56 26.5 -86t74.5 -30q38 0 59 21.5t21 55.5q0 41 -24 63t-75 42q-70 27 -105 61.5t-35 83.5q0 67 48 107.5t125 40.5q65 0 124 -31l7 -10l5 -111l-9 -9h-30l-9 9q-3 48 -26 76t-64 28q-33 0 -54.5 -19
t-21.5 -50t26 -54t90 -49q61 -25 95 -57.5t34 -87.5q0 -73 -51.5 -115t-127.5 -42q-51 0 -94.5 13zM63 572l85 120l13 8h114l13 -8l85 -120l-8 -9h-63l-5 2l-76 70h-7l-75 -70l-6 -2h-62z" />
    <glyph glyph-name="Scedilla" unicode="&#x15e;" horiz-adv-x="507" 
d="M446.5 95q-23.5 -45 -68 -74t-105.5 -34l-37 -50q21 12 53 12q41 0 65 -24.5t24 -61.5q0 -45 -34 -74t-92 -29q-56 0 -94 36l-3 11l8 12l9 3q15 -10 29.5 -15t35.5 -5q26 0 42.5 13t16.5 41q0 25 -13 39t-38 14q-29 0 -57 -18h-7l-6 7v7l36 83q-48 4 -90 19.5t-71 36.5
l-7 13l8 145l9 9h33l9 -9q8 -79 49.5 -120.5t99.5 -41.5q51 0 81.5 32.5t30.5 84.5q0 42 -16 70t-44 48t-78 45q-85 43 -128.5 89.5t-43.5 117.5q0 57 28.5 99.5t77 65t106.5 22.5q51 0 94 -13.5t68 -34.5l6 -10l5 -127l-9 -9h-35l-9 9q-6 67 -38 99t-81 32t-78.5 -28
t-29.5 -73t32.5 -76t111.5 -71q78 -40 123 -88.5t45 -131.5q0 -52 -23.5 -97z" />
    <glyph glyph-name="scedilla" unicode="&#x15f;" horiz-adv-x="432" 
d="M348.5 32.5q-46.5 -41.5 -117.5 -46.5l-36 -49q21 12 53 12q41 0 65 -24.5t24 -61.5q0 -45 -34 -74t-92 -29q-56 0 -94 36l-3 11l8 12l9 3q15 -10 29.5 -15t35.5 -5q26 0 42.5 13t16.5 41q0 25 -13 39t-38 14q-29 0 -57 -18h-7l-6 7v7l37 84q-72 8 -124 43l-5 10l27 107
l9 9h26l9 -9q-3 -56 26.5 -86t74.5 -30q38 0 59 21.5t21 55.5q0 41 -24 63t-75 42q-70 27 -105 61.5t-35 83.5q0 67 48 107.5t125 40.5q65 0 124 -31l7 -10l5 -111l-9 -9h-30l-9 9q-3 48 -26 76t-64 28q-33 0 -54.5 -19t-21.5 -50t26 -54t90 -49q61 -25 95 -57.5t34 -87.5
q0 -69 -46.5 -110.5z" />
    <glyph glyph-name="Scaron" unicode="&#x160;" horiz-adv-x="507" 
d="M136 2.5q-51 16.5 -86 41.5l-7 13l8 145l9 9h33l9 -9q8 -79 49.5 -120.5t99.5 -41.5q51 0 81.5 32.5t30.5 84.5q0 42 -16 70t-44 48t-78 45q-85 43 -128.5 89.5t-43.5 117.5q0 57 28.5 99.5t77 65t106.5 22.5q51 0 94 -13.5t68 -34.5l6 -10l5 -127l-9 -9h-35l-9 9
q-6 67 -38 99t-81 32t-78.5 -28t-29.5 -73t32.5 -76t111.5 -71q78 -40 123 -88.5t45 -131.5q0 -56 -26.5 -103t-77.5 -75t-120 -28q-59 0 -110 16.5zM192 777l-85 120l8 9h62l6 -2l75 -70h7l76 70l5 2h63l8 -9l-85 -120l-13 -8h-114z" />
    <glyph glyph-name="scaron" unicode="&#x161;" horiz-adv-x="432" 
d="M121.5 -1q-43.5 13 -74.5 33l-5 10l27 107l9 9h26l9 -9q-3 -56 26.5 -86t74.5 -30q38 0 59 21.5t21 55.5q0 41 -24 63t-75 42q-70 27 -105 61.5t-35 83.5q0 67 48 107.5t125 40.5q65 0 124 -31l7 -10l5 -111l-9 -9h-30l-9 9q-3 48 -26 76t-64 28q-33 0 -54.5 -19
t-21.5 -50t26 -54t90 -49q61 -25 95 -57.5t34 -87.5q0 -73 -51.5 -115t-127.5 -42q-51 0 -94.5 13zM148 571l-85 120l8 9h62l6 -2l75 -70h7l76 70l5 2h63l8 -9l-85 -120l-13 -8h-114z" />
    <glyph glyph-name="uni0162" unicode="&#x162;" horiz-adv-x="670" 
d="M638 515l-6 -8h-39l-8 8q-17 131 -142 131h-50v-552q0 -15 12.5 -27.5t27.5 -12.5h32l8 -8v-38l-8 -8h-105l-46 -63q21 12 53 12q41 0 65 -24.5t24 -61.5q0 -45 -34 -74t-92 -29q-56 0 -94 36l-3 11l8 12l9 3q15 -10 29.5 -15t35.5 -5q26 0 42.5 13t16.5 41q0 25 -13 39
t-38 14q-29 0 -57 -18h-7l-6 7v7l42 95h-90l-8 8v38l8 8h32q15 0 27.5 12.5t12.5 27.5v552h-50q-125 0 -142 -131l-8 -8h-38l-7 8l15 177l8 8h560l8 -8z" />
    <glyph glyph-name="uni0163" unicode="&#x163;" horiz-adv-x="383" 
d="M319 -75.5q24 -24.5 24 -61.5q0 -45 -34 -74t-92 -29q-56 0 -94 36l-3 11l8 12l9 3q15 -10 29.5 -15t35.5 -5q26 0 42.5 13t16.5 41q0 25 -13 39t-38 14q-29 0 -57 -18h-7l-6 7v7l38 87q-42 12 -65.5 45.5t-23.5 85.5v315h-73l-8 8v17l161 160h17l8 -8v-121h130l8 -8v-40
l-8 -8h-130v-317q0 -30 17.5 -48.5t44.5 -18.5q24 0 42 10.5t34 33.5l8 3l18 -8l3 -8q-11 -35 -41 -65t-83 -34l-36 -49q21 12 53 12q41 0 65 -24.5z" />
    <glyph glyph-name="Tcaron" unicode="&#x164;" horiz-adv-x="670" 
d="M197 8v38l8 8h32q15 0 27.5 12.5t12.5 27.5v552h-50q-125 0 -142 -131l-8 -8h-38l-7 8l15 177l8 8h560l8 -8l15 -177l-6 -8h-39l-8 8q-17 131 -142 131h-50v-552q0 -15 12.5 -27.5t27.5 -12.5h32l8 -8v-38l-8 -8h-260zM265 777l-85 120l8 9h62l6 -2l75 -70h7l76 70l5 2
h63l8 -9l-85 -120l-13 -8h-114z" />
    <glyph glyph-name="tcaron" unicode="&#x165;" horiz-adv-x="517" 
d="M395 475l-7 11l2 11q28 17 41.5 38.5t14.5 41.5q-26 1 -45 20t-19 46t19.5 47t46.5 20q30 0 49.5 -21.5t19.5 -57.5q0 -56 -33.5 -97t-79.5 -61zM126 22q-37 36 -37 101v315h-73l-8 8v17l161 160h17l8 -8v-121h130l8 -8v-40l-8 -8h-130v-317q0 -30 17.5 -48.5t44.5 -18.5
q24 0 42 10.5t34 33.5l8 3l18 -8l3 -8q-12 -38 -45 -68.5t-92 -30.5q-61 0 -98 36z" />
    <glyph glyph-name="Tbar" unicode="&#x166;" horiz-adv-x="670" 
d="M638 515l-6 -8h-39l-8 8q-17 131 -142 131h-50v-212h123l8 -8v-38l-8 -8h-123v-286q0 -15 12.5 -27.5t27.5 -12.5h32l8 -8v-38l-8 -8h-260l-8 8v38l8 8h32q15 0 27.5 12.5t12.5 27.5v286h-123l-8 8v38l8 8h123v212h-50q-125 0 -142 -131l-8 -8h-38l-7 8l15 177l8 8h560
l8 -8z" />
    <glyph glyph-name="tbar" unicode="&#x167;" horiz-adv-x="383" 
d="M361 85q-12 -38 -45 -68.5t-92 -30.5q-61 0 -98 36t-37 101v125h-64l-8 8v29l8 8h64v145h-73l-8 8v17l161 160h17l8 -8v-121h130l8 -8v-40l-8 -8h-130v-145h126l8 -8v-29l-8 -8h-126v-127q0 -30 17.5 -48.5t44.5 -18.5q24 0 42 10.5t34 33.5l8 3l18 -8z" />
    <glyph glyph-name="Utilde" unicode="&#x168;" horiz-adv-x="745" 
d="M175 58q-72 72 -72 194v354q0 15 -12.5 27.5t-27.5 12.5h-32l-8 8v38l8 8h258l8 -8v-38l-8 -8h-31q-15 0 -27.5 -12.5t-12.5 -27.5v-356q0 -86 49 -135.5t136 -49.5q82 0 131.5 49.5t49.5 135.5v356q0 15 -12.5 27.5t-27.5 12.5h-32l-8 8v38l8 8h202l8 -8v-38l-8 -8h-32
q-14 0 -27 -12.5t-13 -27.5v-349q0 -78 -31 -139.5t-90.5 -96.5t-141.5 -35q-132 0 -204 72zM426 776q-20 9 -45 26q-22 14 -36 21t-31 7q-23 0 -36.5 -13.5t-18.5 -33.5l-8 -8h-17l-8 8q2 55 33 86.5t75 31.5q25 0 44.5 -9t46.5 -26q23 -14 37 -21t30 -7q22 0 35 14t18 33
l8 8h17l8 -8q-1 -56 -31.5 -87t-74.5 -31q-26 0 -46 9z" />
    <glyph glyph-name="utilde" unicode="&#x169;" horiz-adv-x="619" 
d="M134.5 29.5q-48.5 43.5 -48.5 124.5v225q0 16 -11 26t-26 10h-14l-9 10v22l7 9l131 44h28l8 -8l-9 -79v-252q0 -52 27 -80t79 -28q37 0 67 19.5t47 52t17 71.5v183q0 16 -11 26t-27 10h-13l-9 10v22l7 9l131 44h28l8 -8l-9 -79v-294q0 -17 12 -28.5t28 -11.5h12l8 -8v-27
l-8 -8l-117 -46h-32l-8 8v75q-28 -41 -71.5 -64t-97.5 -23q-76 0 -124.5 43.5zM326 570q-20 9 -45 26q-22 14 -36 21t-31 7q-23 0 -36.5 -13.5t-18.5 -33.5l-8 -8h-17l-8 8q2 55 33 86.5t75 31.5q25 0 44.5 -9t46.5 -26q23 -14 37 -21t30 -7q22 0 35 14t18 33l8 8h17l8 -8
q-1 -56 -31.5 -87t-74.5 -31q-26 0 -46 9z" />
    <glyph glyph-name="Umacron" unicode="&#x16a;" horiz-adv-x="745" 
d="M175 58q-72 72 -72 194v354q0 15 -12.5 27.5t-27.5 12.5h-32l-8 8v38l8 8h258l8 -8v-38l-8 -8h-31q-15 0 -27.5 -12.5t-12.5 -27.5v-356q0 -86 49 -135.5t136 -49.5q82 0 131.5 49.5t49.5 135.5v356q0 15 -12.5 27.5t-27.5 12.5h-32l-8 8v38l8 8h202l8 -8v-38l-8 -8h-32
q-14 0 -27 -12.5t-13 -27.5v-349q0 -78 -31 -139.5t-90.5 -96.5t-141.5 -35q-132 0 -204 72zM277 797v48l8 8h234l8 -8v-48l-8 -8h-234z" />
    <glyph glyph-name="umacron" unicode="&#x16b;" horiz-adv-x="619" 
d="M134.5 29.5q-48.5 43.5 -48.5 124.5v225q0 16 -11 26t-26 10h-14l-9 10v22l7 9l131 44h28l8 -8l-9 -79v-252q0 -52 27 -80t79 -28q37 0 67 19.5t47 52t17 71.5v183q0 16 -11 26t-27 10h-13l-9 10v22l7 9l131 44h28l8 -8l-9 -79v-294q0 -17 12 -28.5t28 -11.5h12l8 -8v-27
l-8 -8l-117 -46h-32l-8 8v75q-28 -41 -71.5 -64t-97.5 -23q-76 0 -124.5 43.5zM177 591v48l8 8h234l8 -8v-48l-8 -8h-234z" />
    <glyph glyph-name="Ubreve" unicode="&#x16c;" horiz-adv-x="745" 
d="M175 58q-72 72 -72 194v354q0 15 -12.5 27.5t-27.5 12.5h-32l-8 8v38l8 8h258l8 -8v-38l-8 -8h-31q-15 0 -27.5 -12.5t-12.5 -27.5v-356q0 -86 49 -135.5t136 -49.5q82 0 131.5 49.5t49.5 135.5v356q0 15 -12.5 27.5t-27.5 12.5h-32l-8 8v38l8 8h202l8 -8v-38l-8 -8h-32
q-14 0 -27 -12.5t-13 -27.5v-349q0 -78 -31 -139.5t-90.5 -96.5t-141.5 -35q-132 0 -204 72zM311.5 799q-35.5 31 -37.5 84l8 8h24l9 -8q6 -18 29.5 -29.5t57.5 -11.5t57.5 11.5t29.5 29.5l10 8h23l8 -8q-2 -53 -37.5 -84t-90.5 -31t-90.5 31z" />
    <glyph glyph-name="ubreve" unicode="&#x16d;" horiz-adv-x="619" 
d="M134.5 29.5q-48.5 43.5 -48.5 124.5v225q0 16 -11 26t-26 10h-14l-9 10v22l7 9l131 44h28l8 -8l-9 -79v-252q0 -52 27 -80t79 -28q37 0 67 19.5t47 52t17 71.5v183q0 16 -11 26t-27 10h-13l-9 10v22l7 9l131 44h28l8 -8l-9 -79v-294q0 -17 12 -28.5t28 -11.5h12l8 -8v-27
l-8 -8l-117 -46h-32l-8 8v75q-28 -41 -71.5 -64t-97.5 -23q-76 0 -124.5 43.5zM211.5 593q-35.5 31 -37.5 84l8 8h24l9 -8q6 -15 29.5 -24.5t57.5 -9.5t57.5 9.5t29.5 24.5l10 8h23l8 -8q-2 -53 -37.5 -84t-90.5 -31t-90.5 31z" />
    <glyph glyph-name="Uring" unicode="&#x16e;" horiz-adv-x="745" 
d="M175 58q-72 72 -72 194v354q0 15 -12.5 27.5t-27.5 12.5h-32l-8 8v38l8 8h258l8 -8v-38l-8 -8h-31q-15 0 -27.5 -12.5t-12.5 -27.5v-356q0 -86 49 -135.5t136 -49.5q82 0 131.5 49.5t49.5 135.5v356q0 15 -12.5 27.5t-27.5 12.5h-32l-8 8v38l8 8h202l8 -8v-38l-8 -8h-32
q-14 0 -27 -12.5t-13 -27.5v-349q0 -78 -31 -139.5t-90.5 -96.5t-141.5 -35q-132 0 -204 72zM329 779.5q-30 29.5 -30 71.5t30 71.5t73 29.5t73 -29.5t30 -71.5t-30 -71.5t-73 -29.5t-73 29.5zM444 809.5q16 16.5 16 41.5t-16 41.5t-42 16.5t-42 -16.5t-16 -41.5t16 -41.5
t42 -16.5t42 16.5z" />
    <glyph glyph-name="uring" unicode="&#x16f;" horiz-adv-x="619" 
d="M134.5 29.5q-48.5 43.5 -48.5 124.5v225q0 16 -11 26t-26 10h-14l-9 10v22l7 9l131 44h28l8 -8l-9 -79v-252q0 -52 27 -80t79 -28q37 0 67 19.5t47 52t17 71.5v183q0 16 -11 26t-27 10h-13l-9 10v22l7 9l131 44h28l8 -8l-9 -79v-294q0 -17 12 -28.5t28 -11.5h12l8 -8v-27
l-8 -8l-117 -46h-32l-8 8v75q-28 -41 -71.5 -64t-97.5 -23q-76 0 -124.5 43.5zM229 573.5q-30 29.5 -30 71.5t30 71.5t73 29.5t73 -29.5t30 -71.5t-30 -71.5t-73 -29.5t-73 29.5zM344 603.5q16 16.5 16 41.5t-16 41.5t-42 16.5t-42 -16.5t-16 -41.5t16 -41.5t42 -16.5
t42 16.5z" />
    <glyph glyph-name="Uhungarumlaut" unicode="&#x170;" horiz-adv-x="745" 
d="M175 58q-72 72 -72 194v354q0 15 -12.5 27.5t-27.5 12.5h-32l-8 8v38l8 8h258l8 -8v-38l-8 -8h-31q-15 0 -27.5 -12.5t-12.5 -27.5v-356q0 -86 49 -135.5t136 -49.5q82 0 131.5 49.5t49.5 135.5v356q0 15 -12.5 27.5t-27.5 12.5h-32l-8 8v38l8 8h202l8 -8v-38l-8 -8h-32
q-14 0 -27 -12.5t-13 -27.5v-349q0 -78 -31 -139.5t-90.5 -96.5t-141.5 -35q-132 0 -204 72zM559 896l-125 -120l-16 -7h-68l-5 9l81 121l13 7h116z" />
    <glyph glyph-name="uhungarumlaut" unicode="&#x171;" horiz-adv-x="619" 
d="M134.5 29.5q-48.5 43.5 -48.5 124.5v225q0 16 -11 26t-26 10h-14l-9 10v22l7 9l131 44h28l8 -8l-9 -79v-252q0 -52 27 -80t79 -28q37 0 67 19.5t47 52t17 71.5v183q0 16 -11 26t-27 10h-13l-9 10v22l7 9l131 44h28l8 -8l-9 -79v-294q0 -17 12 -28.5t28 -11.5h12l8 -8v-27
l-8 -8l-117 -46h-32l-8 8v75q-28 -41 -71.5 -64t-97.5 -23q-76 0 -124.5 43.5zM459 690l-125 -120l-16 -7h-68l-5 9l81 121l13 7h116z" />
    <glyph glyph-name="Uogonek" unicode="&#x172;" horiz-adv-x="745" 
d="M722 692v-38l-8 -8h-32q-14 0 -27 -12.5t-13 -27.5v-349q0 -94 -44 -162.5t-125 -94.5q-58 -56 -58 -114q0 -33 17 -50.5t45 -17.5q20 0 34.5 5t33.5 17l9 -3l10 -14l-1 -10q-19 -25 -48 -40.5t-66 -15.5q-53 0 -85.5 31t-32.5 81q0 34 16.5 64t45.5 53h-14
q-132 0 -204 72t-72 194v354q0 15 -12.5 27.5t-27.5 12.5h-32l-8 8v38l8 8h258l8 -8v-38l-8 -8h-31q-15 0 -27.5 -12.5t-12.5 -27.5v-356q0 -86 49 -135.5t136 -49.5q82 0 131.5 49.5t49.5 135.5v356q0 15 -12.5 27.5t-27.5 12.5h-32l-8 8v38l8 8h202z" />
    <glyph glyph-name="uogonek" unicode="&#x173;" horiz-adv-x="619" 
d="M593 69v-23l-9 -10l-101 -40q-66 -30 -66 -107q0 -35 16.5 -53t45.5 -18q19 0 34 5t34 17l9 -3l10 -14l-1 -10q-19 -25 -48.5 -40.5t-66.5 -15.5q-52 0 -84.5 31t-32.5 81q0 42 25.5 78.5t69.5 60.5v65q-28 -41 -71.5 -64t-97.5 -23q-75 0 -124 43.5t-49 122.5v225
q0 15 -11 25.5t-26 10.5h-13l-10 10v23l8 10l130 44h27l9 -9l-9 -78v-253q0 -52 27 -81t79 -29q37 0 67 19.5t47 52t17 71.5v184q0 15 -11 25.5t-26 10.5h-13l-10 10v23l8 10l130 44h27l9 -9l-9 -78v-294q0 -17 12 -28.5t28 -11.5h11z" />
    <glyph glyph-name="Wcircumflex" unicode="&#x174;" horiz-adv-x="1044" 
d="M291 8l-201 612q-9 26 -37 26h-27l-8 8v38l8 8h245l8 -8v-38l-8 -8h-32q-25 0 -25 -21q0 -6 4 -20l139 -419l147 417q4 11 4 19q0 11 -7 17.5t-18 6.5h-26l-8 8v38l8 8h195l8 -8v-38l-8 -8h-27q-12 0 -19 -7t-7 -17q0 -9 4 -17l151 -422l136 422q4 16 4 20q0 21 -24 21
h-33l-8 8v38l8 8h181l8 -8v-38l-8 -8h-26q-30 0 -39 -29l-201 -609l-8 -8h-42l-8 8l-172 487l-172 -487l-8 -8h-43zM399 778l85 120l13 8h114l13 -8l85 -120l-8 -9h-63l-5 2l-76 70h-7l-75 -70l-6 -2h-62z" />
    <glyph glyph-name="wcircumflex" unicode="&#x175;" horiz-adv-x="837" 
d="M251 10l-169 400q-8 18 -17 24t-23 6h-20l-8 8v38l8 8h233l8 -8v-38l-8 -8h-32q-13 0 -20 -6t-7 -17q0 -9 5 -20l98 -236l97 242q2 4 2 12q0 11 -7.5 18t-19.5 7h-18l-6 8v38l6 8h174l8 -8v-38l-8 -8h-20q-12 0 -20 -7t-8 -18q0 -6 3 -12l97 -246l107 243q4 12 4 17
q0 11 -6.5 17t-19.5 6h-32l-8 8v38l8 8h183l8 -8v-38l-8 -8h-26q-29 0 -41 -30l-176 -400l-10 -10h-20l-10 10l-118 295l-122 -295l-11 -10h-21zM282 572l85 120l13 8h114l13 -8l85 -120l-8 -9h-63l-5 2l-76 70h-7l-75 -70l-6 -2h-62z" />
    <glyph glyph-name="Ycircumflex" unicode="&#x176;" horiz-adv-x="661" 
d="M196 8v38l8 8h32q15 0 27.5 12.5t12.5 27.5v213l-178 309q-9 16 -19 23t-26 7h-27l-8 8v38l8 8h260l8 -8v-38l-8 -8h-34q-26 0 -26 -20q0 -13 7 -23l134 -231l130 234q6 12 6 20q0 9 -7 14.5t-19 5.5h-34l-8 8v38l8 8h192l8 -8v-38l-8 -8h-25q-18 0 -27.5 -7t-18.5 -23
l-173 -310v-212q0 -15 12.5 -27.5t27.5 -12.5h32l8 -8v-38l-8 -8h-259zM208 778l85 120l13 8h114l13 -8l85 -120l-8 -9h-63l-5 2l-76 70h-7l-75 -70l-6 -2h-62z" />
    <glyph glyph-name="ycircumflex" unicode="&#x177;" horiz-adv-x="581" 
d="M139 -217l-15 31v12l137 204l-188 390q-11 20 -30 20h-21l-8 8v38l8 8h214l8 -8v-38l-8 -8h-18q-23 0 -23 -20q0 -10 6 -22l120 -251l118 251q7 14 7 23t-6.5 14t-17.5 5h-20l-8 8v38l8 8h157l8 -8v-38l-8 -8h-17q-25 0 -36 -26l-297 -628l-12 -12h-38zM164 572l85 120
l13 8h114l13 -8l85 -120l-8 -9h-63l-5 2l-76 70h-7l-75 -70l-6 -2h-62z" />
    <glyph glyph-name="Ydieresis" unicode="&#x178;" horiz-adv-x="661" 
d="M196 8v38l8 8h32q15 0 27.5 12.5t12.5 27.5v213l-178 309q-9 16 -19 23t-26 7h-27l-8 8v38l8 8h260l8 -8v-38l-8 -8h-34q-26 0 -26 -20q0 -13 7 -23l134 -231l130 234q6 12 6 20q0 9 -7 14.5t-19 5.5h-34l-8 8v38l8 8h192l8 -8v-38l-8 -8h-25q-18 0 -27.5 -7t-18.5 -23
l-173 -310v-212q0 -15 12.5 -27.5t27.5 -12.5h32l8 -8v-38l-8 -8h-259zM225 789.5q-18 18.5 -18 43.5q0 26 18.5 45t43.5 19q26 0 44.5 -19t18.5 -45q0 -25 -18.5 -43.5t-44.5 -18.5t-44 18.5zM410 789.5q-18 18.5 -18 43.5q0 26 18.5 45t43.5 19q26 0 45 -19t19 -45
q0 -25 -19 -43.5t-45 -18.5t-44 18.5z" />
    <glyph glyph-name="Zacute" unicode="&#x179;" horiz-adv-x="610" 
d="M29 12l401 590h-217q-49 0 -71 -28t-28 -80l-8 -8h-33l-8 8v196l10 10h478l8 -12l-400 -590h213q125 0 143 148l8 8h37l8 -8l-15 -238l-8 -8h-510zM266 778l81 121l13 7h114l4 -10l-125 -120l-16 -7h-66z" />
    <glyph glyph-name="zacute" unicode="&#x17a;" horiz-adv-x="490" 
d="M29 10l290 398h-121q-40 0 -62.5 -25.5t-27.5 -68.5l-8 -8h-31l-8 8v172l8 8h368l8 -8l-290 -400h133q56 0 81 29.5t32 81.5l8 8h36l6 -8l-12 -189l-8 -8h-394zM202 572l81 121l13 7h114l4 -10l-125 -120l-16 -7h-66z" />
    <glyph glyph-name="Zdotaccent" unicode="&#x17b;" horiz-adv-x="610" 
d="M29 12l401 590h-217q-49 0 -71 -28t-28 -80l-8 -8h-33l-8 8v196l10 10h478l8 -12l-400 -590h213q125 0 143 148l8 8h37l8 -8l-15 -238l-8 -8h-510zM257 802q-20 20 -20 48q0 29 20 49t49 20q28 0 48 -20.5t20 -48.5t-20 -48t-48 -20q-29 0 -49 20z" />
    <glyph glyph-name="zdotaccent" unicode="&#x17c;" horiz-adv-x="490" 
d="M29 10l290 398h-121q-40 0 -62.5 -25.5t-27.5 -68.5l-8 -8h-31l-8 8v172l8 8h368l8 -8l-290 -400h133q56 0 81 29.5t32 81.5l8 8h36l6 -8l-12 -189l-8 -8h-394zM192 596q-20 20 -20 48q0 29 20 49t49 20q28 0 48 -20.5t20 -48.5t-20 -48t-48 -20q-29 0 -49 20z" />
    <glyph glyph-name="Zcaron" unicode="&#x17d;" horiz-adv-x="610" 
d="M29 12l401 590h-217q-49 0 -71 -28t-28 -80l-8 -8h-33l-8 8v196l10 10h478l8 -12l-400 -590h213q125 0 143 148l8 8h37l8 -8l-15 -238l-8 -8h-510zM235 777l-85 120l8 9h62l6 -2l75 -70h7l76 70l5 2h63l8 -9l-85 -120l-13 -8h-114z" />
    <glyph glyph-name="zcaron" unicode="&#x17e;" horiz-adv-x="490" 
d="M29 10l290 398h-121q-40 0 -62.5 -25.5t-27.5 -68.5l-8 -8h-31l-8 8v172l8 8h368l8 -8l-290 -400h133q56 0 81 29.5t32 81.5l8 8h36l6 -8l-12 -189l-8 -8h-394zM171 571l-85 120l8 9h62l6 -2l75 -70h7l76 70l5 2h63l8 -9l-85 -120l-13 -8h-114z" />
    <glyph glyph-name="florin" unicode="&#x192;" horiz-adv-x="378" 
d="M-117.5 -198.5q-21.5 18.5 -21.5 49.5q0 30 19 48t49 18q29 0 48.5 -21t16.5 -55q24 13 39.5 37t22.5 65l-5 13l-32 16l-6 13l82 408l2 20q0 12 -9 18.5t-25 6.5h-12l-7 8v40l9 8h62l9 48q18 89 66 130.5t105 41.5q36 0 57.5 -18.5t21.5 -49.5q0 -29 -18 -48t-47 -19
q-31 0 -50 21.5t-16 55.5q-25 -13 -40 -36.5t-23 -65.5l5 -14l33 -15l5 -13l-4 -18h70l6 -8v-40l-10 -8h-77l-96 -482q-18 -91 -65.5 -132t-107.5 -41q-35 0 -56.5 18.5z" />
    <glyph glyph-name="uni01B5" unicode="&#x1b5;" horiz-adv-x="610" 
d="M570 246l-15 -238l-8 -8h-510l-8 12l211 311h-111l-8 8v38l8 8h148l153 225h-217q-49 0 -71 -28t-28 -80l-8 -8h-33l-8 8v196l10 10h478l8 -12l-211 -311h120l8 -8v-38l-8 -8h-156l-153 -225h213q125 0 143 148l8 8h37z" />
    <glyph glyph-name="uni01B6" unicode="&#x1b6;" horiz-adv-x="490" 
d="M29 10l159 218h-65l-8 8v28l8 8h97l99 136h-130q-40 0 -57.5 -18.5t-23.5 -55.5l-8 -8h-31l-8 8v150l10 10h366l8 -10l-155 -212h68l8 -8v-29l-8 -7h-100l-103 -142h142q50 0 73 24.5t31 71.5l8 8h36l6 -8l-12 -174l-8 -8h-394z" />
    <glyph glyph-name="AEacute" unicode="&#x1fc;" horiz-adv-x="970" 
d="M28 8v38l8 8h22q27 0 40 30l227 519q6 12 6 22q0 9 -6 15t-18 6h-10l-8 8v38l8 8h498l9 -9v-31l-25 -109l-8 -8h-32l-8 8q-12 95 -91 95h-176q-25 0 -25 -20q0 -8 6 -22l91 -208l14 -9h147q15 0 27.5 13t12.5 27v12l8 8h37l8 -8v-158l-8 -8h-37l-8 8v12q0 15 -12.5 27.5
t-27.5 12.5h-124l-7 -8l104 -238q14 -33 59 -33h30q62 0 91.5 39t36.5 92l8 8h39l6 -8l-15 -177l-8 -8h-424l-8 8v38l8 8h30q13 0 20 6t7 16q0 6 -5 18l-26 56h-328l-23 -56q-5 -12 -5 -18q0 -10 7 -16t20 -6h30l8 -8v-38l-8 -8h-184zM497 204l-141 324l-141 -324h282z
M424 778l81 121l13 7h114l4 -10l-125 -120l-16 -7h-66z" />
    <glyph glyph-name="aeacute" unicode="&#x1fd;" horiz-adv-x="871" 
d="M830 174l4 -9q-24 -80 -87 -129.5t-148 -49.5q-69 0 -123 27.5t-87 74.5q-28 -50 -74 -76t-104 -26q-72 0 -123.5 35.5t-51.5 109.5q0 70 55 117t169 47h80q0 65 -28.5 105.5t-93.5 40.5q-47 0 -82 -24t-56 -66l-10 -4l-11 4l-5 9q18 76 74 112t117 36q52 0 93 -21.5
t67 -62.5q34 40 83 62t106 22q78 0 132 -35.5t81 -95t27 -130.5l-8 -8h-384q0 -47 22.5 -87t63 -63t91.5 -23q123 0 189 109l9 4zM516 431.5q-34 -21.5 -52.5 -56t-21.5 -72.5l8 -8h241q34 0 34 32q0 53 -35.5 89.5t-95.5 36.5q-44 0 -78 -21.5zM339 231l-8 8h-63
q-60 0 -91 -29.5t-31 -74.5q0 -38 22.5 -62t64.5 -24q46 0 76 35t30 97v50zM378 572l81 121l13 7h114l4 -10l-125 -120l-16 -7h-66z" />
    <glyph glyph-name="uni0218" unicode="&#x218;" horiz-adv-x="507" 
d="M136 2.5q-51 16.5 -86 41.5l-7 13l8 145l9 9h33l9 -9q8 -79 49.5 -120.5t99.5 -41.5q51 0 81.5 32.5t30.5 84.5q0 42 -16 70t-44 48t-78 45q-85 43 -128.5 89.5t-43.5 117.5q0 57 28.5 99.5t77 65t106.5 22.5q51 0 94 -13.5t68 -34.5l6 -10l5 -127l-9 -9h-35l-9 9
q-6 67 -38 99t-81 32t-78.5 -28t-29.5 -73t32.5 -76t111.5 -71q78 -40 123 -88.5t45 -131.5q0 -56 -26.5 -103t-77.5 -75t-120 -28q-59 0 -110 16.5zM200 -309l-7 11l2 11q28 17 41.5 38.5t14.5 41.5q-26 1 -45 20t-19 46t19.5 47t46.5 20q30 0 49.5 -21.5t19.5 -57.5
q0 -56 -33.5 -97t-79.5 -61z" />
    <glyph glyph-name="uni0219" unicode="&#x219;" horiz-adv-x="432" 
d="M121.5 -1q-43.5 13 -74.5 33l-5 10l27 107l9 9h26l9 -9q-3 -56 26.5 -86t74.5 -30q38 0 59 21.5t21 55.5q0 41 -24 63t-75 42q-70 27 -105 61.5t-35 83.5q0 67 48 107.5t125 40.5q65 0 124 -31l7 -10l5 -111l-9 -9h-30l-9 9q-3 48 -26 76t-64 28q-33 0 -54.5 -19
t-21.5 -50t26 -54t90 -49q61 -25 95 -57.5t34 -87.5q0 -73 -51.5 -115t-127.5 -42q-51 0 -94.5 13zM159 -309l-7 11l2 11q28 17 41.5 38.5t14.5 41.5q-26 1 -45 20t-19 46t19.5 47t46.5 20q30 0 49.5 -21.5t19.5 -57.5q0 -56 -33.5 -97t-79.5 -61z" />
    <glyph glyph-name="uni021A" unicode="&#x21a;" horiz-adv-x="670" 
d="M197 8v38l8 8h32q15 0 27.5 12.5t12.5 27.5v552h-50q-125 0 -142 -131l-8 -8h-38l-7 8l15 177l8 8h560l8 -8l15 -177l-6 -8h-39l-8 8q-17 131 -142 131h-50v-552q0 -15 12.5 -27.5t27.5 -12.5h32l8 -8v-38l-8 -8h-260zM278 -309l-7 11l2 11q28 17 41.5 38.5t14.5 41.5
q-26 1 -45 20t-19 46t19.5 47t46.5 20q30 0 49.5 -21.5t19.5 -57.5q0 -56 -33.5 -97t-79.5 -61z" />
    <glyph glyph-name="uni021B" unicode="&#x21b;" horiz-adv-x="383" 
d="M126 22q-37 36 -37 101v315h-73l-8 8v17l161 160h17l8 -8v-121h130l8 -8v-40l-8 -8h-130v-317q0 -30 17.5 -48.5t44.5 -18.5q24 0 42 10.5t34 33.5l8 3l18 -8l3 -8q-12 -38 -45 -68.5t-92 -30.5q-61 0 -98 36zM166 -309l-7 11l2 11q28 17 41.5 38.5t14.5 41.5
q-26 1 -45 20t-19 46t19.5 47t46.5 20q30 0 49.5 -21.5t19.5 -57.5q0 -56 -33.5 -97t-79.5 -61z" />
    <glyph glyph-name="uni0237" unicode="&#x237;" horiz-adv-x="236" 
d="M-15 -221q-22 19 -22 50q0 26 18 44.5t46 18.5q30 0 47.5 -20t16.5 -53q41 22 41 92l-7 10l-40 17l-7 9v421q0 16 -11 26t-26 10h-13l-10 10v21l8 10l130 49h27l8 -8l-8 -75v-488q0 -85 -40.5 -124t-98.5 -39q-37 0 -59 19z" />
    <glyph glyph-name="circumflex" unicode="&#x2c6;" horiz-adv-x="377" 
d="M34 572l85 120l13 8h113l13 -8l86 -120l-8 -9h-63l-5 2l-76 70h-7l-76 -70l-5 -2h-63z" />
    <glyph glyph-name="caron" unicode="&#x2c7;" horiz-adv-x="370" 
d="M115 571l-85 120l8 9h62l6 -2l75 -70h7l76 70l5 2h63l8 -9l-85 -120l-13 -8h-114z" />
    <glyph glyph-name="uni02C9" unicode="&#x2c9;" horiz-adv-x="250" 
d="M0 591v48l8 8h234l8 -8v-48l-8 -8h-234z" />
    <glyph glyph-name="breve" unicode="&#x2d8;" horiz-adv-x="314" 
d="M67.5 593q-35.5 31 -37.5 84l8 8h24l9 -8q6 -18 29.5 -29t56.5 -11t56.5 11t29.5 29l10 8h23l8 -8q-2 -53 -37.5 -84t-89.5 -31t-89.5 31z" />
    <glyph glyph-name="dotaccent" unicode="&#x2d9;" horiz-adv-x="198" 
d="M50.5 595.5q-20.5 20.5 -20.5 48.5q0 29 20.5 49t48.5 20q29 0 49 -20t20 -49q0 -28 -20 -48.5t-49 -20.5q-28 0 -48.5 20.5z" />
    <glyph glyph-name="ring" unicode="&#x2da;" horiz-adv-x="266" 
d="M60 573.5q-30 29.5 -30 71.5t30 71.5t73 29.5t73 -29.5t30 -71.5t-30 -71.5t-73 -29.5t-73 29.5zM175 603.5q16 16.5 16 41.5t-16 41.5t-42 16.5t-42 -16.5t-16 -41.5t16 -41.5t42 -16.5t42 16.5z" />
    <glyph glyph-name="ogonek" unicode="&#x2db;" horiz-adv-x="293" 
d="M62.5 -209q-32.5 31 -32.5 81q0 46 30 84.5t80 61.5l32 -15q-58 -56 -58 -114q0 -33 17 -50.5t45 -17.5q20 0 34.5 5t33.5 17l9 -3l10 -14l-1 -10q-19 -25 -48 -40.5t-66 -15.5q-53 0 -85.5 31z" />
    <glyph glyph-name="tilde" unicode="&#x2dc;" horiz-adv-x="412" 
d="M230 570q-20 9 -45 26q-22 14 -36 21t-31 7q-23 0 -36.5 -13.5t-18.5 -33.5l-8 -8h-17l-8 8q2 55 33 86.5t75 31.5q25 0 44.5 -9t46.5 -26q23 -14 37 -21t30 -7q22 0 35 14t18 33l8 8h17l8 -8q-1 -56 -31.5 -87t-74.5 -31q-26 0 -46 9z" />
    <glyph glyph-name="hungarumlaut" unicode="&#x2dd;" horiz-adv-x="450" 
d="M332 690l-125 -120l-16 -7h-68l-5 9l81 121l13 7h116z" />
    <glyph glyph-name="gravecomb" unicode="&#x300;" horiz-adv-x="0" 
d="M-87 570l-125 120l4 10h114l13 -7l81 -121l-5 -9h-66z" />
    <glyph glyph-name="acutecomb" unicode="&#x301;" horiz-adv-x="0" 
d="M-212 572l81 121l13 7h114l4 -10l-125 -120l-16 -7h-66z" />
    <glyph glyph-name="uni0302" unicode="&#x302;" horiz-adv-x="0" 
d="M-310 572l85 120l13 8h114l13 -8l85 -120l-8 -9h-63l-5 2l-76 70h-7l-75 -70l-6 -2h-62z" />
    <glyph glyph-name="tildecomb" unicode="&#x303;" horiz-adv-x="0" 
d="M-152 570q-20 9 -45 26q-22 14 -36 21t-31 7q-23 0 -36.5 -13.5t-18.5 -33.5l-8 -8h-17l-8 8q2 55 33 86.5t75 31.5q25 0 44.5 -9t46.5 -26q23 -14 37 -21t30 -7q22 0 35 14t18 33l8 8h17l8 -8q-1 -56 -31.5 -87t-74.5 -31q-26 0 -46 9z" />
    <glyph glyph-name="uni0304" unicode="&#x304;" horiz-adv-x="0" 
d="M-250 591v48l8 8h234l8 -8v-48l-8 -8h-234z" />
    <glyph glyph-name="uni0306" unicode="&#x306;" horiz-adv-x="0" 
d="M-218.5 593q-35.5 31 -37.5 84l8 8h24l9 -8q6 -15 29.5 -24.5t57.5 -9.5t57.5 9.5t29.5 24.5l10 8h23l8 -8q-2 -53 -37.5 -84t-90.5 -31t-90.5 31z" />
    <glyph glyph-name="uni0307" unicode="&#x307;" horiz-adv-x="0" 
d="M-117 596q-20 20 -20 48q0 29 20 49t49 20q28 0 48 -20.5t20 -48.5t-20 -48t-48 -20q-29 0 -49 20z" />
    <glyph glyph-name="uni0308" unicode="&#x308;" horiz-adv-x="0" 
d="M-303 598q-19 19 -19 46q0 28 19 47.5t46 19.5t47 -19.5t20 -47.5q0 -27 -20 -46t-47 -19t-46 19zM-113 598q-19 19 -19 46q0 28 19 47.5t46 19.5t47 -19.5t20 -47.5q0 -27 -20 -46t-47 -19t-46 19z" />
    <glyph glyph-name="uni030A" unicode="&#x30a;" horiz-adv-x="0" 
d="M-176 573.5q-30 29.5 -30 71.5t30 71.5t73 29.5t73 -29.5t30 -71.5t-30 -71.5t-73 -29.5t-73 29.5zM-61 603.5q16 16.5 16 41.5t-16 41.5t-42 16.5t-42 -16.5t-16 -41.5t16 -41.5t42 -16.5t42 16.5z" />
    <glyph glyph-name="uni030B" unicode="&#x30b;" horiz-adv-x="0" 
d="M-88 690l-125 -120l-16 -7h-68l-5 9l81 121l13 7h116z" />
    <glyph glyph-name="uni030C" unicode="&#x30c;" horiz-adv-x="0" 
d="M-225 571l-85 120l8 9h62l6 -2l75 -70h7l76 70l5 2h63l8 -9l-85 -120l-13 -8h-114z" />
    <glyph glyph-name="uni0312" unicode="&#x312;" horiz-adv-x="0" 
d="M-118 585.5q-19 21.5 -19 57.5q0 56 33.5 97t79.5 61l9 -2l7 -11l-2 -11q-28 -17 -41.5 -38.5t-14.5 -41.5q26 -1 45 -20t19 -46q0 -28 -19 -47.5t-47 -19.5q-31 0 -50 21.5z" />
    <glyph glyph-name="uni0326" unicode="&#x326;" horiz-adv-x="0" 
d="M-122 -309l-7 11l2 11q28 17 41.5 38.5t14.5 41.5q-26 1 -45 20t-19 46t19.5 47t46.5 20q30 0 49.5 -21.5t19.5 -57.5q0 -56 -33.5 -97t-79.5 -61z" />
    <glyph glyph-name="uni0327" unicode="&#x327;" horiz-adv-x="0" 
d="M-220 -204l-3 11l8 12l9 3q15 -10 29.5 -15t35.5 -5q26 0 42.5 13t16.5 41q0 25 -13 39t-38 14q-29 0 -57 -18h-7l-6 7v7l55 125l65 -12l-59 -81q21 12 53 12q41 0 65 -24.5t24 -61.5q0 -45 -34 -74t-92 -29q-56 0 -94 36z" />
    <glyph glyph-name="uni0328" unicode="&#x328;" horiz-adv-x="0" 
d="M-200.5 -209q-32.5 31 -32.5 81q0 46 30 84.5t80 61.5l32 -15q-58 -56 -58 -114q0 -33 17 -50.5t45 -17.5q20 0 34.5 5t33.5 17l9 -3l10 -14l-1 -10q-19 -25 -48 -40.5t-66 -15.5q-53 0 -85.5 31z" />
    <glyph glyph-name="uni0335" unicode="&#x335;" horiz-adv-x="0" 
d="M-478 290v54l8 8h462l8 -8v-54l-8 -8h-462z" />
    <glyph glyph-name="uni0336" unicode="&#x336;" horiz-adv-x="0" 
d="M-748 290v54l8 8h732l8 -8v-54l-8 -8h-732z" />
    <glyph glyph-name="uni0337" unicode="&#x337;" horiz-adv-x="0" 
d="M-320 43l230 408l12 8h70l8 -8l-231 -408l-12 -8h-69z" />
    <glyph glyph-name="uni0338" unicode="&#x338;" horiz-adv-x="0" 
d="M-419 53l330 594l12 8h69l8 -8l-330 -594l-12 -8h-69z" />
    <glyph glyph-name="uni0394" unicode="&#x394;" horiz-adv-x="646" 
d="M30 8v43l252 641l8 8h65l8 -8l259 -640v-44l-8 -8h-576zM483 65l-195 489l-188 -489h383z" />
    <glyph glyph-name="uni03A9" unicode="&#x3a9;" horiz-adv-x="775" 
d="M63 8l-9 123l6 8h34l8 -8q2 -33 18 -44.5t43 -11.5h94q-90 40 -151.5 119.5t-61.5 192.5q0 90 42.5 165t120.5 118.5t180 43.5q103 0 181 -43.5t120.5 -118.5t42.5 -165q0 -113 -61.5 -192.5t-151.5 -119.5h94q27 0 43 11.5t18 44.5l8 8h34l6 -8l-9 -123l-8 -8h-256l-8 8
v67l8 10q166 94 166 296q0 81 -28.5 144t-80 98t-118.5 35q-66 0 -117.5 -35t-80 -98t-28.5 -144q0 -201 165 -296l8 -10v-67l-8 -8h-255z" />
    <glyph glyph-name="uni03BC" unicode="&#x3bc;" horiz-adv-x="616" 
d="M50 -218v704l8 8h93l8 -8v-320q0 -54 27 -85t78 -31q38 0 68 20t47 54.5t17 74.5v288l8 8h89l8 -8v-374q0 -33 11.5 -48t34.5 -15q18 0 42 7l8 -8v-44l-8 -8q-28 -11 -67 -11q-97 0 -117 79q-64 -79 -164 -79q-49 0 -82 17l4 -221l-8 -8h-97z" />
    <glyph glyph-name="pi" unicode="&#x3c0;" 
d="M433.5 14q-37.5 28 -37.5 93v306h-171v-405l-8 -8h-89l-8 8v405h-92l-8 8l15 65l8 8h569l8 -8l-15 -65l-8 -8h-96v-296q0 -34 15 -50.5t38 -16.5q20 0 44 7l8 -8v-44l-8 -8q-30 -11 -69 -11q-58 0 -95.5 28z" />
    <glyph glyph-name="uni0E3F" unicode="&#xe3f;" horiz-adv-x="654" 
d="M577.5 311q40.5 -47 40.5 -113q0 -63 -33 -107.5t-89 -67.5t-123 -23h-5v-80l-8 -8h-38l-8 8v80h-270l-8 8v38l8 8h32q15 0 27.5 12.5t12.5 27.5v512q0 15 -12.5 27.5t-27.5 12.5h-31l-9 9v36l9 9h269v80l8 8h38l8 -8v-80q101 -4 158.5 -52.5t57.5 -125.5
q0 -97 -115 -148q68 -16 108.5 -63zM231 393h83v253h-44q-15 0 -27 -12.5t-12 -27.5v-213zM439.5 600q-23.5 33 -71.5 43v-248q47 9 71 41.5t24 82.5q0 48 -23.5 81zM314 54v285h-83v-245q0 -15 12.5 -27.5t27.5 -12.5h43zM464.5 100.5q32.5 40.5 32.5 98.5q0 59 -32 97
t-97 42v-283q64 5 96.5 45.5z" />
    <glyph glyph-name="Wgrave" unicode="&#x1e80;" horiz-adv-x="1044" 
d="M291 8l-201 612q-9 26 -37 26h-27l-8 8v38l8 8h245l8 -8v-38l-8 -8h-32q-25 0 -25 -21q0 -6 4 -20l139 -419l147 417q4 11 4 19q0 11 -7 17.5t-18 6.5h-26l-8 8v38l8 8h195l8 -8v-38l-8 -8h-27q-12 0 -19 -7t-7 -17q0 -9 4 -17l151 -422l136 422q4 16 4 20q0 21 -24 21
h-33l-8 8v38l8 8h181l8 -8v-38l-8 -8h-26q-30 0 -39 -29l-201 -609l-8 -8h-42l-8 8l-172 487l-172 -487l-8 -8h-43zM506 776l-125 120l4 10h114l13 -7l81 -121l-5 -9h-66z" />
    <glyph glyph-name="wgrave" unicode="&#x1e81;" horiz-adv-x="837" 
d="M251 10l-169 400q-8 18 -17 24t-23 6h-20l-8 8v38l8 8h233l8 -8v-38l-8 -8h-32q-13 0 -20 -6t-7 -17q0 -9 5 -20l98 -236l97 242q2 4 2 12q0 11 -7.5 18t-19.5 7h-18l-6 8v38l6 8h174l8 -8v-38l-8 -8h-20q-12 0 -20 -7t-8 -18q0 -6 3 -12l97 -246l107 243q4 12 4 17
q0 11 -6.5 17t-19.5 6h-32l-8 8v38l8 8h183l8 -8v-38l-8 -8h-26q-29 0 -41 -30l-176 -400l-10 -10h-20l-10 10l-118 295l-122 -295l-11 -10h-21zM388 570l-125 120l4 10h114l13 -7l81 -121l-5 -9h-66z" />
    <glyph glyph-name="Wacute" unicode="&#x1e82;" horiz-adv-x="1044" 
d="M291 8l-201 612q-9 26 -37 26h-27l-8 8v38l8 8h245l8 -8v-38l-8 -8h-32q-25 0 -25 -21q0 -6 4 -20l139 -419l147 417q4 11 4 19q0 11 -7 17.5t-18 6.5h-26l-8 8v38l8 8h195l8 -8v-38l-8 -8h-27q-12 0 -19 -7t-7 -17q0 -9 4 -17l151 -422l136 422q4 16 4 20q0 21 -24 21
h-33l-8 8v38l8 8h181l8 -8v-38l-8 -8h-26q-30 0 -39 -29l-201 -609l-8 -8h-42l-8 8l-172 487l-172 -487l-8 -8h-43zM515 778l81 121l13 7h114l4 -10l-125 -120l-16 -7h-66z" />
    <glyph glyph-name="wacute" unicode="&#x1e83;" horiz-adv-x="837" 
d="M251 10l-169 400q-8 18 -17 24t-23 6h-20l-8 8v38l8 8h233l8 -8v-38l-8 -8h-32q-13 0 -20 -6t-7 -17q0 -9 5 -20l98 -236l97 242q2 4 2 12q0 11 -7.5 18t-19.5 7h-18l-6 8v38l6 8h174l8 -8v-38l-8 -8h-20q-12 0 -20 -7t-8 -18q0 -6 3 -12l97 -246l107 243q4 12 4 17
q0 11 -6.5 17t-19.5 6h-32l-8 8v38l8 8h183l8 -8v-38l-8 -8h-26q-29 0 -41 -30l-176 -400l-10 -10h-20l-10 10l-118 295l-122 -295l-11 -10h-21zM398 572l81 121l13 7h114l4 -10l-125 -120l-16 -7h-66z" />
    <glyph glyph-name="Wdieresis" unicode="&#x1e84;" horiz-adv-x="1044" 
d="M291 8l-201 612q-9 26 -37 26h-27l-8 8v38l8 8h245l8 -8v-38l-8 -8h-32q-25 0 -25 -21q0 -6 4 -20l139 -419l147 417q4 11 4 19q0 11 -7 17.5t-18 6.5h-26l-8 8v38l8 8h195l8 -8v-38l-8 -8h-27q-12 0 -19 -7t-7 -17q0 -9 4 -17l151 -422l136 422q4 16 4 20q0 21 -24 21
h-33l-8 8v38l8 8h181l8 -8v-38l-8 -8h-26q-30 0 -39 -29l-201 -609l-8 -8h-42l-8 8l-172 487l-172 -487l-8 -8h-43zM416 789.5q-18 18.5 -18 43.5q0 26 18.5 45t43.5 19q26 0 44.5 -19t18.5 -45q0 -25 -18.5 -43.5t-44.5 -18.5t-44 18.5zM601 789.5q-18 18.5 -18 43.5
q0 26 18.5 45t43.5 19q26 0 45 -19t19 -45q0 -25 -19 -43.5t-45 -18.5t-44 18.5z" />
    <glyph glyph-name="wdieresis" unicode="&#x1e85;" horiz-adv-x="837" 
d="M251 10l-169 400q-8 18 -17 24t-23 6h-20l-8 8v38l8 8h233l8 -8v-38l-8 -8h-32q-13 0 -20 -6t-7 -17q0 -9 5 -20l98 -236l97 242q2 4 2 12q0 11 -7.5 18t-19.5 7h-18l-6 8v38l6 8h174l8 -8v-38l-8 -8h-20q-12 0 -20 -7t-8 -18q0 -6 3 -12l97 -246l107 243q4 12 4 17
q0 11 -6.5 17t-19.5 6h-32l-8 8v38l8 8h183l8 -8v-38l-8 -8h-26q-29 0 -41 -30l-176 -400l-10 -10h-20l-10 10l-118 295l-122 -295l-11 -10h-21zM294 598q-19 19 -19 46q0 28 19 47.5t46 19.5t47 -19.5t20 -47.5q0 -27 -20 -46t-47 -19t-46 19zM484 598q-19 19 -19 46
q0 28 19 47.5t46 19.5t47 -19.5t20 -47.5q0 -27 -20 -46t-47 -19t-46 19z" />
    <glyph glyph-name="uni1E9E" unicode="&#x1e9e;" horiz-adv-x="685" 
d="M342 0q-35 14 -56 36l-4 15l15 24l15 3q47 -33 101 -33q56 0 86.5 41t30.5 108q0 178 -200 183l-8 8v30l126 223l-8 8h-169q-15 0 -27.5 -12.5t-12.5 -27.5v-598l-8 -8h-179l-8 8v38l8 8h32q15 0 27.5 12.5t12.5 27.5v512q0 15 -12.5 27.5t-27.5 12.5h-32l-8 8v38l8 8
h517l8 -8v-8l-136 -240q55 -8 104 -35.5t80 -78.5t31 -122q0 -54 -25 -105t-77 -84t-128 -33q-41 0 -76 14z" />
    <glyph glyph-name="Ygrave" unicode="&#x1ef2;" horiz-adv-x="661" 
d="M196 8v38l8 8h32q15 0 27.5 12.5t12.5 27.5v213l-178 309q-9 16 -19 23t-26 7h-27l-8 8v38l8 8h260l8 -8v-38l-8 -8h-34q-26 0 -26 -20q0 -13 7 -23l134 -231l130 234q6 12 6 20q0 9 -7 14.5t-19 5.5h-34l-8 8v38l8 8h192l8 -8v-38l-8 -8h-25q-18 0 -27.5 -7t-18.5 -23
l-173 -310v-212q0 -15 12.5 -27.5t27.5 -12.5h32l8 -8v-38l-8 -8h-259zM314 776l-125 120l4 10h114l13 -7l81 -121l-5 -9h-66z" />
    <glyph glyph-name="ygrave" unicode="&#x1ef3;" horiz-adv-x="581" 
d="M139 -217l-15 31v12l137 204l-188 390q-11 20 -30 20h-21l-8 8v38l8 8h214l8 -8v-38l-8 -8h-18q-23 0 -23 -20q0 -10 6 -22l120 -251l118 251q7 14 7 23t-6.5 14t-17.5 5h-20l-8 8v38l8 8h157l8 -8v-38l-8 -8h-17q-25 0 -36 -26l-297 -628l-12 -12h-38zM270 570l-125 120
l4 10h114l13 -7l81 -121l-5 -9h-66z" />
    <glyph glyph-name="endash" unicode="&#x2013;" horiz-adv-x="558" 
d="M40 290v54l8 8h462l8 -8v-54l-8 -8h-462z" />
    <glyph glyph-name="emdash" unicode="&#x2014;" horiz-adv-x="828" 
d="M40 290v54l8 8h732l8 -8v-54l-8 -8h-732z" />
    <glyph glyph-name="quoteleft" unicode="&#x2018;" horiz-adv-x="219" 
d="M163 708l7 -11l-2 -11q-28 -17 -41.5 -38.5t-14.5 -41.5q26 -1 45 -20t19 -46q0 -28 -19 -47.5t-47 -19.5q-30 0 -49.5 21.5t-19.5 57.5q0 56 33.5 97t79.5 61z" />
    <glyph glyph-name="quoteright" unicode="&#x2019;" horiz-adv-x="219" 
d="M56 475l-7 11l2 11q28 17 41.5 38.5t14.5 41.5q-26 1 -45 20t-19 46t19.5 47t46.5 20q30 0 49.5 -21.5t19.5 -57.5q0 -56 -33.5 -97t-79.5 -61z" />
    <glyph glyph-name="quotesinglbase" unicode="&#x201a;" horiz-adv-x="219" 
d="M56 -110l-7 11l2 11q28 17 41.5 38.5t14.5 41.5q-26 1 -45 20t-19 46t19.5 47t46.5 20q30 0 49.5 -21.5t19.5 -57.5q0 -56 -33.5 -97t-79.5 -61z" />
    <glyph glyph-name="quotedblleft" unicode="&#x201c;" horiz-adv-x="389" 
d="M163 708l7 -11l-2 -11q-28 -17 -41.5 -38.5t-14.5 -41.5q26 -1 45 -20t19 -46q0 -28 -19 -47.5t-47 -19.5q-30 0 -49.5 21.5t-19.5 57.5q0 56 33.5 97t79.5 61zM333 708l7 -11l-3 -11q-27 -17 -40.5 -38.5t-15.5 -41.5q27 -1 46 -20t19 -46q0 -28 -19.5 -47.5
t-47.5 -19.5q-30 0 -49 21.5t-19 57.5q0 56 33.5 97t78.5 61z" />
    <glyph glyph-name="quotedblright" unicode="&#x201d;" horiz-adv-x="389" 
d="M56 475l-7 11l2 11q28 17 41.5 38.5t14.5 41.5q-26 1 -45 20t-19 46t19.5 47t46.5 20q30 0 49.5 -21.5t19.5 -57.5q0 -56 -33.5 -97t-79.5 -61zM226 475l-7 11l2 11q28 17 41.5 38.5t14.5 41.5q-26 1 -45 20t-19 46t19.5 47t46.5 20q30 0 49.5 -21.5t19.5 -57.5
q0 -56 -33.5 -97t-79.5 -61z" />
    <glyph glyph-name="quotedblbase" unicode="&#x201e;" horiz-adv-x="389" 
d="M56 -110l-7 11l2 11q28 17 41.5 38.5t14.5 41.5q-26 1 -45 20t-19 46t19.5 47t46.5 20q30 0 49.5 -21.5t19.5 -57.5q0 -56 -33.5 -97t-79.5 -61zM226 -110l-7 11l2 11q28 17 41.5 38.5t14.5 41.5q-26 1 -45 20t-19 46t19.5 47t46.5 20q30 0 49.5 -21.5t19.5 -57.5
q0 -56 -33.5 -97t-79.5 -61z" />
    <glyph glyph-name="dagger" unicode="&#x2020;" horiz-adv-x="380" 
d="M140 -216l19 643l-133 -9l-10 10v56l10 10l133 -9l-20 205l10 10h80l10 -10l-20 -205l135 9l10 -10v-56l-10 -10l-135 9l19 -643l-10 -10h-78z" />
    <glyph glyph-name="daggerdbl" unicode="&#x2021;" horiz-adv-x="380" 
d="M139 -216l20 429l-133 -9l-10 10v56l10 10l133 -9l-7 72v9l7 75l-133 -9l-10 10v56l10 10l133 -9l-20 205l10 10h80l10 -10l-20 -205l135 9l10 -10v-56l-10 -10l-135 9l7 -75v-9l-7 -72l135 9l10 -10v-56l-10 -10l-135 9l20 -429l-10 -10h-80z" />
    <glyph glyph-name="bullet" unicode="&#x2022;" horiz-adv-x="275" 
d="M69 242q-28 28 -28 68t28 68.5t68 28.5q41 0 69 -28t28 -69q0 -40 -28.5 -68t-68.5 -28t-68 28z" />
    <glyph glyph-name="ellipsis" unicode="&#x2026;" horiz-adv-x="607" 
d="M60 5q-19 19 -19 47t19 47.5t47 19.5t47.5 -19.5t19.5 -47.5t-19.5 -47t-47.5 -19t-47 19zM256 5q-19 19 -19 47t19 47.5t47 19.5t47.5 -19.5t19.5 -47.5t-19.5 -47t-47.5 -19t-47 19zM452 5q-19 19 -19 47t19 47.5t47 19.5t47.5 -19.5t19.5 -47.5t-19.5 -47t-47.5 -19
t-47 19z" />
    <glyph glyph-name="perthousand" unicode="&#x2030;" horiz-adv-x="982" 
d="M110.5 418.5q-37.5 20.5 -59 57t-21.5 80.5t21.5 80.5t59 57t83.5 20.5t83.5 -20.5t59 -57t21.5 -80.5t-21.5 -80.5t-59 -57t-83.5 -20.5t-83.5 20.5zM250 473q21 29 21 83t-21 83t-56 29t-56 -29t-21 -83t21 -83t56 -29t56 29zM86 214l-15 33l4 13l451 235l13 -5l15 -32
l-3 -14l-451 -235zM350.5 6.5q-37.5 20.5 -59 57t-21.5 80.5t21.5 80.5t59 57t83.5 20.5t83.5 -20.5t59 -57t21.5 -80.5t-21.5 -80.5t-59 -57t-83.5 -20.5t-83.5 20.5zM704.5 6.5q-37.5 20.5 -59 57t-21.5 80.5t21.5 80.5t59 57t83.5 20.5t83.5 -20.5t59 -57t21.5 -80.5
t-21.5 -80.5t-59 -57t-83.5 -20.5t-83.5 20.5zM490 61q21 29 21 83t-21 83t-56 29t-56 -29t-21 -83t21 -83t56 -29t56 29zM844 61q21 29 21 83t-21 83t-56 29t-56.5 -29t-21.5 -83t21.5 -83t56.5 -29t56 29z" />
    <glyph glyph-name="guilsinglleft" unicode="&#x2039;" horiz-adv-x="320" 
d="M39 282l-7 10v50l7 10l220 188h13l8 -8v-43l-144 -168v-8l144 -168v-43l-8 -8h-13z" />
    <glyph glyph-name="guilsinglright" unicode="&#x203a;" horiz-adv-x="320" 
d="M40 102v43l144 168v8l-144 168v43l8 8h13l220 -188l7 -10v-50l-7 -10l-220 -188h-13z" />
    <glyph glyph-name="uni203D" unicode="&#x203d;" horiz-adv-x="465" 
d="M186 230l-20 344l10 10h75l10 -10l-11 -180q11 16 21 30q27 40 38.5 64t11.5 57q0 53 -31.5 81t-79.5 28q-56 0 -94.5 -35t-46.5 -97l-8 -9h-18l-8 9q1 62 28.5 105.5t72.5 65t98 21.5q79 0 132.5 -44t53.5 -123q0 -35 -13 -62.5t-31.5 -47t-49.5 -46.5
q-41 -35 -61 -60.5t-22 -61.5l-2 -39l-10 -10h-35zM164 6q-20 20 -20 48q0 29 20 48.5t48 19.5q29 0 48.5 -19.5t19.5 -48.5q0 -28 -19.5 -48t-48.5 -20q-28 0 -48 20z" />
    <glyph glyph-name="fraction" unicode="&#x2044;" horiz-adv-x="141" 
d="M-108 150l-2 14l321 397h14l24 -20l2 -14l-319 -395l-15 -2z" />
    <glyph glyph-name="uni2048" unicode="&#x2048;" horiz-adv-x="636" 
d="M186 230v15q0 43 9.5 75t23 53t36.5 48q28 34 41 59.5t13 64.5q0 50 -30 77.5t-77 27.5q-53 0 -87.5 -33t-45.5 -95l-8 -9h-18l-8 9q3 62 30 105.5t71 65t95 21.5q80 0 133 -44.5t53 -124.5q0 -37 -12 -65t-29.5 -46.5t-47.5 -44.5q-42 -35 -63.5 -65.5t-21.5 -78.5v-15
l-10 -10h-37zM166 5q-19 19 -19 47t19 47.5t46 19.5q28 0 48 -19.5t20 -47.5t-19.5 -47t-48.5 -19q-27 0 -46 19zM495 230l-32 460l10 10h102l10 -10l-32 -460l-10 -10h-38zM476 5q-19 19 -19 47t19 47.5t47 19.5t47.5 -19.5t19.5 -47.5t-19.5 -47t-47.5 -19t-47 19z" />
    <glyph glyph-name="uni2049" unicode="&#x2049;" horiz-adv-x="632" 
d="M79 230l-32 460l10 10h102l10 -10l-32 -460l-10 -10h-38zM60 5q-19 19 -19 47t19 47.5t47 19.5t47.5 -19.5t19.5 -47.5t-19.5 -47t-47.5 -19t-47 19zM355 230v15q0 43 9.5 75t23 53t36.5 48q28 34 41 59.5t13 64.5q0 50 -30 77.5t-77 27.5q-53 0 -87.5 -33t-45.5 -95
l-8 -9h-18l-8 9q3 62 30 105.5t71 65t95 21.5q80 0 133 -44.5t53 -124.5q0 -37 -12 -65t-29.5 -46.5t-47.5 -44.5q-42 -35 -63.5 -65.5t-21.5 -78.5v-15l-10 -10h-37zM335 5q-19 19 -19 47t19 47.5t46 19.5q28 0 48 -19.5t20 -47.5t-19.5 -47t-48.5 -19q-27 0 -46 19z" />
    <glyph glyph-name="uni2070" unicode="&#x2070;" horiz-adv-x="356" 
d="M65 553q-42 51 -42 131t42 131t113 51t113 -51t42 -131t-42 -131t-113 -51t-113 51zM237.5 581.5q22.5 35.5 22.5 102.5t-22.5 102.5t-59.5 35.5q-38 0 -60 -34t-22 -104t22 -104t60 -34q37 0 59.5 35.5z" />
    <glyph glyph-name="uni2074" unicode="&#x2074;" horiz-adv-x="328" 
d="M147 514v20l5 5h10q8 0 14 6t6 14v39h-147l-5 5v30l194 226h23l5 -5v-219h42l4 -4v-29l-4 -4h-42v-39q0 -8 6 -14t14 -6h11l5 -5v-20l-5 -5h-131zM182 635v112h-5l-97 -112h102z" />
    <glyph glyph-name="uni2075" unicode="&#x2075;" horiz-adv-x="286" 
d="M53 538.5q-31 32.5 -31 81.5l4 4h17l4 -4q7 -33 29 -51.5t51 -18.5q31 0 49.5 21.5t18.5 57.5q0 37 -18 57.5t-47 20.5q-43 0 -74 -39l-7 -2l-14 2l-4 5l22 185l5 5h184l4 -4l-3 -55l-4 -4h-153l-13 -79q32 28 79 28q51 0 81.5 -33t30.5 -84q0 -57 -36.5 -91.5
t-92.5 -34.5q-51 0 -82 32.5z" />
    <glyph glyph-name="uni2076" unicode="&#x2076;" horiz-adv-x="297" 
d="M55.5 547q-35.5 45 -35.5 118q0 51 16 97t49 75t81 29q42 0 67.5 -25t28.5 -68l-4 -4h-22l-4 4q-6 24 -22 36.5t-39 12.5q-40 0 -62.5 -36t-25.5 -92q13 19 36 30t48 11q47 0 78.5 -32t31.5 -81q0 -51 -35.5 -85.5t-90.5 -34.5q-60 0 -95.5 45zM196.5 562.5
q18.5 19.5 18.5 56.5t-18.5 56.5t-44.5 19.5q-27 0 -45 -19.5t-18 -56.5t18 -56.5t45 -19.5q26 0 44.5 19.5z" />
    <glyph glyph-name="uni2077" unicode="&#x2077;" horiz-adv-x="283" 
d="M49 513l158 285h-129q-16 0 -24.5 -7.5t-11.5 -25.5l-4 -4h-17l-4 4l8 89l5 5h239l4 -4v-6l-144 -336l-4 -4h-72z" />
    <glyph glyph-name="uni2078" unicode="&#x2078;" horiz-adv-x="288" 
d="M243.5 661q20.5 -23 20.5 -57q0 -46 -35 -74t-85 -28t-86 26t-36 69q0 27 17 52t53 40q-27 20 -40.5 40t-13.5 47q0 41 31.5 65.5t76.5 24.5q43 0 70.5 -22.5t27.5 -58.5q0 -49 -59 -79q38 -22 58.5 -45zM111 819.5q-13 -12.5 -13 -30.5t14.5 -34t44.5 -33q18 10 29 26.5
t11 33.5q0 21 -15 35.5t-37 14.5q-21 0 -34 -12.5zM187.5 556.5q16.5 12.5 16.5 32.5q0 24 -21 41t-65 42q-40 -24 -40 -65q0 -27 19.5 -45t50.5 -18q23 0 39.5 12.5z" />
    <glyph glyph-name="uni2079" unicode="&#x2079;" horiz-adv-x="297" 
d="M241.5 821q35.5 -45 35.5 -118q0 -51 -16 -97t-49 -75t-81 -29q-42 0 -67.5 25t-28.5 68l4 4h22l4 -4q6 -24 22 -36.5t39 -12.5q40 0 62.5 36t25.5 92q-13 -19 -36 -30t-48 -11q-47 0 -78.5 32t-31.5 81q0 51 35.5 85.5t90.5 34.5q60 0 95.5 -45zM100.5 805.5
q-18.5 -19.5 -18.5 -56.5t18.5 -56.5t44.5 -19.5q27 0 45 19.5t18 56.5t-18 56.5t-45 19.5q-26 0 -44.5 -19.5z" />
    <glyph glyph-name="uni2080" unicode="&#x2080;" horiz-adv-x="356" 
d="M65 -182q-42 51 -42 131t42 131t113 51t113 -51t42 -131t-42 -131t-113 -51t-113 51zM237.5 -153.5q22.5 35.5 22.5 102.5t-22.5 102.5t-59.5 35.5q-38 0 -60 -34t-22 -104t22 -104t60 -34q37 0 59.5 35.5z" />
    <glyph glyph-name="uni2081" unicode="&#x2081;" horiz-adv-x="225" 
d="M47 -221v20l5 5h13q8 0 14 5.5t6 13.5v200q0 18 -18 18q-12 0 -22 -9h-6l-9 15l1 8l101 69h19l5 -5v-296q0 -7 6 -13t13 -6h15l5 -5v-20l-5 -5h-138z" />
    <glyph glyph-name="uni2082" unicode="&#x2082;" horiz-adv-x="310" 
d="M30 -220l60 68q6 7 39 44t50 70t17 61q0 30 -16.5 47t-44.5 17q-34 0 -54.5 -22t-25.5 -53l-5 -5h-15l-5 5q0 28 13.5 55.5t41.5 45.5t70 18q49 0 80 -29t31 -76q0 -30 -15.5 -57t-45.5 -55.5t-89 -77.5h71q31 0 44.5 12.5t19.5 38.5l5 6h19l5 -6l-8 -108l-5 -5h-233z
" />
    <glyph glyph-name="uni2083" unicode="&#x2083;" horiz-adv-x="299" 
d="M53.5 -201q-33.5 32 -33.5 81l5 5h14l5 -5q7 -33 28.5 -52.5t55.5 -19.5q32 0 52 22.5t20 57.5q0 34 -20 53.5t-57 19.5h-29l-4 6l75 93h-70q-18 0 -27 -8.5t-12 -26.5l-5 -5h-15l-5 5l7 94l5 5h206l3 -5l-92 -115q51 -4 81 -34.5t30 -79.5q0 -41 -19.5 -68.5t-49.5 -41
t-62 -13.5q-53 0 -86.5 32z" />
    <glyph glyph-name="uni2084" unicode="&#x2084;" horiz-adv-x="328" 
d="M147 -221v20l5 5h10q8 0 14 6t6 14v39h-147l-5 5v30l194 226h23l5 -5v-219h42l4 -4v-29l-4 -4h-42v-39q0 -8 6 -14t14 -6h11l5 -5v-20l-5 -5h-131zM182 -100v112h-5l-97 -112h102z" />
    <glyph glyph-name="uni2085" unicode="&#x2085;" horiz-adv-x="286" 
d="M53 -200.5q-31 32.5 -31 81.5l4 4h17l4 -4q7 -33 29 -51.5t51 -18.5q31 0 49.5 21.5t18.5 57.5q0 37 -18 57.5t-47 20.5q-43 0 -74 -39l-7 -2l-14 2l-4 5l22 185l5 5h184l4 -4l-3 -55l-4 -4h-153l-13 -79q32 28 79 28q51 0 81.5 -33t30.5 -84q0 -57 -36.5 -91.5
t-92.5 -34.5q-51 0 -82 32.5z" />
    <glyph glyph-name="uni2086" unicode="&#x2086;" horiz-adv-x="297" 
d="M55.5 -188q-35.5 45 -35.5 118q0 51 16 97t49 75t81 29q42 0 67.5 -25t28.5 -68l-4 -4h-22l-4 4q-6 24 -22 36.5t-39 12.5q-40 0 -62.5 -36t-25.5 -92q13 19 36 30t48 11q47 0 78.5 -32t31.5 -81q0 -51 -35.5 -85.5t-90.5 -34.5q-60 0 -95.5 45zM196.5 -172.5
q18.5 19.5 18.5 56.5t-18.5 56.5t-44.5 19.5q-27 0 -45 -19.5t-18 -56.5t18 -56.5t45 -19.5q26 0 44.5 19.5z" />
    <glyph glyph-name="uni2087" unicode="&#x2087;" horiz-adv-x="283" 
d="M49 -222l158 285h-129q-16 0 -24.5 -7.5t-11.5 -25.5l-4 -4h-17l-4 4l8 89l5 5h239l4 -4v-6l-144 -336l-4 -4h-72z" />
    <glyph glyph-name="uni2088" unicode="&#x2088;" horiz-adv-x="288" 
d="M243.5 -74q20.5 -23 20.5 -57q0 -46 -35 -74t-85 -28t-86 26t-36 69q0 27 17 52t53 40q-27 20 -40.5 40t-13.5 47q0 41 31.5 65.5t76.5 24.5q43 0 70.5 -22.5t27.5 -58.5q0 -49 -59 -79q38 -22 58.5 -45zM111 84.5q-13 -12.5 -13 -30.5t14.5 -34t44.5 -33q18 10 29 26.5
t11 33.5q0 21 -15 35.5t-37 14.5q-21 0 -34 -12.5zM187.5 -178.5q16.5 12.5 16.5 32.5q0 24 -21 41t-65 42q-40 -24 -40 -65q0 -27 19.5 -45t50.5 -18q23 0 39.5 12.5z" />
    <glyph glyph-name="uni2089" unicode="&#x2089;" horiz-adv-x="297" 
d="M241.5 86q35.5 -45 35.5 -118q0 -51 -16 -97t-49 -75t-81 -29q-42 0 -67.5 25t-28.5 68l4 4h22l4 -4q6 -24 22 -36.5t39 -12.5q40 0 62.5 36t25.5 92q-13 -19 -36 -30t-48 -11q-47 0 -78.5 32t-31.5 81q0 51 35.5 85.5t90.5 34.5q60 0 95.5 -45zM100.5 70.5
q-18.5 -19.5 -18.5 -56.5t18.5 -56.5t44.5 -19.5q27 0 45 19.5t18 56.5t-18 56.5t-45 19.5q-26 0 -44.5 -19.5z" />
    <glyph glyph-name="franc" unicode="&#x20a3;" horiz-adv-x="586" 
d="M544 690v-30l-23 -115l-8 -8h-32l-8 8q-6 52 -28 76.5t-62 24.5h-106q-15 0 -27.5 -12.5t-12.5 -27.5v-242h132q15 0 27.5 11t12.5 26v13l8 8h38l8 -8v-153l-8 -8h-38l-8 8v13q0 17 -12 27t-28 10h-132v-114h138l8 -8v-38l-8 -8h-138v-49q0 -15 12.5 -27.5t27.5 -12.5h32
l8 -8v-38l-8 -8h-259l-8 8v38l8 8h32q15 0 27.5 12.5t12.5 27.5v49h-76l-8 8v38l8 8h76v409q0 15 -12.5 27.5t-27.5 12.5h-32l-8 8v38l8 8h484z" />
    <glyph glyph-name="uni20A8" unicode="&#x20a8;" horiz-adv-x="1044" 
d="M36 8v38l8 8h32q15 0 27.5 12.5t12.5 27.5v512q0 15 -12.5 27.5t-27.5 12.5h-31l-9 9v36l9 9h275q111 0 178 -52t67 -150q0 -81 -53 -132t-144 -66l58 -16l123 -207q14 -23 36 -23h32l8 -8v-38l-8 -8h-140l-13 8l-175 294h-58v-208q0 -15 12.5 -27.5t27.5 -12.5h32l8 -8
v-38l-8 -8h-259zM318 356q65 0 97.5 38t32.5 104q0 67 -32.5 107.5t-97.5 40.5h-47q-15 0 -27.5 -12.5t-12.5 -27.5v-250h87zM733.5 -1q-43.5 13 -74.5 33l-5 10l27 107l9 9h26l9 -9q-3 -56 26.5 -86t74.5 -30q38 0 59 21.5t21 55.5q0 41 -24 63t-75 42q-70 27 -105 61.5
t-35 83.5q0 67 48 107.5t125 40.5q65 0 124 -31l7 -10l5 -111l-9 -9h-30l-9 9q-3 48 -26 76t-64 28q-33 0 -54.5 -19t-21.5 -50t26 -54t90 -49q61 -25 95 -57.5t34 -87.5q0 -73 -51.5 -115t-127.5 -42q-51 0 -94.5 13z" />
    <glyph glyph-name="uni20A9" unicode="&#x20a9;" horiz-adv-x="1044" 
d="M991 692v-38l-8 -8h-21q-30 0 -39 -29l-78 -245h121l8 -8v-32l-8 -8h-137l-101 -316l-8 -8h-43l-8 8l-95 316h-105l-100 -316l-8 -8h-43l-8 8l-98 316h-126l-8 8v32l8 8h111l-77 248q-9 26 -37 26h-22l-8 8v38l8 8h236l8 -8v-38l-8 -8h-28q-25 0 -25 -21q0 -6 4 -20
l71 -233h113l72 231q4 16 4 19q0 11 -7 17.5t-18 6.5h-26l-8 8v38l8 8h193l8 -8v-38l-8 -8h-25q-12 0 -19 -7t-7 -17q0 -5 4 -17l70 -233h115l72 233q4 16 4 20q0 21 -24 21h-28l-8 8v38l8 8h171zM559 372l-36 121l-38 -121h74zM417 324h-83l41 -133zM773 324h-86l42 -141z
" />
    <glyph glyph-name="uni20AA" unicode="&#x20aa;" horiz-adv-x="602" 
d="M40 8v684l8 8h238q60 0 91 -29.5t31 -104.5v-352l-8 -8h-38l-8 8v307q0 42 -12.5 58.5t-52.5 16.5h-195v-588l-8 -8h-38zM194 8v478l8 8h38l8 -8v-382h195q40 0 52.5 16.5t12.5 58.5v513l8 8h38l8 -8v-558q0 -75 -31 -104.5t-91 -29.5h-238z" />
    <glyph glyph-name="dong" unicode="&#x20ab;" horiz-adv-x="523" 
d="M472 575v-37l-8 -8h-39v-337q0 -10 6.5 -16.5t15.5 -6.5h13l8 -8v-31l-8 -8h-114l-8 8v31q-44 -49 -116 -49q-47 0 -86 22.5t-62 66t-23 104.5q0 56 24.5 99.5t66 68t89.5 24.5q65 0 110 -41v73h-117l-8 8v37l8 8h117v14q0 10 -7 16.5t-17 6.5h-12l-8 8v18l8 8l95 36h23
l8 -8l-6 -57v-42h39zM314 200.5q27 40.5 27 105.5q0 64 -27 104.5t-74 40.5q-48 0 -75.5 -40t-27.5 -105t27.5 -105.5t75.5 -40.5q47 0 74 40.5zM461 54l8 -8v-38l-8 -8h-401l-8 8v38l8 8h401z" />
    <glyph glyph-name="Euro" unicode="&#x20ac;" horiz-adv-x="674" 
d="M610 204l8 -8l-10 -146l-9 -11q-90 -53 -183 -53q-75 0 -140 32t-110.5 92t-63.5 141h-76l-6 10l11 34l10 10h53q-2 30 -2 45q0 17 2 49h-68l-6 10l11 34l10 10h62q19 80 64.5 139t110 90.5t138.5 31.5q93 0 183 -53l9 -11l10 -146l-8 -8h-44l-8 8l-2 18q-7 63 -43 96.5
t-96 33.5q-77 0 -127.5 -53.5t-68.5 -145.5h252l6 -10l-10 -34l-12 -10h-244q-2 -32 -2 -49q0 -15 2 -45h260l6 -10l-10 -34l-12 -10h-237q18 -94 68.5 -148.5t128.5 -54.5q55 0 93.5 33.5t45.5 96.5l2 18l8 8h44z" />
    <glyph glyph-name="uni20AD" unicode="&#x20ad;" horiz-adv-x="694" 
d="M670 46v-38l-8 -8h-153l-13 8l-247 301l-18 -21v-194q0 -15 12.5 -27.5t27.5 -12.5h32l8 -8v-38l-8 -8h-259l-8 8v38l8 8h32q15 0 27.5 12.5t12.5 27.5v228h-76l-8 8v38l8 8h76v230q0 15 -12.5 27.5t-27.5 12.5h-31l-9 9v36l9 9h257l9 -9v-36l-9 -9h-31
q-15 0 -27.5 -12.5t-12.5 -27.5v-230h6l222 240q9 11 9 17q0 13 -17 13h-25l-8 8v38l8 8h175l8 -8v-38l-8 -8h-14q-15 0 -28 -8.5t-30 -27.5l-217 -234h267l8 -8v-38l-8 -8h-191l196 -239q10 -13 22.5 -21t23.5 -8h32z" />
    <glyph glyph-name="uni20B1" unicode="&#x20b1;" horiz-adv-x="640" 
d="M596 519h-56q2 -20 2 -32q0 -18 -3 -35h57l9 -9v-36l-9 -9h-73q-27 -58 -87 -91t-141 -33h-42v-180q0 -15 12.5 -27.5t27.5 -12.5h32l8 -8v-38l-8 -8h-259l-8 8v38l8 8h32q15 0 27.5 12.5t12.5 27.5v304h-94l-9 9v36l9 9h94v67h-94l-9 9v36l9 9h94v33q0 15 -12.5 27.5
t-27.5 12.5h-32l-8 8v38l8 8h237q77 0 136.5 -34t85.5 -93h71l9 -9v-36zM253 573h157q-13 34 -38 53.5t-62 19.5h-18q-15 0 -27 -12.5t-12 -27.5v-33zM423 519h-170v-67h170q2 22 2 35q0 10 -2 32zM407 398h-154v-70h42q78 0 112 70z" />
    <glyph glyph-name="uni20B4" unicode="&#x20b4;" horiz-adv-x="585" 
d="M555 426v-38l-8 -8h-509l-8 8v38l8 8h290q30 28 42.5 57t12.5 60q0 53 -29 81t-78 28q-50 0 -83 -32t-39 -99l-9 -9h-34l-9 9l5 127l6 10q25 20 67.5 34t92.5 14q61 0 110 -22t77 -63.5t28 -98.5q0 -51 -28 -96h87zM547 320l8 -8v-38l-8 -8h-297q-53 -52 -53 -116
q0 -52 30.5 -81t80.5 -29q47 0 79 32t38 99l9 9h35l9 -9l-5 -127l-6 -10q-24 -20 -67.5 -34t-92.5 -14q-59 0 -108.5 22.5t-78 64.5t-28.5 97q0 49 28 96h-82l-8 8v38l8 8h509z" />
    <glyph glyph-name="uni20B8" unicode="&#x20b8;" horiz-adv-x="649" 
d="M43 654v38l8 8h546l8 -8v-38l-8 -8h-546zM187 8v38l8 8h32q15 0 27.5 12.5t12.5 27.5v444h-40q-125 0 -142 -131l-8 -8h-38l-7 8l15 176l8 8h539l8 -8l15 -176l-6 -8h-39l-8 7q-17 132 -142 132h-40v-444q0 -15 12.5 -27.5t27.5 -12.5h32l8 -8v-38l-8 -8h-259z" />
    <glyph glyph-name="uni20B9" unicode="&#x20b9;" horiz-adv-x="595" 
d="M552 646h-171q55 -43 64 -119h107l9 -9v-36l-9 -9h-108q-10 -81 -76 -126.5t-164 -48.5l181 -215q11 -12 18 -17.5t18 -5.5h37l8 -8v-44l-8 -8h-129l-13 8l-258 306v37l9 9h132q58 0 90 29.5t38 83.5h-260l-9 9v36l9 9h261q-6 55 -38.5 87t-90.5 32h-132l-9 9v36l9 9h485
l9 -9v-36z" />
    <glyph glyph-name="uni20BA" unicode="&#x20ba;" horiz-adv-x="616" 
d="M576 274q0 -137 -71.5 -205.5t-190.5 -68.5h-254l-8 8v38l8 8h32q15 0 27.5 12.5t12.5 27.5v166l-83 -30l-13 6v42l8 15l88 32v78l-83 -30l-13 6v41l8 15l88 32v139q0 15 -12.5 27.5t-27.5 12.5h-32l-8 8v38l8 8h259l8 -8v-38l-8 -8h-32q-15 0 -27.5 -12.5t-12.5 -27.5
v-97l96 35l13 -6v-42l-8 -15l-101 -36v-78l96 35l13 -6v-42l-8 -15l-101 -37v-208q0 -15 12.5 -27.5t27.5 -12.5h29q74 0 107.5 54t35.5 166l8 8h101z" />
    <glyph glyph-name="uni20BD" unicode="&#x20bd;" horiz-adv-x="608" 
d="M256 274v-69h145l8 -9v-35l-8 -9h-145v-58q0 -15 12.5 -27.5t27.5 -12.5h32l8 -8v-38l-8 -8h-259l-8 8v38l8 8h32q15 0 27.5 12.5t12.5 27.5v58h-97l-9 9v35l9 9h97v69h-97l-9 9v36l9 9h97v278q0 15 -12.5 27.5t-27.5 12.5h-32l-8 8v38l8 8h265q74 0 131.5 -26.5
t89 -74.5t31.5 -112t-31.5 -112t-89 -74.5t-131.5 -26.5h-78zM256 328h79q68 0 101 46t33 113t-33 113t-100 46h-40q-15 0 -27.5 -12.5t-12.5 -27.5v-278z" />
    <glyph glyph-name="uni20BF" unicode="&#x20bf;" horiz-adv-x="673" 
d="M576 60q-61 -52 -154 -59v-81l-8 -8h-33l-8 8v80h-45v-80l-8 -8h-33l-8 8v80h-235l-8 8v38l8 8h32q15 0 27.5 12.5t12.5 27.5v512q0 15 -12.5 27.5t-27.5 12.5h-31l-9 9v36l9 9h234v80l8 8h33l8 -8v-80h43h2v80l8 8h33l8 -8v-83q85 -11 133 -58t48 -117q0 -97 -115 -148
q68 -16 108.5 -63t40.5 -113q0 -86 -61 -138zM231 393h126q62 0 93.5 34t31.5 92q0 57 -33 92t-100 35h-79q-15 0 -27 -12.5t-12 -27.5v-213zM479.5 96q36.5 42 36.5 103q0 63 -36 101.5t-109 38.5h-140v-245q0 -15 12.5 -27.5t27.5 -12.5h100q72 0 108.5 42z" />
    <glyph glyph-name="uni2113" unicode="&#x2113;" horiz-adv-x="509" 
d="M452 80l11 -12v-11q-64 -71 -146 -71q-67 0 -114 43t-73 118q-48 -12 -78 -16l-9 6l-3 19l5 10q38 7 73 18q-22 84 -22 183q0 104 25 182t73 121.5t116 43.5q76 0 118.5 -52.5t42.5 -144.5q0 -123 -71 -210t-195 -135q18 -68 50.5 -105.5t79.5 -37.5q26 0 51.5 13
t54.5 39zM195 213q95 45 142.5 121.5t47.5 192.5q0 65 -18.5 107t-63.5 42q-61 0 -91 -81.5t-30 -217.5q0 -93 13 -164z" />
    <glyph glyph-name="uni2116" unicode="&#x2116;" horiz-adv-x="1263" 
d="M874.5 313q-49.5 27 -78 76t-28.5 112q0 62 28.5 110.5t78 75.5t110.5 27t111 -27t78.5 -75.5t28.5 -110.5q0 -63 -28.5 -112t-78.5 -76t-111 -27t-110.5 27zM36 8v38l8 8h32q15 0 27.5 12.5t12.5 27.5v515q0 14 -12.5 25.5t-27.5 11.5h-32l-8 8v38l8 8h244l8 -8v-38
l-8 -8h-10q-13 0 -20 -6t-7 -16t4.5 -18t17.5 -22l349 -405v427q0 15 -12.5 27.5t-27.5 12.5h-32l-8 8v38l8 8h198l8 -8v-38l-8 -8h-32q-15 0 -27.5 -12.5t-12.5 -27.5v-598l-8 -8h-35l-17 10l-446 519v-435q0 -15 12.5 -27.5t27.5 -12.5h32l8 -8v-38l-8 -8h-198zM1070 384
q31 43 31 117q0 72 -31 115t-85 43q-53 0 -84 -43t-31 -115q0 -74 31 -117t84 -43q54 0 85 43zM773 180v44l8 8h408l8 -8v-44l-8 -8h-408z" />
    <glyph glyph-name="uni2117" unicode="&#x2117;" horiz-adv-x="804" 
d="M211 34.5q-85 48.5 -133 132t-48 183.5t48 183.5t133 132t191 48.5t191 -48.5t133 -132t48 -183.5t-48 -183.5t-133 -132t-191 -48.5t-191 48.5zM560.5 76.5q70.5 40.5 110.5 112t40 161.5t-40 161.5t-110.5 112t-158.5 40.5t-158.5 -40.5t-110.5 -112t-40 -161.5
t40 -161.5t110.5 -112t158.5 -40.5t158.5 40.5zM261 176v25l5 4h17q8 0 14.5 6.5t6.5 14.5v264q0 8 -6.5 14.5t-14.5 6.5h-17l-5 4v25l5 4h148q63 0 99.5 -28t36.5 -80t-36.5 -80t-99.5 -28h-35v-102q0 -8 6.5 -14.5t14.5 -6.5h17l5 -4v-25l-5 -4h-151zM413 361q30 0 47 20
t17 55t-17 55t-47 20h-13q-8 0 -14.5 -6.5t-6.5 -14.5v-129h34z" />
    <glyph glyph-name="uni2120" unicode="&#x2120;" horiz-adv-x="647" 
d="M79.5 419q-21.5 7 -37.5 19l-2 5l3 58l4 3h15l4 -4q3 -31 18.5 -47t40.5 -16q20 0 32 12.5t12 32.5q0 24 -12.5 37t-44.5 28q-69 35 -69 82q0 35 26.5 57t63.5 22q41 0 67 -19l3 -5l2 -55l-4 -3h-14l-3 3q-6 55 -49 55q-18 0 -30 -11t-12 -28t12 -29.5t42 -26.5
q38 -19 56 -40t18 -52q0 -36 -27 -60.5t-69 -24.5q-24 0 -45.5 7zM238 423v17l5 5h10q10 0 13 10l54 206q1 2 1 6q0 6 -7 6h-8l-5 5v17l5 5h69l5 -5v-17l-5 -5h-8q-5 0 -6 -3.5t1 -8.5l62 -155l61 155l2 6q0 6 -7 6h-8l-5 5v17l5 5h68l5 -5v-17l-5 -5h-7q-11 0 -7 -13
l54 -205q1 -6 4 -8t9 -2h9l5 -5v-17l-5 -5h-95l-5 5v17l5 5h11q11 0 7 12l-35 136l-67 -170l-6 -5h-11l-6 5l-67 171l-36 -137l-1 -5q0 -7 8 -7h13l5 -5v-17l-5 -5h-74z" />
    <glyph glyph-name="trademark" unicode="&#x2122;" horiz-adv-x="661" 
d="M92 423v17l5 5h14q5 0 9 4t4 9v215h-17q-48 0 -54 -50l-4 -4h-18l-4 5l6 71l4 5h224l5 -5l6 -71l-4 -5h-18l-5 4q-6 50 -53 50h-17v-215q0 -5 4 -9t9 -4h14l5 -5v-17l-5 -5h-105zM264 423v17l5 5h10q10 0 13 10l54 206q1 2 1 6q0 6 -7 6h-8l-5 5v17l5 5h69l5 -5v-17
l-5 -5h-8q-5 0 -6 -3.5t1 -8.5l62 -155l61 155l2 6q0 6 -7 6h-8l-5 5v17l5 5h68l5 -5v-17l-5 -5h-7q-10 0 -6 -13l54 -205q1 -6 4 -8t8 -2h10l5 -5v-17l-5 -5h-96l-5 5v17l5 5h11q11 0 7 12l-35 136l-67 -170l-6 -5h-11l-6 5l-67 171l-36 -137l-1 -5q0 -7 8 -7h13l5 -5v-17
l-5 -5h-74z" />
    <glyph glyph-name="uni2126" unicode="&#x2126;" horiz-adv-x="775" 
d="M63 8l-9 123l6 8h34l8 -8q2 -33 18 -44.5t43 -11.5h94q-90 40 -151.5 119.5t-61.5 192.5q0 90 42.5 165t120.5 118.5t180 43.5q103 0 181 -43.5t120.5 -118.5t42.5 -165q0 -113 -61.5 -192.5t-151.5 -119.5h94q27 0 43 11.5t18 44.5l8 8h34l6 -8l-9 -123l-8 -8h-256l-8 8
v67l8 10q166 94 166 296q0 81 -28.5 144t-80 98t-118.5 35q-66 0 -117.5 -35t-80 -98t-28.5 -144q0 -201 165 -296l8 -10v-67l-8 -8h-255z" />
    <glyph glyph-name="estimated" unicode="&#x212e;" horiz-adv-x="762" 
d="M197 41q-80 48 -123.5 129.5t-43.5 179.5q0 99 43.5 181t123.5 129.5t184 47.5q100 0 179.5 -44.5t125 -124.5t46.5 -181l-8 -8h-527q-15 0 -27.5 -12.5t-12.5 -27.5v-157q33 -51 94 -81.5t130 -30.5q84 0 152 38.5t108 109.5l11 4l27 -15l3 -10q-22 -48 -67 -88
t-106 -63.5t-128 -23.5q-104 0 -184 48zM570 397q15 0 27.5 12.5t12.5 27.5v116q-32 46 -93.5 78t-135.5 32q-68 0 -127.5 -29t-96.5 -78v-119q0 -15 12.5 -27.5t27.5 -12.5h373z" />
    <glyph glyph-name="uni2153" unicode="&#x2153;" horiz-adv-x="660" 
d="M47 355v20l5 5h13q8 0 14 5.5t6 13.5v200q0 18 -18 18q-12 0 -22 -9h-6l-9 15l1 8l101 69h19l5 -5v-296q0 -7 6 -13t13 -6h15l5 -5v-20l-5 -5h-138zM117 150l-2 14l321 397h14l24 -20l2 -14l-319 -395l-15 -2zM414.5 25q-33.5 32 -33.5 81l5 5h14l5 -5q7 -33 28.5 -52.5
t55.5 -19.5q32 0 52 22.5t20 57.5q0 34 -20 53.5t-57 19.5h-29l-4 6l75 93h-70q-18 0 -27 -8.5t-12 -26.5l-5 -5h-15l-5 5l7 94l5 5h206l3 -5l-92 -115q51 -4 81 -34.5t30 -79.5q0 -41 -19.5 -68.5t-49.5 -41t-62 -13.5q-53 0 -86.5 32z" />
    <glyph glyph-name="uni2154" unicode="&#x2154;" horiz-adv-x="739" 
d="M30 356l60 68q6 7 39 44t50 70t17 61q0 30 -16.5 47t-44.5 17q-34 0 -54.5 -22t-25.5 -53l-5 -5h-15l-5 5q0 28 13.5 55.5t41.5 45.5t70 18q49 0 80 -29t31 -76q0 -30 -15.5 -57t-45.5 -55.5t-89 -77.5h71q31 0 44.5 12.5t19.5 38.5l5 6h19l5 -6l-8 -108l-5 -5h-233z
M196 150l-2 14l321 397h14l24 -20l2 -14l-319 -395l-15 -2zM493.5 25q-33.5 32 -33.5 81l5 5h14l5 -5q7 -33 28.5 -52.5t55.5 -19.5q32 0 52 22.5t20 57.5q0 34 -20 53.5t-57 19.5h-29l-4 6l75 93h-70q-18 0 -27 -8.5t-12 -26.5l-5 -5h-15l-5 5l7 94l5 5h206l3 -5l-92 -115
q51 -4 81 -34.5t30 -79.5q0 -41 -19.5 -68.5t-49.5 -41t-62 -13.5q-53 0 -86.5 32z" />
    <glyph glyph-name="oneeighth" unicode="&#x215b;" horiz-adv-x="624" 
d="M47 355v20l5 5h13q8 0 14 5.5t6 13.5v200q0 18 -18 18q-12 0 -22 -9h-6l-9 15l1 8l101 69h19l5 -5v-296q0 -7 6 -13t13 -6h15l5 -5v-20l-5 -5h-138zM117 150l-2 14l321 397h14l24 -20l2 -14l-319 -395l-15 -2zM579.5 152q20.5 -23 20.5 -57q0 -46 -35 -74t-85 -28t-86 26
t-36 69q0 27 17 52t53 40q-27 20 -40.5 40t-13.5 47q0 41 31.5 65.5t76.5 24.5q43 0 70.5 -22.5t27.5 -58.5q0 -49 -59 -79q38 -22 58.5 -45zM447 310.5q-13 -12.5 -13 -30.5t14.5 -34t44.5 -33q18 10 29 26.5t11 33.5q0 21 -15 35.5t-37 14.5q-21 0 -34 -12.5zM523.5 47.5
q16.5 12.5 16.5 32.5q0 24 -21 41t-65 42q-40 -24 -40 -65q0 -27 19.5 -45t50.5 -18q23 0 39.5 12.5z" />
    <glyph glyph-name="threeeighths" unicode="&#x215c;" horiz-adv-x="664" 
d="M53.5 375q-33.5 32 -33.5 81l5 5h14l5 -5q7 -33 28.5 -52.5t55.5 -19.5q32 0 52 22.5t20 57.5q0 34 -20 53.5t-57 19.5h-29l-4 6l75 93h-70q-18 0 -27 -8.5t-12 -26.5l-5 -5h-15l-5 5l7 94l5 5h206l3 -5l-92 -115q51 -4 81 -34.5t30 -79.5q0 -41 -19.5 -68.5t-49.5 -41
t-62 -13.5q-53 0 -86.5 32zM157 150l-2 14l321 397h14l24 -20l2 -14l-319 -395l-15 -2zM619.5 152q20.5 -23 20.5 -57q0 -46 -35 -74t-85 -28t-86 26t-36 69q0 27 17 52t53 40q-27 20 -40.5 40t-13.5 47q0 41 31.5 65.5t76.5 24.5q43 0 70.5 -22.5t27.5 -58.5q0 -49 -59 -79
q38 -22 58.5 -45zM487 310.5q-13 -12.5 -13 -30.5t14.5 -34t44.5 -33q18 10 29 26.5t11 33.5q0 21 -15 35.5t-37 14.5q-21 0 -34 -12.5zM563.5 47.5q16.5 12.5 16.5 32.5q0 24 -21 41t-65 42q-40 -24 -40 -65q0 -27 19.5 -45t50.5 -18q23 0 39.5 12.5z" />
    <glyph glyph-name="fiveeighths" unicode="&#x215d;" horiz-adv-x="651" 
d="M53 375.5q-31 32.5 -31 81.5l4 4h17l4 -4q7 -33 29 -51.5t51 -18.5q31 0 49.5 21.5t18.5 57.5q0 37 -18 57.5t-47 20.5q-43 0 -74 -39l-7 -2l-14 2l-4 5l22 185l5 5h184l4 -4l-3 -55l-4 -4h-153l-13 -79q32 28 79 28q51 0 81.5 -33t30.5 -84q0 -57 -36.5 -91.5
t-92.5 -34.5q-51 0 -82 32.5zM144 150l-2 14l321 397h14l24 -20l2 -14l-319 -395l-15 -2zM606.5 152q20.5 -23 20.5 -57q0 -46 -35 -74t-85 -28t-86 26t-36 69q0 27 17 52t53 40q-27 20 -40.5 40t-13.5 47q0 41 31.5 65.5t76.5 24.5q43 0 70.5 -22.5t27.5 -58.5
q0 -49 -59 -79q38 -22 58.5 -45zM474 310.5q-13 -12.5 -13 -30.5t14.5 -34t44.5 -33q18 10 29 26.5t11 33.5q0 21 -15 35.5t-37 14.5q-21 0 -34 -12.5zM550.5 47.5q16.5 12.5 16.5 32.5q0 24 -21 41t-65 42q-40 -24 -40 -65q0 -27 19.5 -45t50.5 -18q23 0 39.5 12.5z" />
    <glyph glyph-name="seveneighths" unicode="&#x215e;" horiz-adv-x="588" 
d="M49 354l158 285h-129q-16 0 -24.5 -7.5t-11.5 -25.5l-4 -4h-17l-4 4l8 89l5 5h239l4 -4v-6l-144 -336l-4 -4h-72zM81 150l-2 14l321 397h14l24 -20l2 -14l-319 -395l-15 -2zM543.5 152q20.5 -23 20.5 -57q0 -46 -35 -74t-85 -28t-86 26t-36 69q0 27 17 52t53 40
q-27 20 -40.5 40t-13.5 47q0 41 31.5 65.5t76.5 24.5q43 0 70.5 -22.5t27.5 -58.5q0 -49 -59 -79q38 -22 58.5 -45zM411 310.5q-13 -12.5 -13 -30.5t14.5 -34t44.5 -33q18 10 29 26.5t11 33.5q0 21 -15 35.5t-37 14.5q-21 0 -34 -12.5zM487.5 47.5q16.5 12.5 16.5 32.5
q0 24 -21 41t-65 42q-40 -24 -40 -65q0 -27 19.5 -45t50.5 -18q23 0 39.5 12.5z" />
    <glyph glyph-name="arrowleft" unicode="&#x2190;" horiz-adv-x="550" 
d="M40 345v11l216 167h11l7 -9v-11l-101 -124h329l8 -8v-42l-8 -8h-328l100 -124v-11l-7 -9h-11z" />
    <glyph glyph-name="arrowup" unicode="&#x2191;" horiz-adv-x="428" 
d="M185 123v329l-124 -101h-11l-10 8v10l169 216h11l168 -216v-10l-10 -8h-11l-124 101v-329l-8 -8h-42z" />
    <glyph glyph-name="arrowright" unicode="&#x2192;" horiz-adv-x="550" 
d="M283 177l-7 9v11l100 124h-328l-8 8v42l8 8h329l-101 124v11l7 9h11l216 -167v-11l-216 -168h-11z" />
    <glyph glyph-name="arrowdown" unicode="&#x2193;" horiz-adv-x="428" 
d="M40 331v10l10 8h11l124 -101v329l8 8h42l8 -8v-329l124 101h11l10 -8v-10l-168 -216h-11z" />
    <glyph glyph-name="arrowboth" unicode="&#x2194;" horiz-adv-x="780" 
d="M40 345v11l216 167h11l7 -9v-11l-101 -124h434l-101 124v11l7 9h11l216 -167v-11l-216 -168h-11l-7 9v11l100 124h-432l100 -124v-11l-7 -9h-11z" />
    <glyph glyph-name="arrowupdn" unicode="&#x2195;" horiz-adv-x="428" 
d="M40 216v11l10 7h11l124 -101v434l-124 -101h-11l-10 7v11l169 216h11l168 -216v-11l-10 -7h-11l-124 101v-434l124 101h11l10 -7v-11l-168 -216h-11z" />
    <glyph glyph-name="uni2196" unicode="&#x2196;" horiz-adv-x="431" 
d="M118 408l-17 -159l-8 -10h-11l-8 7l-34 272l7 8l273 -34l6 -8v-11l-9 -8l-159 -17l233 -232v-12l-29 -29h-12z" />
    <glyph glyph-name="uni2197" unicode="&#x2197;" horiz-adv-x="431" 
d="M40 204v12l233 232l-159 17l-9 8v11l6 8l273 34l7 -8l-34 -272l-8 -7h-11l-8 10l-17 159l-232 -233h-12z" />
    <glyph glyph-name="uni2198" unicode="&#x2198;" horiz-adv-x="431" 
d="M111 209l-6 8v11l9 8l159 17l-233 232v12l29 29h12l232 -233l17 159l8 10h11l8 -7l34 -272l-7 -8z" />
    <glyph glyph-name="uni2199" unicode="&#x2199;" horiz-adv-x="431" 
d="M40 183l34 272l8 7h11l8 -10l17 -159l232 233h12l29 -29v-12l-233 -232l159 -17l9 -8v-11l-6 -8l-273 -34z" />
    <glyph glyph-name="partialdiff" unicode="&#x2202;" horiz-adv-x="561" 
d="M148.5 17.5q-53.5 31.5 -82 85t-28.5 118.5q0 67 30.5 120t82 82.5t112.5 29.5q41 0 78 -15t59 -41q-5 128 -50 192.5t-117 64.5q-98 0 -136 -99l-8 -8h-17l-8 8q12 71 64 115t126 44q81 0 142 -50.5t94 -144t33 -219.5q0 -154 -68.5 -234t-181.5 -80q-71 0 -124.5 31.5z
M368.5 89q35.5 47 35.5 130q0 85 -35 130.5t-91 45.5t-91 -45.5t-35 -130.5q0 -83 35.5 -130t90.5 -47t90.5 47z" />
    <glyph glyph-name="uni2206" unicode="&#x2206;" horiz-adv-x="652" 
d="M30 8v43l232 641l8 8h105l8 -8l239 -640v-44l-8 -8h-576zM483 65l-195 530l-188 -530h383z" />
    <glyph glyph-name="product" unicode="&#x220f;" horiz-adv-x="722" 
d="M36 -218v38l8 8h32q15 0 27.5 12.5t12.5 27.5v738q0 15 -12.5 27.5t-27.5 12.5h-32l-8 8v38l8 8h634l8 -8v-38l-8 -8h-32q-15 0 -27.5 -12.5t-12.5 -27.5v-738q0 -15 12.5 -27.5t27.5 -12.5h32l8 -8v-38l-8 -8h-259l-8 8v38l8 8h32q15 0 27.5 12.5t12.5 27.5v738
q0 15 -12.5 27.5t-27.5 12.5h-180q-15 0 -27.5 -12.5t-12.5 -27.5v-738q0 -15 12.5 -27.5t27.5 -12.5h32l8 -8v-38l-8 -8h-259z" />
    <glyph glyph-name="summation" unicode="&#x2211;" horiz-adv-x="583" 
d="M30 8v38l214 323l-198 285v38l8 8h463l10 -10v-184l-8 -8h-28l-8 8q-15 94 -104 94h-219l159 -231v-10l-172 -259h206q77 0 109 37t40 97l8 8h37l6 -8l-19 -226l-8 -8h-488z" />
    <glyph glyph-name="minus" unicode="&#x2212;" horiz-adv-x="484" 
d="M38 341v52l8 8h392l8 -8v-52l-8 -8h-392z" />
    <glyph glyph-name="uni2215" unicode="&#x2215;" horiz-adv-x="445" 
d="M-20 -68l404 832l12 8h61l8 -8l-404 -832l-12 -8h-61z" />
    <glyph glyph-name="uni2219" unicode="&#x2219;" horiz-adv-x="275" 
d="M69 242q-28 28 -28 68t28 68.5t68 28.5q41 0 69 -28t28 -69q0 -40 -28.5 -68t-68.5 -28t-68 28z" />
    <glyph glyph-name="radical" unicode="&#x221a;" horiz-adv-x="511" 
d="M205 8l-101 291l-8 5l-64 -7l-11 6l-4 20l8 10l117 47h29l8 -8l92 -281l164 601l10 8h35l8 -8l-187 -684l-8 -8h-80z" />
    <glyph glyph-name="infinity" unicode="&#x221e;" horiz-adv-x="544" 
d="M456.5 64q-47.5 -55 -125.5 -71v-44l-8 -8h-20l-8 8v39q-8 -1 -25 -1h-10v-38l-8 -8h-20l-8 8v41q-82 11 -133 57t-51 120q0 60 36 111.5t110 82.5q-58 36 -87.5 77t-29.5 92q0 71 43.5 119t111.5 61v43l8 8h20l8 -8v-38h14q14 0 21 -1v39l8 8h20l8 -8v-44
q63 -14 101.5 -55t38.5 -100q0 -49 -33 -90.5t-95 -67.5q80 -43 120.5 -90t40.5 -115q0 -72 -47.5 -127zM260 656v-214q10 -6 19 -11t16 -9v233q-14 2 -21 2q-9 0 -14 -1zM182 613q-15 -23 -15 -54q0 -28 15 -51t42 -43v182q-27 -11 -42 -34zM372 606.5q-15 24.5 -41 37.5
v-199q27 22 41.5 49.5t14.5 56.5q0 31 -15 55.5zM162 103.5q23 -34.5 62 -48.5v274q-85 -56 -85 -147q0 -44 23 -78.5zM295 46v255l-35 19v-274q6 -1 19 -1q11 0 16 1zM382.5 94q19.5 27 19.5 67q0 37 -18 64.5t-53 52.5v-223q32 12 51.5 39z" />
    <glyph glyph-name="integral" unicode="&#x222b;" horiz-adv-x="338" 
d="M-118.5 -198.5q-21.5 18.5 -21.5 48.5q0 31 19 49.5t50 18.5q30 0 49 -21.5t16 -55.5q24 13 39.5 37t22.5 65l-5 13l-32 16l-6 13l111 557q18 89 67 130.5t107 41.5q35 0 56.5 -18t21.5 -50q0 -29 -18.5 -48t-49.5 -19q-30 0 -49 21.5t-16 55.5q-25 -13 -40 -36.5
t-23 -65.5l5 -14l33 -15l5 -13l-111 -556q-18 -91 -67 -132t-108 -41q-34 0 -55.5 18.5z" />
    <glyph glyph-name="approxequal" unicode="&#x2248;" horiz-adv-x="477" 
d="M272.5 361.5q-23.5 9.5 -55.5 27.5q-30 16 -46.5 23t-34.5 7q-24 0 -37 -13.5t-22 -33.5l-9 -9h-18l-6 9q2 58 33 91.5t77 33.5q27 0 50.5 -9.5t55.5 -27.5q30 -16 46.5 -23t34.5 -7q24 0 37 13.5t22 33.5l9 9h18l6 -9q-3 -58 -33.5 -91.5t-76.5 -33.5q-27 0 -50.5 9.5z
M272.5 191.5q-23.5 9.5 -55.5 27.5q-30 16 -46.5 23t-34.5 7q-24 0 -37 -13.5t-22 -33.5l-9 -9h-18l-6 9q2 58 33 91.5t77 33.5q27 0 50.5 -9.5t55.5 -27.5q30 -16 46.5 -23t34.5 -7q24 0 37 13.5t22 33.5l9 9h18l6 -9q-3 -58 -33.5 -91.5t-76.5 -33.5q-27 0 -50.5 9.5z" />
    <glyph glyph-name="notequal" unicode="&#x2260;" horiz-adv-x="496" 
d="M110 151l-2 9l44 85h-100l-8 8v51l8 8h136l59 110h-195l-8 8v51l8 8h231l58 109l13 4l32 -19l3 -9l-45 -85h100l8 -8v-51l-8 -8h-136l-59 -110h195l8 -8v-51l-8 -8h-230l-59 -109l-12 -4z" />
    <glyph glyph-name="lessequal" unicode="&#x2264;" horiz-adv-x="496" 
d="M96 384l-8 13v60l8 13l290 209h13l8 -8v-45l-8 -12l-207 -183v-8l207 -183l8 -12v-45l-8 -8h-13zM44 35v52l8 8h392l8 -8v-52l-8 -8h-392z" />
    <glyph glyph-name="greaterequal" unicode="&#x2265;" horiz-adv-x="496" 
d="M88 183v45l8 12l207 183v8l-207 183l-8 12v45l8 8h13l290 -209l8 -13v-60l-8 -13l-290 -209h-13zM44 35v52l8 8h392l8 -8v-52l-8 -8h-392z" />
    <glyph glyph-name="lozenge" unicode="&#x25ca;" horiz-adv-x="520" 
d="M245 6l-233 336v16l233 336l8 6h14l8 -6l233 -336v-16l-233 -336l-8 -6h-14zM263 78l185 269v6l-185 269h-6l-185 -269v-6l185 -269h6z" />
    <glyph glyph-name="uniF8FF" unicode="&#xf8ff;" horiz-adv-x="780" 
d="M100.5 6.5q-6.5 6.5 -6.5 15.5v595q0 7 4.5 13.5t11.5 8.5l270 78l10 2l10 -2l270 -78q7 -2 11.5 -8.5t4.5 -13.5v-595q0 -9 -6.5 -15.5t-15.5 -6.5l-7 1l-267 77l-267 -77l-7 -1q-9 0 -15.5 6.5zM368 669l-230 -67q4 -62 35 -114t82.5 -84.5t112.5 -37.5v303z
M524.5 403.5q51.5 32.5 82.5 84.5t35 114l-230 67v-303q61 5 112.5 37.5zM368 118v204q-73 6 -134 43.5t-97 97.5v-412zM643 463q-37 -60 -97.5 -97.5t-133.5 -43.5v-204l231 -67v412z" />
    <glyph glyph-name="fi" unicode="&#xfb01;" horiz-adv-x="601" 
d="M565 46v-38l-8 -8h-209l-8 8v38l8 8h15q15 0 26 11t11 26v312q0 16 -11.5 26.5t-26.5 10.5h-162v-349q0 -15 11 -26t26 -11h15l8 -8v-38l-8 -8h-209l-8 8v38l8 8h15q15 0 26 11t11 26v309q0 16 -12 28t-28 12h-15l-8 8v38l8 8h55v47q0 59 21 98t54.5 57t71.5 18
q36 0 59 -19.5t23 -51.5q0 -28 -18.5 -46.5t-46.5 -18.5q-29 0 -48 20.5t-16 54.5q-45 -19 -45 -98l7 -14l35 -16l8 -13v-18h305l8 -8l-8 -75v-320q0 -15 11 -26t26 -11h15zM404.5 596.5q-20.5 20.5 -20.5 48.5q0 29 20.5 49t48.5 20q29 0 49 -20t20 -49q0 -28 -20 -48.5
t-49 -20.5q-28 0 -48.5 20.5z" />
    <glyph glyph-name="fl" unicode="&#xfb02;" horiz-adv-x="599" 
d="M35 8v38l8 8h15q15 0 26 11t11 26v309q0 16 -12 28t-28 12h-15l-8 8v38l8 8h55v30q0 65 26.5 112.5t74 72.5t107.5 25q38 0 74.5 -9.5t62.5 -27.5l46 23h27l8 -8l-8 -75v-546q0 -15 11 -26t26 -11h15l8 -8v-38l-8 -8h-209l-8 8v38l8 8h15q15 0 26 11t11 26v448
q0 66 -34 98.5t-93 32.5t-95 -34t-36 -82l7 -13l35 -16l8 -13v-18h76l8 -8v-38l-8 -8h-76v-349q0 -15 11 -26t26 -11h15l8 -8v-38l-8 -8h-209z" />
    <glyph glyph-name="A.ss01" horiz-adv-x="758" 
d="M730 46v-38l-8 -8h-245l-8 8v38l8 8h32q12 0 18 5.5t6 14.5q0 8 -5 21l-23 55h-317l-23 -55q-5 -13 -5 -21q0 -9 6 -14.5t18 -5.5h35l8 -8v-38l-8 -8h-183l-8 8v38l8 8h21q27 0 40 29l256 609l8 8h35l8 -8l259 -612q7 -15 15.5 -20.5t21.5 -5.5h22zM483 204l-135 328
l-137 -328h272z" />
    <glyph glyph-name="Aacute.ss01" horiz-adv-x="758" 
d="M730 46v-38l-8 -8h-245l-8 8v38l8 8h32q12 0 18 5.5t6 14.5q0 8 -5 21l-23 55h-317l-23 -55q-5 -13 -5 -21q0 -9 6 -14.5t18 -5.5h35l8 -8v-38l-8 -8h-183l-8 8v38l8 8h21q27 0 40 29l256 609l8 8h35l8 -8l259 -612q7 -15 15.5 -20.5t21.5 -5.5h22zM483 204l-135 328
l-137 -328h272zM341 778l81 121l13 7h114l4 -10l-125 -120l-16 -7h-66z" />
    <glyph glyph-name="Abreve.ss01" horiz-adv-x="758" 
d="M730 46v-38l-8 -8h-245l-8 8v38l8 8h32q12 0 18 5.5t6 14.5q0 8 -5 21l-23 55h-317l-23 -55q-5 -13 -5 -21q0 -9 6 -14.5t18 -5.5h35l8 -8v-38l-8 -8h-183l-8 8v38l8 8h21q27 0 40 29l256 609l8 8h35l8 -8l259 -612q7 -15 15.5 -20.5t21.5 -5.5h22zM483 204l-135 328
l-137 -328h272zM288.5 799q-35.5 31 -37.5 84l8 8h24l9 -8q6 -18 29.5 -29.5t57.5 -11.5t57.5 11.5t29.5 29.5l10 8h23l8 -8q-2 -53 -37.5 -84t-90.5 -31t-90.5 31z" />
    <glyph glyph-name="Acircumflex.ss01" horiz-adv-x="758" 
d="M730 46v-38l-8 -8h-245l-8 8v38l8 8h32q12 0 18 5.5t6 14.5q0 8 -5 21l-23 55h-317l-23 -55q-5 -13 -5 -21q0 -9 6 -14.5t18 -5.5h35l8 -8v-38l-8 -8h-183l-8 8v38l8 8h21q27 0 40 29l256 609l8 8h35l8 -8l259 -612q7 -15 15.5 -20.5t21.5 -5.5h22zM483 204l-135 328
l-137 -328h272zM224 778l85 120l13 8h114l13 -8l85 -120l-8 -9h-63l-5 2l-76 70h-7l-75 -70l-6 -2h-62z" />
    <glyph glyph-name="Adieresis.ss01" horiz-adv-x="758" 
d="M730 46v-38l-8 -8h-245l-8 8v38l8 8h32q12 0 18 5.5t6 14.5q0 8 -5 21l-23 55h-317l-23 -55q-5 -13 -5 -21q0 -9 6 -14.5t18 -5.5h35l8 -8v-38l-8 -8h-183l-8 8v38l8 8h21q27 0 40 29l256 609l8 8h35l8 -8l259 -612q7 -15 15.5 -20.5t21.5 -5.5h22zM483 204l-135 328
l-137 -328h272zM242 789.5q-18 18.5 -18 43.5q0 26 18.5 45t43.5 19q26 0 44.5 -19t18.5 -45q0 -25 -18.5 -43.5t-44.5 -18.5t-44 18.5zM427 789.5q-18 18.5 -18 43.5q0 26 18.5 45t43.5 19q26 0 45 -19t19 -45q0 -25 -19 -43.5t-45 -18.5t-44 18.5z" />
    <glyph glyph-name="Agrave.ss01" horiz-adv-x="758" 
d="M730 46v-38l-8 -8h-245l-8 8v38l8 8h32q12 0 18 5.5t6 14.5q0 8 -5 21l-23 55h-317l-23 -55q-5 -13 -5 -21q0 -9 6 -14.5t18 -5.5h35l8 -8v-38l-8 -8h-183l-8 8v38l8 8h21q27 0 40 29l256 609l8 8h35l8 -8l259 -612q7 -15 15.5 -20.5t21.5 -5.5h22zM483 204l-135 328
l-137 -328h272zM331 776l-125 120l4 10h114l13 -7l81 -121l-5 -9h-66z" />
    <glyph glyph-name="Amacron.ss01" horiz-adv-x="758" 
d="M730 46v-38l-8 -8h-245l-8 8v38l8 8h32q12 0 18 5.5t6 14.5q0 8 -5 21l-23 55h-317l-23 -55q-5 -13 -5 -21q0 -9 6 -14.5t18 -5.5h35l8 -8v-38l-8 -8h-183l-8 8v38l8 8h21q27 0 40 29l256 609l8 8h35l8 -8l259 -612q7 -15 15.5 -20.5t21.5 -5.5h22zM483 204l-135 328
l-137 -328h272zM254 797v48l8 8h234l8 -8v-48l-8 -8h-234z" />
    <glyph glyph-name="Aogonek.ss01" horiz-adv-x="758" 
d="M813 -177l-1 -10q-19 -25 -48 -40.5t-66 -15.5q-53 0 -85.5 31t-32.5 81q0 39 22 73t60 58h-185l-8 8v38l8 8h32q12 0 18 5.5t6 14.5q0 8 -5 21l-23 55h-317l-23 -55q-5 -13 -5 -21q0 -9 6 -14.5t18 -5.5h35l8 -8v-38l-8 -8h-183l-8 8v38l8 8h21q27 0 40 29l256 609l8 8
h35l8 -8l259 -612q7 -15 15.5 -20.5t21.5 -5.5h22l8 -8v-38l-8 -8q-58 -56 -58 -114q0 -33 17 -50.5t45 -17.5q20 0 34.5 5t33.5 17l9 -3zM483 204l-135 328l-137 -328h272z" />
    <glyph glyph-name="Aring.ss01" horiz-adv-x="758" 
d="M730 46v-38l-8 -8h-245l-8 8v38l8 8h32q12 0 18 5.5t6 14.5q0 8 -5 21l-23 55h-317l-23 -55q-5 -13 -5 -21q0 -9 6 -14.5t18 -5.5h35l8 -8v-38l-8 -8h-183l-8 8v38l8 8h21q27 0 40 29l256 609l8 8h35l8 -8l259 -612q7 -15 15.5 -20.5t21.5 -5.5h22zM483 204l-135 328
l-137 -328h272zM306 779.5q-30 29.5 -30 71.5t30 71.5t73 29.5t73 -29.5t30 -71.5t-30 -71.5t-73 -29.5t-73 29.5zM421 809.5q16 16.5 16 41.5t-16 41.5t-42 16.5t-42 -16.5t-16 -41.5t16 -41.5t42 -16.5t42 16.5z" />
    <glyph glyph-name="Atilde.ss01" horiz-adv-x="758" 
d="M730 46v-38l-8 -8h-245l-8 8v38l8 8h32q12 0 18 5.5t6 14.5q0 8 -5 21l-23 55h-317l-23 -55q-5 -13 -5 -21q0 -9 6 -14.5t18 -5.5h35l8 -8v-38l-8 -8h-183l-8 8v38l8 8h21q27 0 40 29l256 609l8 8h35l8 -8l259 -612q7 -15 15.5 -20.5t21.5 -5.5h22zM483 204l-135 328
l-137 -328h272zM403 776q-20 9 -45 26q-22 14 -36 21t-31 7q-23 0 -36.5 -13.5t-18.5 -33.5l-8 -8h-17l-8 8q2 55 33 86.5t75 31.5q25 0 44.5 -9t46.5 -26q23 -14 37 -21t30 -7q22 0 35 14t18 33l8 8h17l8 -8q-1 -56 -31.5 -87t-74.5 -31q-26 0 -46 9z" />
    <glyph glyph-name="AE.ss01" horiz-adv-x="970" 
d="M28 8v38l8 8h22q27 0 40 30l268 608l8 8h421l9 -9v-31l-25 -109l-8 -8h-32l-8 8q-12 95 -91 95h-176q-25 0 -25 -20q0 -8 6 -22l91 -208l14 -9h147q15 0 27.5 13t12.5 27v12l8 8h37l8 -8v-158l-8 -8h-37l-8 8v12q0 15 -12.5 27.5t-27.5 12.5h-124l-7 -8l104 -238
q14 -33 59 -33h30q62 0 91.5 39t36.5 92l8 8h39l6 -8l-15 -177l-8 -8h-424l-8 8v38l8 8h30q13 0 20 6t7 16q0 6 -5 18l-26 56h-328l-23 -56q-5 -12 -5 -18q0 -10 7 -16t20 -6h30l8 -8v-38l-8 -8h-184zM497 204l-141 324l-141 -324h282z" />
    <glyph glyph-name="AEacute.ss01" horiz-adv-x="970" 
d="M28 8v38l8 8h22q27 0 40 30l268 608l8 8h421l9 -9v-31l-25 -109l-8 -8h-32l-8 8q-12 95 -91 95h-176q-25 0 -25 -20q0 -8 6 -22l91 -208l14 -9h147q15 0 27.5 13t12.5 27v12l8 8h37l8 -8v-158l-8 -8h-37l-8 8v12q0 15 -12.5 27.5t-27.5 12.5h-124l-7 -8l104 -238
q14 -33 59 -33h30q62 0 91.5 39t36.5 92l8 8h39l6 -8l-15 -177l-8 -8h-424l-8 8v38l8 8h30q13 0 20 6t7 16q0 6 -5 18l-26 56h-328l-23 -56q-5 -12 -5 -18q0 -10 7 -16t20 -6h30l8 -8v-38l-8 -8h-184zM497 204l-141 324l-141 -324h282zM424 778l81 121l13 7h114l4 -10
l-125 -120l-16 -7h-66z" />
    <glyph glyph-name="M.ss01" horiz-adv-x="970" 
d="M24 8v38l8 8h22q15 0 25.5 8t14.5 22l145 608l8 8h36l8 -8l193 -504l197 504l8 8h33l8 -8l146 -608q5 -19 14.5 -24.5t25.5 -5.5h22l8 -8v-38l-8 -8h-241l-8 8v38l8 8h30q29 0 29 19q0 5 -4 21l-92 396l-183 -480l-10 -10h-22l-11 10l-184 479l-90 -395q-3 -9 -3 -18
q0 -10 7 -16t20 -6h30l8 -8v-38l-8 -8h-182z" />
    <glyph glyph-name="N.ss01" horiz-adv-x="792" 
d="M36 8v38l8 8h32q15 0 27.5 12.5t12.5 27.5v515q-1 14 -13.5 25.5t-26.5 11.5h-32l-8 8v38l8 8h138l16 -8l424 -515v431q-1 14 -13.5 26t-26.5 12h-32l-8 8v38l8 8h198l8 -8v-38l-8 -8h-32q-15 0 -27.5 -12.5t-12.5 -27.5v-598l-8 -8h-35l-17 10l-446 541v-457
q0 -15 12.5 -27.5t27.5 -12.5h32l8 -8v-38l-8 -8h-198z" />
    <glyph glyph-name="Nacute.ss01" horiz-adv-x="792" 
d="M36 8v38l8 8h32q15 0 27.5 12.5t12.5 27.5v515q-1 14 -13.5 25.5t-26.5 11.5h-32l-8 8v38l8 8h138l16 -8l424 -515v431q-1 14 -13.5 26t-26.5 12h-32l-8 8v38l8 8h198l8 -8v-38l-8 -8h-32q-15 0 -27.5 -12.5t-12.5 -27.5v-598l-8 -8h-35l-17 10l-446 541v-457
q0 -15 12.5 -27.5t27.5 -12.5h32l8 -8v-38l-8 -8h-198zM363 778l81 121l13 7h114l4 -10l-125 -120l-16 -7h-66z" />
    <glyph glyph-name="Ncaron.ss01" horiz-adv-x="792" 
d="M36 8v38l8 8h32q15 0 27.5 12.5t12.5 27.5v515q-1 14 -13.5 25.5t-26.5 11.5h-32l-8 8v38l8 8h138l16 -8l424 -515v431q-1 14 -13.5 26t-26.5 12h-32l-8 8v38l8 8h198l8 -8v-38l-8 -8h-32q-15 0 -27.5 -12.5t-12.5 -27.5v-598l-8 -8h-35l-17 10l-446 541v-457
q0 -15 12.5 -27.5t27.5 -12.5h32l8 -8v-38l-8 -8h-198zM332 777l-85 120l8 9h62l6 -2l75 -70h7l76 70l5 2h63l8 -9l-85 -120l-13 -8h-114z" />
    <glyph glyph-name="uni0145.ss01" horiz-adv-x="792" 
d="M36 8v38l8 8h32q15 0 27.5 12.5t12.5 27.5v515q-1 14 -13.5 25.5t-26.5 11.5h-32l-8 8v38l8 8h138l16 -8l424 -515v431q-1 14 -13.5 26t-26.5 12h-32l-8 8v38l8 8h198l8 -8v-38l-8 -8h-32q-15 0 -27.5 -12.5t-12.5 -27.5v-598l-8 -8h-35l-17 10l-446 541v-457
q0 -15 12.5 -27.5t27.5 -12.5h32l8 -8v-38l-8 -8h-198zM340 -309l-7 11l2 11q28 17 41.5 38.5t14.5 41.5q-26 1 -45 20t-19 46t19.5 47t46.5 20q30 0 49.5 -21.5t19.5 -57.5q0 -56 -33.5 -97t-79.5 -61z" />
    <glyph glyph-name="Eng.ss01" horiz-adv-x="792" 
d="M427.5 -207q-37.5 33 -37.5 93l8 8h23l8 -8q2 -28 23 -47.5t53 -19.5q31 0 51 19.5t20 56.5v157l-406 499v-457q0 -15 12.5 -27.5t27.5 -12.5h32l8 -8v-38l-8 -8h-198l-8 8v38l8 8h32q15 0 27.5 12.5t12.5 27.5v515q-1 14 -13.5 25.5t-26.5 11.5h-32l-8 8v38l8 8h138
l16 -8l424 -513v427q0 15 -12.5 27.5t-27.5 12.5h-32l-8 8v38l8 8h198l8 -8v-38l-8 -8h-32q-15 0 -27.5 -12.5t-12.5 -27.5v-693q0 -68 -40.5 -110.5t-114.5 -42.5q-56 0 -93.5 33z" />
    <glyph glyph-name="Ntilde.ss01" horiz-adv-x="792" 
d="M36 8v38l8 8h32q15 0 27.5 12.5t12.5 27.5v515q-1 14 -13.5 25.5t-26.5 11.5h-32l-8 8v38l8 8h138l16 -8l424 -515v431q-1 14 -13.5 26t-26.5 12h-32l-8 8v38l8 8h198l8 -8v-38l-8 -8h-32q-15 0 -27.5 -12.5t-12.5 -27.5v-598l-8 -8h-35l-17 10l-446 541v-457
q0 -15 12.5 -27.5t27.5 -12.5h32l8 -8v-38l-8 -8h-198zM425 776q-20 9 -45 26q-22 14 -36 21t-31 7q-23 0 -36.5 -13.5t-18.5 -33.5l-8 -8h-17l-8 8q2 55 33 86.5t75 31.5q25 0 44.5 -9t46.5 -26q23 -14 37 -21t30 -7q22 0 35 14t18 33l8 8h17l8 -8q-1 -56 -31.5 -87
t-74.5 -31q-26 0 -46 9z" />
    <glyph glyph-name="W.ss01" horiz-adv-x="1044" 
d="M291 8l-201 612q-9 26 -37 26h-27l-8 8v38l8 8h247l8 -8v-38l-8 -8h-32q-13 0 -19.5 -6t-6.5 -15q0 -6 4 -20l138 -417l175 494l11 8h21l10 -8l181 -495l135 418q4 16 4 20q0 21 -24 21h-33l-8 8v38l8 8h181l8 -8v-38l-8 -8h-26q-30 0 -39 -29l-201 -609l-8 -8h-42l-8 8
l-173 479l-171 -479l-8 -8h-43z" />
    <glyph glyph-name="Wacute.ss01" horiz-adv-x="1044" 
d="M291 8l-201 612q-9 26 -37 26h-27l-8 8v38l8 8h247l8 -8v-38l-8 -8h-32q-13 0 -19.5 -6t-6.5 -15q0 -6 4 -20l138 -417l175 494l11 8h21l10 -8l181 -495l135 418q4 16 4 20q0 21 -24 21h-33l-8 8v38l8 8h181l8 -8v-38l-8 -8h-26q-30 0 -39 -29l-201 -609l-8 -8h-42l-8 8
l-173 479l-171 -479l-8 -8h-43zM517 778l81 121l13 7h114l4 -10l-125 -120l-16 -7h-66z" />
    <glyph glyph-name="Wcircumflex.ss01" horiz-adv-x="1044" 
d="M291 8l-201 612q-9 26 -37 26h-27l-8 8v38l8 8h247l8 -8v-38l-8 -8h-32q-13 0 -19.5 -6t-6.5 -15q0 -6 4 -20l138 -417l175 494l11 8h21l10 -8l181 -495l135 418q4 16 4 20q0 21 -24 21h-33l-8 8v38l8 8h181l8 -8v-38l-8 -8h-26q-30 0 -39 -29l-201 -609l-8 -8h-42l-8 8
l-173 479l-171 -479l-8 -8h-43zM401 778l85 120l13 8h114l13 -8l85 -120l-8 -9h-63l-5 2l-76 70h-7l-75 -70l-6 -2h-62z" />
    <glyph glyph-name="Wdieresis.ss01" horiz-adv-x="1044" 
d="M291 8l-201 612q-9 26 -37 26h-27l-8 8v38l8 8h247l8 -8v-38l-8 -8h-32q-13 0 -19.5 -6t-6.5 -15q0 -6 4 -20l138 -417l175 494l11 8h21l10 -8l181 -495l135 418q4 16 4 20q0 21 -24 21h-33l-8 8v38l8 8h181l8 -8v-38l-8 -8h-26q-30 0 -39 -29l-201 -609l-8 -8h-42l-8 8
l-173 479l-171 -479l-8 -8h-43zM418 789.5q-18 18.5 -18 43.5q0 26 18.5 45t43.5 19q26 0 44.5 -19t18.5 -45q0 -25 -18.5 -43.5t-44.5 -18.5t-44 18.5zM603 789.5q-18 18.5 -18 43.5q0 26 18.5 45t43.5 19q26 0 45 -19t19 -45q0 -25 -19 -43.5t-45 -18.5t-44 18.5z" />
    <glyph glyph-name="Wgrave.ss01" horiz-adv-x="1044" 
d="M291 8l-201 612q-9 26 -37 26h-27l-8 8v38l8 8h247l8 -8v-38l-8 -8h-32q-13 0 -19.5 -6t-6.5 -15q0 -6 4 -20l138 -417l175 494l11 8h21l10 -8l181 -495l135 418q4 16 4 20q0 21 -24 21h-33l-8 8v38l8 8h181l8 -8v-38l-8 -8h-26q-30 0 -39 -29l-201 -609l-8 -8h-42l-8 8
l-173 479l-171 -479l-8 -8h-43zM507 776l-125 120l4 10h114l13 -7l81 -121l-5 -9h-66z" />
    <glyph glyph-name="C.ss02" horiz-adv-x="691" 
d="M205.5 29.5q-78.5 43.5 -124 126t-45.5 192.5q0 113 49.5 196t134 126.5t185.5 43.5q124 0 214 -53l9 -11l10 -146l-8 -8h-54l-8 8l-2 18q-14 133 -159 133q-74 0 -130.5 -39.5t-88 -109t-31.5 -156.5q0 -83 31 -150t86 -105t123 -38q80 0 135 39t92 108l10 3l20 -9l4 -9
q-32 -84 -100.5 -143.5t-178.5 -59.5q-95 0 -173.5 43.5z" />
    <glyph glyph-name="Cacute.ss02" horiz-adv-x="691" 
d="M205.5 29.5q-78.5 43.5 -124 126t-45.5 192.5q0 113 49.5 196t134 126.5t185.5 43.5q124 0 214 -53l9 -11l10 -146l-8 -8h-54l-8 8l-2 18q-14 133 -159 133q-74 0 -130.5 -39.5t-88 -109t-31.5 -156.5q0 -83 31 -150t86 -105t123 -38q80 0 135 39t92 108l10 3l20 -9l4 -9
q-32 -84 -100.5 -143.5t-178.5 -59.5q-95 0 -173.5 43.5zM361 778l81 121l13 7h114l4 -10l-125 -120l-16 -7h-66z" />
    </font>
</defs>
</svg>
