<svg width="33" height="33" viewBox="0 0 33 33" fill="none" xmlns="http://www.w3.org/2000/svg">
<g clip-path="url(#clip0_5_1467)">
<path d="M31.3898 7.60681C30.3952 8.0384 29.3444 8.32677 28.2689 8.46333L28.6365 9.79773C30.0521 8.93125 31.1129 7.58896 31.6288 6.01141C31.6557 5.87762 31.6448 5.73899 31.5973 5.61104C31.5499 5.48309 31.4678 5.37086 31.3602 5.28692C31.2526 5.20298 31.1238 5.15065 30.9881 5.13577C30.8525 5.12089 30.7154 5.14406 30.5921 5.20269C29.4523 5.86884 28.2102 6.34207 26.9161 6.60325L27.6145 6.78706C26.8313 5.9567 25.8511 5.33747 24.7648 4.98675C23.6785 4.63603 22.5213 4.56516 21.4003 4.7807C20.2793 4.99624 19.2309 5.49123 18.3521 6.21979C17.4734 6.94836 16.7927 7.88694 16.3732 8.94856C15.8693 10.2436 15.7669 11.6602 16.0791 13.0143L16.7702 12.11C14.4518 11.9777 12.1862 11.3646 10.1174 10.3096C8.0486 9.25465 6.22188 7.7809 4.75328 5.982C4.67352 5.90767 4.57822 5.852 4.47429 5.81904C4.37036 5.78608 4.26041 5.77665 4.15238 5.79143C4.04435 5.80621 3.94097 5.84483 3.84971 5.90449C3.75845 5.96416 3.68161 6.04337 3.62474 6.1364C2.77474 7.64136 2.52252 9.41118 2.91828 11.0937C3.31404 12.7762 4.32876 14.248 5.76052 15.2162L6.12812 13.8818C5.29314 13.844 4.47752 13.6178 3.74238 13.2201C3.63324 13.1602 3.51067 13.129 3.38616 13.1294C3.26165 13.1297 3.13928 13.1618 3.03053 13.2224C2.92178 13.283 2.8302 13.3703 2.76439 13.4759C2.69858 13.5816 2.66069 13.7023 2.65427 13.8267C2.65096 15.3942 3.18466 16.9157 4.16653 18.1376C5.14839 19.3596 6.51918 20.2084 8.05069 20.5428V19.1606C7.28048 19.3636 6.47563 19.3987 5.69067 19.2635C5.19073 19.1753 4.62095 19.5833 4.80842 20.1458C5.25153 21.4943 6.10017 22.6732 7.23843 23.5212C8.37668 24.3693 9.74903 24.8453 11.168 24.8842L10.6607 23.6601C8.24788 25.4956 5.21634 26.3221 2.20579 25.9649C1.47059 25.8804 1.29414 26.9501 1.83819 27.2993C4.34796 28.8722 7.1997 29.8173 10.1521 30.0547C13.1045 30.2921 16.0706 29.8148 18.7994 28.6631C23.1335 26.8251 26.4382 23.1491 28.177 18.793C29.1207 16.4327 29.5566 13.9 29.4562 11.36L29.0886 11.9813C30.3709 11.0473 31.4816 9.89805 32.3713 8.58464C32.8897 7.81635 31.6361 7.11422 31.1362 7.84943C30.6696 8.5327 30.1351 9.16699 29.5408 9.74259C29.2468 10.0275 28.9376 10.2963 28.6144 10.5476C28.4512 10.6539 28.2996 10.7771 28.1623 10.9152C28.0284 11.1354 27.9788 11.3966 28.0226 11.6504C28.0535 12.7765 27.966 13.9026 27.7616 15.0103C27.3451 17.2339 26.5025 19.356 25.2803 21.2596C23.9444 23.3543 22.1405 25.1103 20.0105 26.3893C17.8806 27.6683 15.4828 28.4354 13.006 28.6301C9.33272 28.9335 5.66078 28.03 2.54766 26.0568L2.18006 27.3949C5.57686 27.7586 8.98138 26.7812 11.6679 24.671C12.1899 24.2666 11.7194 23.4652 11.1606 23.4468C10.0547 23.4164 8.98462 23.0477 8.09466 22.3905C7.2047 21.7332 6.5376 20.8189 6.18326 19.7708L5.30101 20.6531C6.33636 20.8472 7.40167 20.8121 8.42197 20.5501C9.08733 20.3774 9.12409 19.315 8.42197 19.1679C7.19395 18.9155 6.09136 18.2454 5.30183 17.2715C4.5123 16.2977 4.08462 15.0803 4.0916 13.8267L3.02187 14.4479C3.98041 14.9649 5.04373 15.2578 6.1318 15.3044C6.89274 15.3375 7.04345 14.3413 6.4994 13.9664C5.38669 13.1992 4.60138 12.0433 4.29796 10.7263C3.99455 9.40919 4.195 8.02626 4.85989 6.84955L3.75708 6.99291C5.35272 8.92275 7.33082 10.5011 9.56671 11.6286C11.8026 12.756 14.2478 13.408 16.7482 13.5436C16.8574 13.5401 16.9645 13.5123 17.0617 13.4622C17.1588 13.4121 17.2436 13.341 17.3098 13.2541C17.376 13.1671 17.4219 13.0664 17.4444 12.9595C17.4668 12.8525 17.465 12.7419 17.4393 12.6356C17.2534 11.8047 17.2682 10.9414 17.4824 10.1173C17.6966 9.29319 18.1041 8.53198 18.6711 7.89672C19.2381 7.26146 19.9482 6.77043 20.7428 6.46431C21.5373 6.15819 22.3934 6.04578 23.2401 6.1364C24.4928 6.28772 25.6581 6.85614 26.5485 7.75018C27.1403 8.30158 28.3277 7.75018 29.0004 7.51859C29.8043 7.23264 30.5797 6.87204 31.3163 6.44151L30.2466 5.62911C29.8381 6.8542 29.0101 7.8957 27.9086 8.56993C27.3535 8.90813 27.541 9.99991 28.2762 9.90433C29.602 9.74152 30.8972 9.38739 32.1214 8.85299C32.2821 8.75378 32.3986 8.59649 32.4465 8.41374C32.4944 8.23099 32.4701 8.03681 32.3787 7.87149C32.2806 7.70752 32.1225 7.58819 31.9379 7.53878C31.7533 7.48938 31.5567 7.51378 31.3898 7.60681Z" fill="#1A1A1A"/>
</g>
<defs>
<clipPath id="clip0_5_1467">
<rect width="32" height="32" fill="white" transform="translate(0.5 0.890625)"/>
</clipPath>
</defs>
</svg>
